<svg width="35" height="28" viewBox="0 0 35 28" fill="none" xmlns="http://www.w3.org/2000/svg">
<g filter="url(#filter0_ii_95_6615)">
<rect width="34.1034" height="27.7586" transform="translate(0.863281)" fill="#BFCED9"/>
<g filter="url(#filter1_ii_95_6615)">
<rect width="30.931" height="24.5862" transform="translate(2.44922 1.58618)" fill="#BFCED9"/>
<g filter="url(#filter2_ii_95_6615)">
<rect x="11.5703" y="6.74139" width="1.58621" height="1.58621" fill="#99A9B5"/>
<rect x="13.1562" y="8.32758" width="1.58621" height="1.58621" fill="#99A9B5"/>
<rect x="14.7422" y="9.91382" width="1.58621" height="1.58621" fill="#99A9B5"/>
<rect x="16.3301" y="11.5" width="1.58621" height="1.58621" fill="#99A9B5"/>
<rect x="17.916" y="13.0862" width="1.58621" height="1.58621" fill="#99A9B5"/>
<rect x="16.3301" y="14.6724" width="1.58621" height="1.58621" fill="#99A9B5"/>
<rect x="14.7422" y="16.2586" width="1.58621" height="1.58621" fill="#99A9B5"/>
<rect x="13.1562" y="17.8448" width="1.58621" height="1.58621" fill="#99A9B5"/>
<rect x="11.5703" y="19.431" width="1.58621" height="1.58621" fill="#99A9B5"/>
<rect x="11.5703" y="17.8448" width="1.58621" height="1.58621" fill="#99A9B5"/>
<rect x="11.5703" y="16.2586" width="1.58621" height="1.58621" fill="#99A9B5"/>
<rect x="11.5703" y="14.6724" width="1.58621" height="1.58621" fill="#99A9B5"/>
<rect x="11.5703" y="13.0862" width="1.58621" height="1.58621" fill="#99A9B5"/>
<rect x="11.5703" y="11.5" width="1.58621" height="1.58621" fill="#99A9B5"/>
<rect x="11.5703" y="9.91382" width="1.58621" height="1.58621" fill="#99A9B5"/>
<rect x="11.5703" y="8.32758" width="1.58621" height="1.58621" fill="#99A9B5"/>
<rect x="9.98438" y="6.74139" width="1.58621" height="1.58621" fill="#99A9B5"/>
<rect x="9.98438" y="19.431" width="1.58621" height="1.58621" fill="#99A9B5"/>
<rect x="9.98438" y="17.8448" width="1.58621" height="1.58621" fill="#99A9B5"/>
<rect x="9.98438" y="16.2586" width="1.58621" height="1.58621" fill="#99A9B5"/>
<rect x="9.98438" y="14.6724" width="1.58621" height="1.58621" fill="#99A9B5"/>
<rect x="9.98438" y="13.0862" width="1.58621" height="1.58621" fill="#99A9B5"/>
<rect x="9.98438" y="11.5" width="1.58621" height="1.58621" fill="#99A9B5"/>
<rect x="9.98438" y="9.91382" width="1.58621" height="1.58621" fill="#99A9B5"/>
<rect x="9.98438" y="8.32758" width="1.58621" height="1.58621" fill="#99A9B5"/>
<rect x="13.1562" y="9.91382" width="1.58621" height="1.58621" fill="#99A9B5"/>
<rect x="13.1562" y="11.5" width="1.58621" height="1.58621" fill="#99A9B5"/>
<rect x="14.7422" y="11.5" width="1.58621" height="1.58621" fill="#99A9B5"/>
<rect x="16.3301" y="13.0862" width="1.58621" height="1.58621" fill="#99A9B5"/>
<rect x="14.7422" y="13.0862" width="1.58621" height="1.58621" fill="#99A9B5"/>
<rect x="13.1562" y="13.0862" width="1.58621" height="1.58621" fill="#99A9B5"/>
<rect x="14.7422" y="14.6724" width="1.58621" height="1.58621" fill="#99A9B5"/>
<rect x="13.1562" y="14.6724" width="1.58621" height="1.58621" fill="#99A9B5"/>
<rect x="13.1562" y="16.2586" width="1.58621" height="1.58621" fill="#99A9B5"/>
</g>
<g filter="url(#filter3_ii_95_6615)">
<rect x="25.8457" y="21.0172" width="1.58621" height="1.58621" transform="rotate(-180 25.8457 21.0172)" fill="#99A9B5"/>
<rect x="24.2598" y="19.431" width="1.58621" height="1.58621" transform="rotate(-180 24.2598 19.431)" fill="#99A9B5"/>
<rect x="24.2598" y="21.0172" width="1.58621" height="1.58621" transform="rotate(-180 24.2598 21.0172)" fill="#99A9B5"/>
<path d="M24.2598 9.91376H22.6736V8.32755H24.2598V9.91376Z" fill="#99A9B5"/>
<path d="M24.2598 8.32758H22.6736V6.74137H24.2598V8.32758Z" fill="#99A9B5"/>
<rect x="25.8457" y="8.32758" width="1.58621" height="1.58621" transform="rotate(-180 25.8457 8.32758)" fill="#99A9B5"/>
<rect x="25.8457" y="9.91376" width="1.58621" height="1.58621" transform="rotate(-180 25.8457 9.91376)" fill="#99A9B5"/>
<rect x="25.8457" y="11.5" width="1.58621" height="1.58621" transform="rotate(-180 25.8457 11.5)" fill="#99A9B5"/>
<rect x="25.8457" y="13.0862" width="1.58621" height="1.58621" transform="rotate(-180 25.8457 13.0862)" fill="#99A9B5"/>
<rect x="25.8457" y="14.6724" width="1.58621" height="1.58621" transform="rotate(-180 25.8457 14.6724)" fill="#99A9B5"/>
<rect x="25.8457" y="16.2586" width="1.58621" height="1.58621" transform="rotate(-180 25.8457 16.2586)" fill="#99A9B5"/>
<rect x="25.8457" y="17.8448" width="1.58621" height="1.58621" transform="rotate(-180 25.8457 17.8448)" fill="#99A9B5"/>
<rect x="25.8457" y="19.431" width="1.58621" height="1.58621" transform="rotate(-180 25.8457 19.431)" fill="#99A9B5"/>
<rect x="24.2598" y="17.8448" width="1.58621" height="1.58621" transform="rotate(-180 24.2598 17.8448)" fill="#99A9B5"/>
<rect x="24.2598" y="16.2586" width="1.58621" height="1.58621" transform="rotate(-180 24.2598 16.2586)" fill="#99A9B5"/>
<rect x="24.2598" y="14.6724" width="1.58621" height="1.58621" transform="rotate(-180 24.2598 14.6724)" fill="#99A9B5"/>
<rect x="24.2598" y="13.0862" width="1.58621" height="1.58621" transform="rotate(-180 24.2598 13.0862)" fill="#99A9B5"/>
<rect x="24.2598" y="11.5" width="1.58621" height="1.58621" transform="rotate(-180 24.2598 11.5)" fill="#99A9B5"/>
<rect x="22.6738" y="19.431" width="1.58621" height="1.58621" transform="rotate(-180 22.6738 19.431)" fill="#99A9B5"/>
<rect x="22.6738" y="21.0172" width="1.58621" height="1.58621" transform="rotate(-180 22.6738 21.0172)" fill="#99A9B5"/>
<path d="M22.6738 9.91376H21.0876V8.32755H22.6738V9.91376Z" fill="#99A9B5"/>
<path d="M22.6738 8.32758H21.0876V6.74137H22.6738V8.32758Z" fill="#99A9B5"/>
<rect x="22.6738" y="17.8448" width="1.58621" height="1.58621" transform="rotate(-180 22.6738 17.8448)" fill="#99A9B5"/>
<rect x="22.6738" y="16.2586" width="1.58621" height="1.58621" transform="rotate(-180 22.6738 16.2586)" fill="#99A9B5"/>
<rect x="22.6738" y="14.6724" width="1.58621" height="1.58621" transform="rotate(-180 22.6738 14.6724)" fill="#99A9B5"/>
<rect x="22.6738" y="13.0862" width="1.58621" height="1.58621" transform="rotate(-180 22.6738 13.0862)" fill="#99A9B5"/>
<rect x="22.6738" y="11.5" width="1.58621" height="1.58621" transform="rotate(-180 22.6738 11.5)" fill="#99A9B5"/>
</g>
</g>
</g>
<defs>
<filter id="filter0_ii_95_6615" x="0.863281" y="0" width="34.1035" height="27.7586" filterUnits="userSpaceOnUse" color-interpolation-filters="sRGB">
<feFlood flood-opacity="0" result="BackgroundImageFix"/>
<feBlend mode="normal" in="SourceGraphic" in2="BackgroundImageFix" result="shape"/>
<feColorMatrix in="SourceAlpha" type="matrix" values="0 0 0 0 0 0 0 0 0 0 0 0 0 0 0 0 0 0 127 0" result="hardAlpha"/>
<feOffset dx="-1.58621" dy="-1.58621"/>
<feComposite in2="hardAlpha" operator="arithmetic" k2="-1" k3="1"/>
<feColorMatrix type="matrix" values="0 0 0 0 0.397309 0 0 0 0 0.444085 0 0 0 0 0.561024 0 0 0 1 0"/>
<feBlend mode="normal" in2="shape" result="effect1_innerShadow_95_6615"/>
<feColorMatrix in="SourceAlpha" type="matrix" values="0 0 0 0 0 0 0 0 0 0 0 0 0 0 0 0 0 0 127 0" result="hardAlpha"/>
<feOffset dx="1.58621" dy="1.58621"/>
<feComposite in2="hardAlpha" operator="arithmetic" k2="-1" k3="1"/>
<feColorMatrix type="matrix" values="0 0 0 0 0.85098 0 0 0 0 0.87451 0 0 0 0 0.956863 0 0 0 1 0"/>
<feBlend mode="normal" in2="effect1_innerShadow_95_6615" result="effect2_innerShadow_95_6615"/>
</filter>
<filter id="filter1_ii_95_6615" x="2.44922" y="1.58618" width="30.9316" height="24.5862" filterUnits="userSpaceOnUse" color-interpolation-filters="sRGB">
<feFlood flood-opacity="0" result="BackgroundImageFix"/>
<feBlend mode="normal" in="SourceGraphic" in2="BackgroundImageFix" result="shape"/>
<feColorMatrix in="SourceAlpha" type="matrix" values="0 0 0 0 0 0 0 0 0 0 0 0 0 0 0 0 0 0 127 0" result="hardAlpha"/>
<feOffset dx="-1.58621" dy="-1.58621"/>
<feComposite in2="hardAlpha" operator="arithmetic" k2="-1" k3="1"/>
<feColorMatrix type="matrix" values="0 0 0 0 0.486275 0 0 0 0 0.541176 0 0 0 0 0.592157 0 0 0 1 0"/>
<feBlend mode="normal" in2="shape" result="effect1_innerShadow_95_6615"/>
<feColorMatrix in="SourceAlpha" type="matrix" values="0 0 0 0 0 0 0 0 0 0 0 0 0 0 0 0 0 0 127 0" result="hardAlpha"/>
<feOffset dx="1.58621" dy="1.58621"/>
<feComposite in2="hardAlpha" operator="arithmetic" k2="-1" k3="1"/>
<feColorMatrix type="matrix" values="0 0 0 0 0.937255 0 0 0 0 1 0 0 0 0 1 0 0 0 1 0"/>
<feBlend mode="normal" in2="effect1_innerShadow_95_6615" result="effect2_innerShadow_95_6615"/>
</filter>
<filter id="filter2_ii_95_6615" x="9.98438" y="6.74139" width="9.51758" height="14.2758" filterUnits="userSpaceOnUse" color-interpolation-filters="sRGB">
<feFlood flood-opacity="0" result="BackgroundImageFix"/>
<feBlend mode="normal" in="SourceGraphic" in2="BackgroundImageFix" result="shape"/>
<feColorMatrix in="SourceAlpha" type="matrix" values="0 0 0 0 0 0 0 0 0 0 0 0 0 0 0 0 0 0 127 0" result="hardAlpha"/>
<feOffset dx="-1.58621" dy="-0.793103"/>
<feComposite in2="hardAlpha" operator="arithmetic" k2="-1" k3="1"/>
<feColorMatrix type="matrix" values="0 0 0 0 0.875625 0 0 0 0 0.950863 0 0 0 0 0.974375 0 0 0 1 0"/>
<feBlend mode="normal" in2="shape" result="effect1_innerShadow_95_6615"/>
<feColorMatrix in="SourceAlpha" type="matrix" values="0 0 0 0 0 0 0 0 0 0 0 0 0 0 0 0 0 0 127 0" result="hardAlpha"/>
<feOffset dy="1.58621"/>
<feComposite in2="hardAlpha" operator="arithmetic" k2="-1" k3="1"/>
<feColorMatrix type="matrix" values="0 0 0 0 0.207843 0 0 0 0 0.258824 0 0 0 0 0.309804 0 0 0 1 0"/>
<feBlend mode="normal" in2="effect1_innerShadow_95_6615" result="effect2_innerShadow_95_6615"/>
</filter>
<filter id="filter3_ii_95_6615" x="21.0879" y="6.74139" width="4.75781" height="14.2758" filterUnits="userSpaceOnUse" color-interpolation-filters="sRGB">
<feFlood flood-opacity="0" result="BackgroundImageFix"/>
<feBlend mode="normal" in="SourceGraphic" in2="BackgroundImageFix" result="shape"/>
<feColorMatrix in="SourceAlpha" type="matrix" values="0 0 0 0 0 0 0 0 0 0 0 0 0 0 0 0 0 0 127 0" result="hardAlpha"/>
<feOffset dx="1.58621" dy="1.58621"/>
<feComposite in2="hardAlpha" operator="arithmetic" k2="-1" k3="1"/>
<feColorMatrix type="matrix" values="0 0 0 0 0.207843 0 0 0 0 0.258824 0 0 0 0 0.309804 0 0 0 1 0"/>
<feBlend mode="normal" in2="shape" result="effect1_innerShadow_95_6615"/>
<feColorMatrix in="SourceAlpha" type="matrix" values="0 0 0 0 0 0 0 0 0 0 0 0 0 0 0 0 0 0 127 0" result="hardAlpha"/>
<feOffset dx="-1.58621" dy="-1.58621"/>
<feComposite in2="hardAlpha" operator="arithmetic" k2="-1" k3="1"/>
<feColorMatrix type="matrix" values="0 0 0 0 0.875625 0 0 0 0 0.950863 0 0 0 0 0.974375 0 0 0 1 0"/>
<feBlend mode="normal" in2="effect1_innerShadow_95_6615" result="effect2_innerShadow_95_6615"/>
</filter>
</defs>
</svg>
