<svg width="35" height="28" viewBox="0 0 35 28" fill="none" xmlns="http://www.w3.org/2000/svg">
<g filter="url(#filter0_ii_95_6613)">
<rect width="34.1034" height="27.7586" transform="translate(0.585938)" fill="#BFCED9"/>
<g filter="url(#filter1_ii_95_6613)">
<rect width="30.931" height="24.5862" transform="translate(2.17188 1.58618)" fill="#BFCED9"/>
<g filter="url(#filter2_ii_95_6613)">
<rect x="16.8438" y="21.0172" width="2.04885" height="1.58621" transform="rotate(-180 16.8438 21.0172)" fill="#99A9B5"/>
<rect x="14.7949" y="19.431" width="2.04885" height="1.58621" transform="rotate(-180 14.7949 19.431)" fill="#99A9B5"/>
<rect x="14.7949" y="21.0172" width="2.04885" height="1.58621" transform="rotate(-180 14.7949 21.0172)" fill="#99A9B5"/>
<path d="M14.7949 9.91376H12.7461V8.32755H14.7949V9.91376Z" fill="#99A9B5"/>
<path d="M14.7949 8.32758H12.7461V6.74137H14.7949V8.32758Z" fill="#99A9B5"/>
<rect x="16.8438" y="8.32758" width="2.04885" height="1.58621" transform="rotate(-180 16.8438 8.32758)" fill="#99A9B5"/>
<rect x="16.8438" y="9.91376" width="2.04885" height="1.58621" transform="rotate(-180 16.8438 9.91376)" fill="#99A9B5"/>
<rect x="16.8438" y="11.5" width="2.04885" height="1.58621" transform="rotate(-180 16.8438 11.5)" fill="#99A9B5"/>
<rect x="16.8438" y="13.0862" width="2.04885" height="1.58621" transform="rotate(-180 16.8438 13.0862)" fill="#99A9B5"/>
<rect x="16.8438" y="14.6724" width="2.04885" height="1.58621" transform="rotate(-180 16.8438 14.6724)" fill="#99A9B5"/>
<rect x="16.8438" y="16.2586" width="2.04885" height="1.58621" transform="rotate(-180 16.8438 16.2586)" fill="#99A9B5"/>
<rect x="16.8438" y="17.8448" width="2.04885" height="1.58621" transform="rotate(-180 16.8438 17.8448)" fill="#99A9B5"/>
<rect x="16.8438" y="19.431" width="2.04885" height="1.58621" transform="rotate(-180 16.8438 19.431)" fill="#99A9B5"/>
<rect x="14.7949" y="17.8448" width="2.04885" height="1.58621" transform="rotate(-180 14.7949 17.8448)" fill="#99A9B5"/>
<rect x="14.7949" y="16.2586" width="2.04885" height="1.58621" transform="rotate(-180 14.7949 16.2586)" fill="#99A9B5"/>
<rect x="14.7949" y="14.6724" width="2.04885" height="1.58621" transform="rotate(-180 14.7949 14.6724)" fill="#99A9B5"/>
<rect x="14.7949" y="13.0862" width="2.04885" height="1.58621" transform="rotate(-180 14.7949 13.0862)" fill="#99A9B5"/>
<rect x="14.7949" y="11.5" width="2.04885" height="1.58621" transform="rotate(-180 14.7949 11.5)" fill="#99A9B5"/>
<rect x="12.7461" y="19.431" width="2.04885" height="1.58621" transform="rotate(-180 12.7461 19.431)" fill="#99A9B5"/>
<rect x="12.7461" y="21.0172" width="2.04885" height="1.58621" transform="rotate(-180 12.7461 21.0172)" fill="#99A9B5"/>
<path d="M12.7461 9.91376H10.6972V8.32755H12.7461V9.91376Z" fill="#99A9B5"/>
<path d="M12.7461 8.32758H10.6972V6.74137H12.7461V8.32758Z" fill="#99A9B5"/>
<rect x="12.7461" y="17.8448" width="2.04885" height="1.58621" transform="rotate(-180 12.7461 17.8448)" fill="#99A9B5"/>
<rect x="12.7461" y="16.2586" width="2.04885" height="1.58621" transform="rotate(-180 12.7461 16.2586)" fill="#99A9B5"/>
<rect x="12.7461" y="14.6724" width="2.04885" height="1.58621" transform="rotate(-180 12.7461 14.6724)" fill="#99A9B5"/>
<rect x="12.7461" y="13.0862" width="2.04885" height="1.58621" transform="rotate(-180 12.7461 13.0862)" fill="#99A9B5"/>
<rect x="12.7461" y="11.5" width="2.04885" height="1.58621" transform="rotate(-180 12.7461 11.5)" fill="#99A9B5"/>
</g>
<g filter="url(#filter3_ii_95_6613)">
<rect x="24.5762" y="21.0172" width="2.04885" height="1.58621" transform="rotate(-180 24.5762 21.0172)" fill="#99A9B5"/>
<rect x="22.5273" y="19.431" width="2.04885" height="1.58621" transform="rotate(-180 22.5273 19.431)" fill="#99A9B5"/>
<rect x="22.5273" y="21.0172" width="2.04885" height="1.58621" transform="rotate(-180 22.5273 21.0172)" fill="#99A9B5"/>
<path d="M22.5273 9.91376H20.4785V8.32755H22.5273V9.91376Z" fill="#99A9B5"/>
<path d="M22.5273 8.32758H20.4785V6.74137H22.5273V8.32758Z" fill="#99A9B5"/>
<rect x="24.5762" y="8.32758" width="2.04885" height="1.58621" transform="rotate(-180 24.5762 8.32758)" fill="#99A9B5"/>
<rect x="24.5762" y="9.91376" width="2.04885" height="1.58621" transform="rotate(-180 24.5762 9.91376)" fill="#99A9B5"/>
<rect x="24.5762" y="11.5" width="2.04885" height="1.58621" transform="rotate(-180 24.5762 11.5)" fill="#99A9B5"/>
<rect x="24.5762" y="13.0862" width="2.04885" height="1.58621" transform="rotate(-180 24.5762 13.0862)" fill="#99A9B5"/>
<rect x="24.5762" y="14.6724" width="2.04885" height="1.58621" transform="rotate(-180 24.5762 14.6724)" fill="#99A9B5"/>
<rect x="24.5762" y="16.2586" width="2.04885" height="1.58621" transform="rotate(-180 24.5762 16.2586)" fill="#99A9B5"/>
<rect x="24.5762" y="17.8448" width="2.04885" height="1.58621" transform="rotate(-180 24.5762 17.8448)" fill="#99A9B5"/>
<rect x="24.5762" y="19.431" width="2.04885" height="1.58621" transform="rotate(-180 24.5762 19.431)" fill="#99A9B5"/>
<rect x="22.5273" y="17.8448" width="2.04885" height="1.58621" transform="rotate(-180 22.5273 17.8448)" fill="#99A9B5"/>
<rect x="22.5273" y="16.2586" width="2.04885" height="1.58621" transform="rotate(-180 22.5273 16.2586)" fill="#99A9B5"/>
<rect x="22.5273" y="14.6724" width="2.04885" height="1.58621" transform="rotate(-180 22.5273 14.6724)" fill="#99A9B5"/>
<rect x="22.5273" y="13.0862" width="2.04885" height="1.58621" transform="rotate(-180 22.5273 13.0862)" fill="#99A9B5"/>
<rect x="22.5273" y="11.5" width="2.04885" height="1.58621" transform="rotate(-180 22.5273 11.5)" fill="#99A9B5"/>
<rect x="20.4785" y="19.431" width="2.04885" height="1.58621" transform="rotate(-180 20.4785 19.431)" fill="#99A9B5"/>
<rect x="20.4785" y="21.0172" width="2.04885" height="1.58621" transform="rotate(-180 20.4785 21.0172)" fill="#99A9B5"/>
<path d="M20.4785 9.91376H18.4297V8.32755H20.4785V9.91376Z" fill="#99A9B5"/>
<path d="M20.4785 8.32758H18.4297V6.74137H20.4785V8.32758Z" fill="#99A9B5"/>
<rect x="20.4785" y="17.8448" width="2.04885" height="1.58621" transform="rotate(-180 20.4785 17.8448)" fill="#99A9B5"/>
<rect x="20.4785" y="16.2586" width="2.04885" height="1.58621" transform="rotate(-180 20.4785 16.2586)" fill="#99A9B5"/>
<rect x="20.4785" y="14.6724" width="2.04885" height="1.58621" transform="rotate(-180 20.4785 14.6724)" fill="#99A9B5"/>
<rect x="20.4785" y="13.0862" width="2.04885" height="1.58621" transform="rotate(-180 20.4785 13.0862)" fill="#99A9B5"/>
<rect x="20.4785" y="11.5" width="2.04885" height="1.58621" transform="rotate(-180 20.4785 11.5)" fill="#99A9B5"/>
</g>
</g>
</g>
<defs>
<filter id="filter0_ii_95_6613" x="0.585938" y="0" width="34.1035" height="27.7586" filterUnits="userSpaceOnUse" color-interpolation-filters="sRGB">
<feFlood flood-opacity="0" result="BackgroundImageFix"/>
<feBlend mode="normal" in="SourceGraphic" in2="BackgroundImageFix" result="shape"/>
<feColorMatrix in="SourceAlpha" type="matrix" values="0 0 0 0 0 0 0 0 0 0 0 0 0 0 0 0 0 0 127 0" result="hardAlpha"/>
<feOffset dx="-1.58621" dy="-1.58621"/>
<feComposite in2="hardAlpha" operator="arithmetic" k2="-1" k3="1"/>
<feColorMatrix type="matrix" values="0 0 0 0 0.397309 0 0 0 0 0.444085 0 0 0 0 0.561024 0 0 0 1 0"/>
<feBlend mode="normal" in2="shape" result="effect1_innerShadow_95_6613"/>
<feColorMatrix in="SourceAlpha" type="matrix" values="0 0 0 0 0 0 0 0 0 0 0 0 0 0 0 0 0 0 127 0" result="hardAlpha"/>
<feOffset dx="1.58621" dy="1.58621"/>
<feComposite in2="hardAlpha" operator="arithmetic" k2="-1" k3="1"/>
<feColorMatrix type="matrix" values="0 0 0 0 0.85098 0 0 0 0 0.87451 0 0 0 0 0.956863 0 0 0 1 0"/>
<feBlend mode="normal" in2="effect1_innerShadow_95_6613" result="effect2_innerShadow_95_6613"/>
</filter>
<filter id="filter1_ii_95_6613" x="2.17188" y="1.58618" width="30.9316" height="24.5862" filterUnits="userSpaceOnUse" color-interpolation-filters="sRGB">
<feFlood flood-opacity="0" result="BackgroundImageFix"/>
<feBlend mode="normal" in="SourceGraphic" in2="BackgroundImageFix" result="shape"/>
<feColorMatrix in="SourceAlpha" type="matrix" values="0 0 0 0 0 0 0 0 0 0 0 0 0 0 0 0 0 0 127 0" result="hardAlpha"/>
<feOffset dx="-1.58621" dy="-1.58621"/>
<feComposite in2="hardAlpha" operator="arithmetic" k2="-1" k3="1"/>
<feColorMatrix type="matrix" values="0 0 0 0 0.486275 0 0 0 0 0.541176 0 0 0 0 0.592157 0 0 0 1 0"/>
<feBlend mode="normal" in2="shape" result="effect1_innerShadow_95_6613"/>
<feColorMatrix in="SourceAlpha" type="matrix" values="0 0 0 0 0 0 0 0 0 0 0 0 0 0 0 0 0 0 127 0" result="hardAlpha"/>
<feOffset dx="1.58621" dy="1.58621"/>
<feComposite in2="hardAlpha" operator="arithmetic" k2="-1" k3="1"/>
<feColorMatrix type="matrix" values="0 0 0 0 0.937255 0 0 0 0 1 0 0 0 0 1 0 0 0 1 0"/>
<feBlend mode="normal" in2="effect1_innerShadow_95_6613" result="effect2_innerShadow_95_6613"/>
</filter>
<filter id="filter2_ii_95_6613" x="10.6973" y="6.74139" width="6.14648" height="14.2758" filterUnits="userSpaceOnUse" color-interpolation-filters="sRGB">
<feFlood flood-opacity="0" result="BackgroundImageFix"/>
<feBlend mode="normal" in="SourceGraphic" in2="BackgroundImageFix" result="shape"/>
<feColorMatrix in="SourceAlpha" type="matrix" values="0 0 0 0 0 0 0 0 0 0 0 0 0 0 0 0 0 0 127 0" result="hardAlpha"/>
<feOffset dx="1.58621" dy="1.58621"/>
<feComposite in2="hardAlpha" operator="arithmetic" k2="-1" k3="1"/>
<feColorMatrix type="matrix" values="0 0 0 0 0.207843 0 0 0 0 0.258824 0 0 0 0 0.309804 0 0 0 1 0"/>
<feBlend mode="normal" in2="shape" result="effect1_innerShadow_95_6613"/>
<feColorMatrix in="SourceAlpha" type="matrix" values="0 0 0 0 0 0 0 0 0 0 0 0 0 0 0 0 0 0 127 0" result="hardAlpha"/>
<feOffset dx="-1.58621" dy="-1.58621"/>
<feComposite in2="hardAlpha" operator="arithmetic" k2="-1" k3="1"/>
<feColorMatrix type="matrix" values="0 0 0 0 0.875625 0 0 0 0 0.950863 0 0 0 0 0.974375 0 0 0 1 0"/>
<feBlend mode="normal" in2="effect1_innerShadow_95_6613" result="effect2_innerShadow_95_6613"/>
</filter>
<filter id="filter3_ii_95_6613" x="18.4297" y="6.74139" width="6.14648" height="14.2758" filterUnits="userSpaceOnUse" color-interpolation-filters="sRGB">
<feFlood flood-opacity="0" result="BackgroundImageFix"/>
<feBlend mode="normal" in="SourceGraphic" in2="BackgroundImageFix" result="shape"/>
<feColorMatrix in="SourceAlpha" type="matrix" values="0 0 0 0 0 0 0 0 0 0 0 0 0 0 0 0 0 0 127 0" result="hardAlpha"/>
<feOffset dx="1.58621" dy="1.58621"/>
<feComposite in2="hardAlpha" operator="arithmetic" k2="-1" k3="1"/>
<feColorMatrix type="matrix" values="0 0 0 0 0.207843 0 0 0 0 0.258824 0 0 0 0 0.309804 0 0 0 1 0"/>
<feBlend mode="normal" in2="shape" result="effect1_innerShadow_95_6613"/>
<feColorMatrix in="SourceAlpha" type="matrix" values="0 0 0 0 0 0 0 0 0 0 0 0 0 0 0 0 0 0 127 0" result="hardAlpha"/>
<feOffset dx="-1.58621" dy="-1.58621"/>
<feComposite in2="hardAlpha" operator="arithmetic" k2="-1" k3="1"/>
<feColorMatrix type="matrix" values="0 0 0 0 0.875625 0 0 0 0 0.950863 0 0 0 0 0.974375 0 0 0 1 0"/>
<feBlend mode="normal" in2="effect1_innerShadow_95_6613" result="effect2_innerShadow_95_6613"/>
</filter>
</defs>
</svg>
