<svg width="35" height="28" viewBox="0 0 35 28" fill="none" xmlns="http://www.w3.org/2000/svg">
<g filter="url(#filter0_ii_95_6611)">
<rect width="34.1034" height="27.7586" transform="translate(0.0351562)" fill="#BFCED9"/>
<g filter="url(#filter1_ii_95_6611)">
<rect width="30.931" height="24.5862" transform="translate(1.62109 1.58618)" fill="#BFCED9"/>
<g filter="url(#filter2_ii_95_6611)">
<rect x="13.9141" y="21.0172" width="1.58621" height="1.58621" transform="rotate(-180 13.9141 21.0172)" fill="#99A9B5"/>
<rect x="12.3281" y="19.431" width="1.58621" height="1.58621" transform="rotate(-180 12.3281 19.431)" fill="#99A9B5"/>
<rect x="12.3281" y="21.0172" width="1.58621" height="1.58621" transform="rotate(-180 12.3281 21.0172)" fill="#99A9B5"/>
<path d="M12.3281 9.91376H10.7419V8.32755H12.3281V9.91376Z" fill="#99A9B5"/>
<path d="M12.3281 8.32758H10.7419V6.74137H12.3281V8.32758Z" fill="#99A9B5"/>
<rect x="13.9141" y="8.32758" width="1.58621" height="1.58621" transform="rotate(-180 13.9141 8.32758)" fill="#99A9B5"/>
<rect x="13.9141" y="9.91376" width="1.58621" height="1.58621" transform="rotate(-180 13.9141 9.91376)" fill="#99A9B5"/>
<rect x="13.9141" y="11.5" width="1.58621" height="1.58621" transform="rotate(-180 13.9141 11.5)" fill="#99A9B5"/>
<rect x="13.9141" y="13.0862" width="1.58621" height="1.58621" transform="rotate(-180 13.9141 13.0862)" fill="#99A9B5"/>
<rect x="13.9141" y="14.6724" width="1.58621" height="1.58621" transform="rotate(-180 13.9141 14.6724)" fill="#99A9B5"/>
<rect x="13.9141" y="16.2586" width="1.58621" height="1.58621" transform="rotate(-180 13.9141 16.2586)" fill="#99A9B5"/>
<rect x="13.9141" y="17.8448" width="1.58621" height="1.58621" transform="rotate(-180 13.9141 17.8448)" fill="#99A9B5"/>
<rect x="13.9141" y="19.431" width="1.58621" height="1.58621" transform="rotate(-180 13.9141 19.431)" fill="#99A9B5"/>
<rect x="12.3281" y="17.8448" width="1.58621" height="1.58621" transform="rotate(-180 12.3281 17.8448)" fill="#99A9B5"/>
<rect x="12.3281" y="16.2586" width="1.58621" height="1.58621" transform="rotate(-180 12.3281 16.2586)" fill="#99A9B5"/>
<rect x="12.3281" y="14.6724" width="1.58621" height="1.58621" transform="rotate(-180 12.3281 14.6724)" fill="#99A9B5"/>
<rect x="12.3281" y="13.0862" width="1.58621" height="1.58621" transform="rotate(-180 12.3281 13.0862)" fill="#99A9B5"/>
<rect x="12.3281" y="11.5" width="1.58621" height="1.58621" transform="rotate(-180 12.3281 11.5)" fill="#99A9B5"/>
<rect x="10.7422" y="19.431" width="1.58621" height="1.58621" transform="rotate(-180 10.7422 19.431)" fill="#99A9B5"/>
<rect x="10.7422" y="21.0172" width="1.58621" height="1.58621" transform="rotate(-180 10.7422 21.0172)" fill="#99A9B5"/>
<path d="M10.7422 9.91376H9.15598V8.32755H10.7422V9.91376Z" fill="#99A9B5"/>
<path d="M10.7422 8.32758H9.15598V6.74137H10.7422V8.32758Z" fill="#99A9B5"/>
<rect x="10.7422" y="17.8448" width="1.58621" height="1.58621" transform="rotate(-180 10.7422 17.8448)" fill="#99A9B5"/>
<rect x="10.7422" y="16.2586" width="1.58621" height="1.58621" transform="rotate(-180 10.7422 16.2586)" fill="#99A9B5"/>
<rect x="10.7422" y="14.6724" width="1.58621" height="1.58621" transform="rotate(-180 10.7422 14.6724)" fill="#99A9B5"/>
<rect x="10.7422" y="13.0862" width="1.58621" height="1.58621" transform="rotate(-180 10.7422 13.0862)" fill="#99A9B5"/>
<rect x="10.7422" y="11.5" width="1.58621" height="1.58621" transform="rotate(-180 10.7422 11.5)" fill="#99A9B5"/>
</g>
<g filter="url(#filter3_ii_95_6611)">
<rect x="23.4316" y="21.0172" width="1.58621" height="1.58621" transform="rotate(-180 23.4316 21.0172)" fill="#99A9B5"/>
<rect x="21.8457" y="19.431" width="1.58621" height="1.58621" transform="rotate(-180 21.8457 19.431)" fill="#99A9B5"/>
<rect x="20.2598" y="17.8448" width="1.58621" height="1.58621" transform="rotate(-180 20.2598 17.8448)" fill="#99A9B5"/>
<rect x="18.6719" y="16.2586" width="1.58621" height="1.58621" transform="rotate(-180 18.6719 16.2586)" fill="#99A9B5"/>
<rect x="17.0859" y="14.6724" width="1.58621" height="1.58621" transform="rotate(-180 17.0859 14.6724)" fill="#99A9B5"/>
<rect x="18.6719" y="13.0862" width="1.58621" height="1.58621" transform="rotate(-180 18.6719 13.0862)" fill="#99A9B5"/>
<rect x="20.2598" y="11.5" width="1.58621" height="1.58621" transform="rotate(-180 20.2598 11.5)" fill="#99A9B5"/>
<rect x="21.8457" y="9.91376" width="1.58621" height="1.58621" transform="rotate(-180 21.8457 9.91376)" fill="#99A9B5"/>
<rect x="23.4316" y="8.32758" width="1.58621" height="1.58621" transform="rotate(-180 23.4316 8.32758)" fill="#99A9B5"/>
<rect x="23.4316" y="9.91376" width="1.58621" height="1.58621" transform="rotate(-180 23.4316 9.91376)" fill="#99A9B5"/>
<rect x="23.4316" y="11.5" width="1.58621" height="1.58621" transform="rotate(-180 23.4316 11.5)" fill="#99A9B5"/>
<rect x="23.4316" y="13.0862" width="1.58621" height="1.58621" transform="rotate(-180 23.4316 13.0862)" fill="#99A9B5"/>
<rect x="23.4316" y="14.6724" width="1.58621" height="1.58621" transform="rotate(-180 23.4316 14.6724)" fill="#99A9B5"/>
<rect x="23.4316" y="16.2586" width="1.58621" height="1.58621" transform="rotate(-180 23.4316 16.2586)" fill="#99A9B5"/>
<rect x="23.4316" y="17.8448" width="1.58621" height="1.58621" transform="rotate(-180 23.4316 17.8448)" fill="#99A9B5"/>
<rect x="23.4316" y="19.431" width="1.58621" height="1.58621" transform="rotate(-180 23.4316 19.431)" fill="#99A9B5"/>
<rect x="25.0176" y="21.0172" width="1.58621" height="1.58621" transform="rotate(-180 25.0176 21.0172)" fill="#99A9B5"/>
<rect x="25.0176" y="8.32758" width="1.58621" height="1.58621" transform="rotate(-180 25.0176 8.32758)" fill="#99A9B5"/>
<rect x="25.0176" y="9.91376" width="1.58621" height="1.58621" transform="rotate(-180 25.0176 9.91376)" fill="#99A9B5"/>
<rect x="25.0176" y="11.5" width="1.58621" height="1.58621" transform="rotate(-180 25.0176 11.5)" fill="#99A9B5"/>
<rect x="25.0176" y="13.0862" width="1.58621" height="1.58621" transform="rotate(-180 25.0176 13.0862)" fill="#99A9B5"/>
<rect x="25.0176" y="14.6724" width="1.58621" height="1.58621" transform="rotate(-180 25.0176 14.6724)" fill="#99A9B5"/>
<rect x="25.0176" y="16.2586" width="1.58621" height="1.58621" transform="rotate(-180 25.0176 16.2586)" fill="#99A9B5"/>
<rect x="25.0176" y="17.8448" width="1.58621" height="1.58621" transform="rotate(-180 25.0176 17.8448)" fill="#99A9B5"/>
<rect x="25.0176" y="19.431" width="1.58621" height="1.58621" transform="rotate(-180 25.0176 19.431)" fill="#99A9B5"/>
<rect x="21.8457" y="17.8448" width="1.58621" height="1.58621" transform="rotate(-180 21.8457 17.8448)" fill="#99A9B5"/>
<rect x="21.8457" y="16.2586" width="1.58621" height="1.58621" transform="rotate(-180 21.8457 16.2586)" fill="#99A9B5"/>
<rect x="20.2598" y="16.2586" width="1.58621" height="1.58621" transform="rotate(-180 20.2598 16.2586)" fill="#99A9B5"/>
<rect x="18.6719" y="14.6724" width="1.58621" height="1.58621" transform="rotate(-180 18.6719 14.6724)" fill="#99A9B5"/>
<rect x="20.2598" y="14.6724" width="1.58621" height="1.58621" transform="rotate(-180 20.2598 14.6724)" fill="#99A9B5"/>
<rect x="21.8457" y="14.6724" width="1.58621" height="1.58621" transform="rotate(-180 21.8457 14.6724)" fill="#99A9B5"/>
<rect x="20.2598" y="13.0862" width="1.58621" height="1.58621" transform="rotate(-180 20.2598 13.0862)" fill="#99A9B5"/>
<rect x="21.8457" y="13.0862" width="1.58621" height="1.58621" transform="rotate(-180 21.8457 13.0862)" fill="#99A9B5"/>
<rect x="21.8457" y="11.5" width="1.58621" height="1.58621" transform="rotate(-180 21.8457 11.5)" fill="#99A9B5"/>
</g>
</g>
</g>
<defs>
<filter id="filter0_ii_95_6611" x="0.0351562" y="0" width="34.1035" height="27.7586" filterUnits="userSpaceOnUse" color-interpolation-filters="sRGB">
<feFlood flood-opacity="0" result="BackgroundImageFix"/>
<feBlend mode="normal" in="SourceGraphic" in2="BackgroundImageFix" result="shape"/>
<feColorMatrix in="SourceAlpha" type="matrix" values="0 0 0 0 0 0 0 0 0 0 0 0 0 0 0 0 0 0 127 0" result="hardAlpha"/>
<feOffset dx="-1.58621" dy="-1.58621"/>
<feComposite in2="hardAlpha" operator="arithmetic" k2="-1" k3="1"/>
<feColorMatrix type="matrix" values="0 0 0 0 0.397309 0 0 0 0 0.444085 0 0 0 0 0.561024 0 0 0 1 0"/>
<feBlend mode="normal" in2="shape" result="effect1_innerShadow_95_6611"/>
<feColorMatrix in="SourceAlpha" type="matrix" values="0 0 0 0 0 0 0 0 0 0 0 0 0 0 0 0 0 0 127 0" result="hardAlpha"/>
<feOffset dx="1.58621" dy="1.58621"/>
<feComposite in2="hardAlpha" operator="arithmetic" k2="-1" k3="1"/>
<feColorMatrix type="matrix" values="0 0 0 0 0.85098 0 0 0 0 0.87451 0 0 0 0 0.956863 0 0 0 1 0"/>
<feBlend mode="normal" in2="effect1_innerShadow_95_6611" result="effect2_innerShadow_95_6611"/>
</filter>
<filter id="filter1_ii_95_6611" x="1.62109" y="1.58618" width="30.9316" height="24.5862" filterUnits="userSpaceOnUse" color-interpolation-filters="sRGB">
<feFlood flood-opacity="0" result="BackgroundImageFix"/>
<feBlend mode="normal" in="SourceGraphic" in2="BackgroundImageFix" result="shape"/>
<feColorMatrix in="SourceAlpha" type="matrix" values="0 0 0 0 0 0 0 0 0 0 0 0 0 0 0 0 0 0 127 0" result="hardAlpha"/>
<feOffset dx="-1.58621" dy="-1.58621"/>
<feComposite in2="hardAlpha" operator="arithmetic" k2="-1" k3="1"/>
<feColorMatrix type="matrix" values="0 0 0 0 0.486275 0 0 0 0 0.541176 0 0 0 0 0.592157 0 0 0 1 0"/>
<feBlend mode="normal" in2="shape" result="effect1_innerShadow_95_6611"/>
<feColorMatrix in="SourceAlpha" type="matrix" values="0 0 0 0 0 0 0 0 0 0 0 0 0 0 0 0 0 0 127 0" result="hardAlpha"/>
<feOffset dx="1.58621" dy="1.58621"/>
<feComposite in2="hardAlpha" operator="arithmetic" k2="-1" k3="1"/>
<feColorMatrix type="matrix" values="0 0 0 0 0.937255 0 0 0 0 1 0 0 0 0 1 0 0 0 1 0"/>
<feBlend mode="normal" in2="effect1_innerShadow_95_6611" result="effect2_innerShadow_95_6611"/>
</filter>
<filter id="filter2_ii_95_6611" x="9.15625" y="6.74139" width="4.75781" height="14.2758" filterUnits="userSpaceOnUse" color-interpolation-filters="sRGB">
<feFlood flood-opacity="0" result="BackgroundImageFix"/>
<feBlend mode="normal" in="SourceGraphic" in2="BackgroundImageFix" result="shape"/>
<feColorMatrix in="SourceAlpha" type="matrix" values="0 0 0 0 0 0 0 0 0 0 0 0 0 0 0 0 0 0 127 0" result="hardAlpha"/>
<feOffset dx="1.58621" dy="1.58621"/>
<feComposite in2="hardAlpha" operator="arithmetic" k2="-1" k3="1"/>
<feColorMatrix type="matrix" values="0 0 0 0 0.207843 0 0 0 0 0.258824 0 0 0 0 0.309804 0 0 0 1 0"/>
<feBlend mode="normal" in2="shape" result="effect1_innerShadow_95_6611"/>
<feColorMatrix in="SourceAlpha" type="matrix" values="0 0 0 0 0 0 0 0 0 0 0 0 0 0 0 0 0 0 127 0" result="hardAlpha"/>
<feOffset dx="-1.58621" dy="-1.58621"/>
<feComposite in2="hardAlpha" operator="arithmetic" k2="-1" k3="1"/>
<feColorMatrix type="matrix" values="0 0 0 0 0.875625 0 0 0 0 0.950863 0 0 0 0 0.974375 0 0 0 1 0"/>
<feBlend mode="normal" in2="effect1_innerShadow_95_6611" result="effect2_innerShadow_95_6611"/>
</filter>
<filter id="filter3_ii_95_6611" x="15.5" y="6.74139" width="9.51758" height="14.2758" filterUnits="userSpaceOnUse" color-interpolation-filters="sRGB">
<feFlood flood-opacity="0" result="BackgroundImageFix"/>
<feBlend mode="normal" in="SourceGraphic" in2="BackgroundImageFix" result="shape"/>
<feColorMatrix in="SourceAlpha" type="matrix" values="0 0 0 0 0 0 0 0 0 0 0 0 0 0 0 0 0 0 127 0" result="hardAlpha"/>
<feOffset dx="-1.58621" dy="-3.17241"/>
<feComposite in2="hardAlpha" operator="arithmetic" k2="-1" k3="1"/>
<feColorMatrix type="matrix" values="0 0 0 0 0.875625 0 0 0 0 0.950863 0 0 0 0 0.974375 0 0 0 1 0"/>
<feBlend mode="normal" in2="shape" result="effect1_innerShadow_95_6611"/>
<feColorMatrix in="SourceAlpha" type="matrix" values="0 0 0 0 0 0 0 0 0 0 0 0 0 0 0 0 0 0 127 0" result="hardAlpha"/>
<feOffset dy="1.58621"/>
<feComposite in2="hardAlpha" operator="arithmetic" k2="-1" k3="1"/>
<feColorMatrix type="matrix" values="0 0 0 0 0.207843 0 0 0 0 0.258824 0 0 0 0 0.309804 0 0 0 1 0"/>
<feBlend mode="normal" in2="effect1_innerShadow_95_6611" result="effect2_innerShadow_95_6611"/>
</filter>
</defs>
</svg>
