<svg width="22" height="22" viewBox="0 0 22 22" fill="none" xmlns="http://www.w3.org/2000/svg">
<path d="M9.78483 0H11.4161V21.2067H9.78483V0Z" fill="black"/>
<path d="M21.2067 9.7876V11.4189L0 11.4189L7.13044e-08 9.7876L21.2067 9.7876Z" fill="black"/>
<path d="M6.53483 3.2627H14.6913V17.9443H6.53483V3.2627Z" fill="black"/>
<path d="M17.9411 6.5249V14.6813L3.25951 14.6813L3.25951 6.5249L17.9411 6.5249Z" fill="black"/>
<path d="M4.8942 4.89404H16.3132V16.313H4.8942V4.89404Z" fill="black"/>
<path d="M16.3161 3.2627H17.9474V4.89398H16.3161V3.2627Z" fill="black"/>
<path d="M16.3161 16.313H17.9474V17.9443H16.3161V16.313Z" fill="black"/>
<path d="M3.2692 3.2627H4.90049V4.89398H3.2692V3.2627Z" fill="black"/>
<path d="M3.2692 16.313H4.90049V17.9443H3.2692V16.313Z" fill="black"/>
<path d="M6.53483 6.5249H9.7974V9.78747H6.53483V6.5249Z" fill="white"/>
</svg>
