<svg width="50" height="50" viewBox="0 0 50 50" fill="none" xmlns="http://www.w3.org/2000/svg">
<rect x="42.2422" width="3.73563" height="33.6207" transform="rotate(90 42.2422 0)" fill="#FC0D1B"/>
<rect x="38.5" y="3.73572" width="3.73563" height="26.1494" transform="rotate(90 38.5 3.73572)" fill="#FC0D1B"/>
<rect x="38.5" y="3.73572" width="3.73563" height="26.1494" transform="rotate(90 38.5 3.73572)" fill="#FC0D1B"/>
<rect x="34.7734" y="7.47095" width="3.73563" height="18.6782" transform="rotate(90 34.7734 7.47095)" fill="#FC0D1B"/>
<rect x="9.41016" y="50" width="3.73563" height="33.6207" transform="rotate(-90 9.41016 50)" fill="#FC0D1B"/>
<rect x="13.1445" y="46.2644" width="3.73563" height="26.1494" transform="rotate(-90 13.1445 46.2644)" fill="#FC0D1B"/>
<rect x="16.8828" y="42.5287" width="3.73563" height="18.6782" transform="rotate(-90 16.8828 42.5287)" fill="#FC0D1B"/>
<rect x="50" y="42.2417" width="3.73563" height="33.6207" transform="rotate(-180 50 42.2417)" fill="#FC0D1B"/>
<rect x="46.2656" y="38.5061" width="3.73563" height="26.1494" transform="rotate(-180 46.2656 38.5061)" fill="#FC0D1B"/>
<rect x="42.5273" y="34.7704" width="3.73563" height="18.6782" transform="rotate(-180 42.5273 34.7704)" fill="#FC0D1B"/>
<rect width="3.73563" height="33.6207" transform="matrix(1 -8.74228e-08 -8.74228e-08 -1 0 42.2417)" fill="#FC0D1B"/>
<rect width="3.73563" height="26.1494" transform="matrix(1 -8.74228e-08 -8.74228e-08 -1 3.73438 38.5061)" fill="#FC0D1B"/>
<rect width="3.73563" height="18.6782" transform="matrix(1 -8.74228e-08 -8.74228e-08 -1 7.47266 34.7704)" fill="#FC0D1B"/>
</svg>
