<svg width="50" height="50" viewBox="0 0 50 50" fill="none" xmlns="http://www.w3.org/2000/svg">
<rect x="18.75" y="6.25" width="12.5" height="12.5" transform="rotate(90 18.75 6.25)" fill="#FC0D1B"/>
<rect x="12.5" width="12.5" height="12.5" transform="rotate(90 12.5 0)" fill="#FC0D1B"/>
<rect x="50" width="12.5" height="12.5" transform="rotate(90 50 0)" fill="#FC0D1B"/>
<rect x="15.625" y="21.875" width="6.25" height="6.25" transform="rotate(90 15.625 21.875)" fill="#FC0D1B"/>
<rect x="40.625" y="21.875" width="6.25" height="6.25" transform="rotate(90 40.625 21.875)" fill="#FC0D1B"/>
<rect x="28.125" y="9.375" width="6.25" height="6.25" transform="rotate(90 28.125 9.375)" fill="#FC0D1B"/>
<rect x="28.125" y="34.375" width="6.25" height="6.25" transform="rotate(90 28.125 34.375)" fill="#FC0D1B"/>
<rect x="31.25" y="18.75" width="12.5" height="12.5" transform="rotate(90 31.25 18.75)" fill="#FC0D1B"/>
<rect x="43.75" y="31.25" width="12.5" height="12.5" transform="rotate(90 43.75 31.25)" fill="#FC0D1B"/>
<rect x="50" y="37.5" width="12.5" height="12.5" transform="rotate(90 50 37.5)" fill="#FC0D1B"/>
<rect x="43.75" y="6.25" width="12.5" height="12.5" transform="rotate(90 43.75 6.25)" fill="#FC0D1B"/>
<rect x="18.75" y="31.25" width="12.5" height="12.5" transform="rotate(90 18.75 31.25)" fill="#FC0D1B"/>
<rect x="12.5" y="37.5" width="12.5" height="12.5" transform="rotate(90 12.5 37.5)" fill="#FC0D1B"/>
</svg>
