<svg width="1600" height="900" viewBox="0 0 1600 900" fill="none" xmlns="http://www.w3.org/2000/svg">
<g clip-path="url(#clip0_2002_4333)">
<mask id="mask0_2002_4333" style="mask-type:luminance" maskUnits="userSpaceOnUse" x="0" y="0" width="1600" height="900">
<path d="M1600 0H0V900H1600V0Z" fill="white"/>
</mask>
<g mask="url(#mask0_2002_4333)">
<path d="M1600 0H0V900H1600V0Z" fill="#98CFEB"/>
</g>
<mask id="mask1_2002_4333" style="mask-type:luminance" maskUnits="userSpaceOnUse" x="0" y="0" width="1600" height="900">
<path d="M1600 0H0V900H1600V0Z" fill="white"/>
</mask>
<g mask="url(#mask1_2002_4333)">
<path d="M1600 0H0V900H1600V0Z" fill="url(#paint0_linear_2002_4333)"/>
</g>
<mask id="mask2_2002_4333" style="mask-type:luminance" maskUnits="userSpaceOnUse" x="0" y="0" width="1600" height="900">
<path d="M1600 0H0V900H1600V0Z" fill="white"/>
</mask>
<g mask="url(#mask2_2002_4333)">
<path d="M327.25 -12C327.25 -12 145.334 106.333 165.834 161.75C205.834 269.75 469 238.833 584.084 234.083C659 231 615.167 276.75 640.667 278.417C679 280.917 747 276.083 786.084 263.75C813.417 255.083 850.584 243.333 868.75 262.333C882.667 276.833 770.75 327.833 794.584 349.083C825.917 377 867.584 349.667 876.334 372.417C881.834 386.5 846.334 424.5 855.334 439.667C886.334 492.167 1042.83 426.417 1099.17 450C1108.75 454 1116.75 510.583 1116.75 510.583L1328.5 450C1328.5 450 1495.08 383.333 1472.17 357.917C1465.92 351 1445.83 359.833 1435.5 351.833C1403.75 327.167 1584.75 255.417 1550 222.25C1473.83 149.583 1376.5 185.583 1359.08 171.417C1313.33 134.25 1552.08 88 1547.08 29.25C1544.58 0.166663 1432.42 -12.75 1432.42 -12.75L327.25 -12Z" fill="#C6E2F4"/>
</g>
<mask id="mask3_2002_4333" style="mask-type:luminance" maskUnits="userSpaceOnUse" x="0" y="0" width="1600" height="900">
<path d="M1600 0H0V900H1600V0Z" fill="white"/>
</mask>
<g mask="url(#mask3_2002_4333)">
<path d="M415.166 -8.9165L1304.08 -7.4165C1304.08 -7.4165 1241.25 44.9168 1256.08 51.8335C1280 62.9168 1344.92 44.9168 1372.42 59.5002C1395.92 71.9168 1091.17 181.833 1115.58 201.667C1157.08 235.417 1258.5 196.667 1282.33 232.083C1286.5 238.333 1265.83 249.75 1280.83 251.917C1311.92 256.5 1414 247.5 1443.5 276.083C1463 295 1120.58 355.5 1140.83 367.833C1156.92 377.583 1234.58 366.583 1262.33 379.333C1276.08 385.667 1243.25 406.917 1250.83 409.167C1256.33 410.75 1270.17 402.083 1279.5 409.167C1301.67 426 1196.92 483.667 1196.92 483.667L1143 499.75C1143 499.75 1176.17 464.167 1172.83 450.083C1170.83 441.917 1153.92 438.25 1144.75 431.417C1136 424.917 1178.08 402.083 1169.42 395.5C1144.58 376.583 967.666 405.417 927.499 373.75C911.249 360.917 1064.33 324.167 1104.08 296.917C1112.83 290.917 1129.42 271.25 1126.67 261C1119.5 234.75 1055.17 224 1026.17 219C983.083 211.5 888.583 228.917 851.916 205.25C834.249 193.833 942.499 164.75 921.833 158.25C781.083 113.917 360.833 149.5 333.666 110.083C314.666 82.1668 415.166 -8.9165 415.166 -8.9165Z" fill="#E4EFF5"/>
</g>
<mask id="mask4_2002_4333" style="mask-type:luminance" maskUnits="userSpaceOnUse" x="0" y="0" width="1600" height="900">
<path d="M1600 0H0V900H1600V0Z" fill="white"/>
</mask>
<g mask="url(#mask4_2002_4333)">
<path d="M72.6673 428.25C82.1673 426.583 100.334 437.417 108.834 442C117.584 446.75 134.917 456.5 144.251 460C165.251 467.75 231.001 482.166 231.001 482.166C231.001 482.166 197.917 513.083 194.834 515C191.751 516.916 1.25065 539.416 1.25065 539.416L0.833984 463.416C0.833984 463.416 34.0007 455.166 44.084 450C52.084 445.916 63.834 429.75 72.6673 428.25Z" fill="#D7DEE2"/>
</g>
<mask id="mask5_2002_4333" style="mask-type:luminance" maskUnits="userSpaceOnUse" x="0" y="0" width="1600" height="900">
<path d="M1600 0H0V900H1600V0Z" fill="white"/>
</mask>
<g mask="url(#mask5_2002_4333)">
<path d="M36.5 499.834C39.9167 496 60.5833 491.667 67.3333 488.25C72.5833 485.584 81.5833 482.167 81.5833 476.25C81.5833 474.334 75.1667 466.334 74.8333 464.834C74.4167 463.334 77.6667 453.334 75.1667 451.167C73.1667 449.417 63.8333 454.667 62.75 452.25C60.8333 448.167 51.6667 452.417 51.4167 452.5C42.5833 454.084 25.1667 459.167 15.75 461.167C4.66667 463.5 -2.33333 464.584 -2.33333 464.584L-3.25 540.834C-3.25 540.834 2.66667 540.667 7.33333 540.084C14.25 535.417 22 529.917 23.8333 529.5C26.8333 528.75 33 503.667 36.5 499.834Z" fill="#A5A5A5"/>
</g>
<mask id="mask6_2002_4333" style="mask-type:luminance" maskUnits="userSpaceOnUse" x="0" y="0" width="1600" height="900">
<path d="M1600 0H0V900H1600V0Z" fill="white"/>
</mask>
<g mask="url(#mask6_2002_4333)">
<path d="M1068.67 515.75C1071 515.75 1102.58 506.083 1113.92 503.167C1132.83 498.25 1171.42 490.333 1189 481.917C1195.92 478.667 1208 468.75 1214.83 465.334C1224.33 460.5 1246.25 457.917 1255.5 452.75C1266.25 446.833 1261.25 425.834 1292.17 420.084C1328.42 413.334 1333.17 426.75 1345.5 431C1359.17 435.75 1384.33 445.583 1398.83 445.917C1413.17 446.25 1456.17 443.583 1456.17 443.583L1502.58 458.25C1502.58 458.25 1432.42 549.417 1429.75 549.667C1427.08 550 1266.33 572 1260.67 569.167C1254.92 566.334 1096.75 560.167 1094.42 559.75C1092.08 559.334 1068.67 515.75 1068.67 515.75Z" fill="#D7DEE2"/>
</g>
<mask id="mask7_2002_4333" style="mask-type:luminance" maskUnits="userSpaceOnUse" x="0" y="0" width="1600" height="900">
<path d="M1600 0H0V900H1600V0Z" fill="white"/>
</mask>
<g mask="url(#mask7_2002_4333)">
<path d="M1271.58 476.417C1271.58 476.417 1292.25 462.083 1295.67 458.917C1299.08 455.75 1294.17 451.75 1292.25 450.75C1288.17 448.667 1275.83 452.167 1275.67 443.167C1275.58 441.167 1281.92 431.083 1289.58 421.333C1261.58 427.75 1266 447.667 1255.58 453.417C1246.25 458.583 1224.42 461.167 1214.92 466C1208.08 469.5 1196.08 479.333 1189.08 482.583C1171.42 490.917 1132.92 498.917 1114 503.833C1102.58 506.75 1071 516.417 1068.75 516.417C1068.75 516.417 1092.25 560 1094.58 560.334C1096 560.584 1157.58 563 1205.42 565.5C1215.5 557.417 1226 554.333 1232.08 550.917C1244.08 544 1250.92 535.083 1248.67 528.75C1246.33 522.417 1244.17 516.417 1244.17 512.917C1244.17 509.5 1258.83 493.25 1256.5 489.25C1254.17 485.417 1271.58 476.417 1271.58 476.417Z" fill="#A5A5A5"/>
</g>
<mask id="mask8_2002_4333" style="mask-type:luminance" maskUnits="userSpaceOnUse" x="0" y="0" width="1600" height="900">
<path d="M1600 0H0V900H1600V0Z" fill="white"/>
</mask>
<g mask="url(#mask8_2002_4333)">
<path d="M1609.42 419.833C1609.42 419.833 1557.92 363.5 1537.58 356.417C1530.58 354 1513.5 358.75 1508.92 363.333C1504.33 367.917 1486.67 396.75 1478 406.917C1466.25 420.667 1445.42 450.333 1432.17 462.5C1421 472.833 1386.33 494 1381.75 496.333C1377.17 498.667 1350.83 522.667 1350.83 522.667L1341.67 529.583L1481.5 562.833L1606.83 589.5L1609.42 419.833Z" fill="#D7DEE2"/>
</g>
<mask id="mask9_2002_4333" style="mask-type:luminance" maskUnits="userSpaceOnUse" x="0" y="0" width="1600" height="900">
<path d="M1600 0H0V900H1600V0Z" fill="white"/>
</mask>
<g mask="url(#mask9_2002_4333)">
<path d="M1521.08 498.166C1525 493 1528.42 479.333 1527.17 473C1526.08 467.666 1519.58 459.333 1512.67 456.666C1511.08 456.083 1501 441.583 1506.58 430.583C1510.08 423.667 1535 394 1527.75 386C1524.5 382.417 1515 390.083 1512.83 383.25C1512.33 381.75 1519.83 367.833 1525.42 357.667C1518.83 359 1512 361.667 1509.42 364.333C1504.83 368.917 1487.17 397.75 1478.5 407.916C1466.75 421.666 1445.92 451.333 1432.67 463.5C1421.5 473.833 1386.83 495 1382.25 497.333C1377.67 499.666 1351.33 523.667 1351.33 523.667L1342.17 530.583L1469.08 560.75C1472.67 554.667 1477.08 543.083 1480.25 537.417C1484.33 530.083 1494.67 516.666 1500.33 510.5C1503.75 506.666 1517.42 503.083 1521.08 498.166Z" fill="#A5A5A5"/>
</g>
<mask id="mask10_2002_4333" style="mask-type:luminance" maskUnits="userSpaceOnUse" x="0" y="0" width="1600" height="900">
<path d="M1600 0H0V900H1600V0Z" fill="white"/>
</mask>
<g mask="url(#mask10_2002_4333)">
<path d="M-2.75 534C-2.75 534 171.25 487.75 228.5 474.167C291.5 459.25 393.417 431.333 483.75 431.333C587.667 431.333 710.167 459.667 786.417 472.583C882.167 488.833 1074 518.584 1170.08 532.167C1277.58 547.417 1598.67 589.167 1598.67 589.167L1599.33 900.167L-2.16667 909.417L-2.75 534Z" fill="#E1E0E2"/>
</g>
<mask id="mask11_2002_4333" style="mask-type:luminance" maskUnits="userSpaceOnUse" x="0" y="0" width="1600" height="900">
<path d="M1600 0H0V900H1600V0Z" fill="white"/>
</mask>
<g mask="url(#mask11_2002_4333)">
<path d="M1532.67 659.833C1522.75 659.833 1509 679.667 1518.17 684.333C1527.33 688.917 1534.25 701.917 1532.67 703.417C1531.17 704.917 1515.17 698.833 1515.17 698.833C1515.17 698.833 1489.17 694.25 1491.42 698.833C1493.75 703.417 1492.92 707.75 1487.58 703.667C1482.25 699.583 1456.5 693.333 1456.25 699.583C1456 705.833 1466.83 717.417 1446.33 711.833C1425.75 706.25 1413.5 705.75 1410.42 707.25C1407.33 708.75 1415 719.417 1381.33 713.333C1347.67 707.25 1341.58 711.833 1321.75 705C1301.92 698.083 1226 708.833 1226 708.833C1226 708.833 1219.33 718.75 1230 718.75C1240.67 718.75 1257 736.667 1278.17 734.833C1299.33 732.917 1298.83 735.583 1313.33 740.917C1327.83 746.25 1328.08 749.417 1358.42 755.417C1388.75 761.417 1406.58 756.167 1444 761.5C1481.42 766.833 1512.17 769.75 1532.92 765.333C1553.67 760.917 1569.42 755.417 1577.83 751.583C1586.25 747.75 1600.08 742.417 1600.08 732.5C1600.08 722.583 1601.75 710.333 1600.08 703.417C1598.42 696.5 1595.42 688.167 1589.25 679.75C1583.17 671.333 1579.75 665.333 1567.83 659.917C1555.92 654.5 1552.58 646.917 1544.17 646.167C1535.75 645.417 1531.17 641.583 1528.92 646.167C1526.5 650.667 1532.67 659.833 1532.67 659.833Z" fill="#C6C6CA"/>
</g>
<mask id="mask12_2002_4333" style="mask-type:luminance" maskUnits="userSpaceOnUse" x="0" y="0" width="1600" height="900">
<path d="M1600 0H0V900H1600V0Z" fill="white"/>
</mask>
<g mask="url(#mask12_2002_4333)">
<path d="M1203.25 771.417C1197.17 776.75 1187.67 789.75 1201.75 790.917C1215.83 792.083 1229.83 793.584 1234.42 796.667C1239 799.75 1241.08 799.667 1242.25 805.834C1243.75 814.25 1246.08 818.083 1236.17 814.25C1226.25 810.417 1206.25 808.917 1200.58 811.917C1194.92 815 1198.83 823 1196.42 825.667C1191.67 831.167 1167.33 825.667 1167.33 825.667C1167.33 825.667 1141.33 816.5 1139.08 811.167C1136.75 805.834 1102.42 804.25 1081 801.25C1060.92 798.417 1051.17 796.667 1033.58 792.084C1023.17 789.417 996.583 788.417 993.083 805.834C989.5 823.25 985.75 832.333 992.25 846.333C998.75 860.333 1008.5 837.667 1025.33 848.5C1042.17 859.334 1047.33 873.083 1079.42 878.417C1111.5 883.75 1149.75 886.834 1194.83 881.5C1239.92 876.167 1291.17 871.584 1306.42 862.417C1321.67 853.25 1336.25 836.917 1337.75 827.917C1339.25 818.917 1353 808.917 1337.75 799.75C1322.5 790.584 1320.92 773.75 1307.17 771.5C1293.42 769.167 1274.42 760.167 1258.67 764.667C1242.92 769.167 1203.25 771.417 1203.25 771.417Z" fill="#C6C6CA"/>
</g>
<mask id="mask13_2002_4333" style="mask-type:luminance" maskUnits="userSpaceOnUse" x="0" y="0" width="1600" height="900">
<path d="M1600 0H0V900H1600V0Z" fill="white"/>
</mask>
<g mask="url(#mask13_2002_4333)">
<path d="M404.749 877.5C402.583 876.5 380.166 854.583 373.416 851.5C371.166 850.5 325.833 849.75 315.499 853.833C305.166 857.833 308.583 841.25 308.083 838.333C307.499 835.5 238.166 842.333 238.166 842.333C238.166 842.333 192.416 852.167 180.999 845.667C171.583 840.333 176.249 821.083 167.416 814.833C167.083 814.583 166.583 814.417 165.833 814.25L186.083 786.167C186.083 786.167 154.999 777 153.833 777C152.666 777 103.916 761.5 83.6661 764.083C72.5827 765.5 38.1661 764.5 38.1661 764.5C38.1661 764.5 33.0827 751.667 29.2494 751.25C23.6661 750.583 -27.2506 756.667 -9.75059 755.333L-7.50059 761.083L27.9161 761C27.9161 761 30.4161 768.5 32.4994 769.75C41.3327 775.083 63.4994 770 73.7494 769.75C91.3327 769.333 140.333 782.167 140.333 782.167C140.333 782.167 164.083 786.833 164.499 793.333C164.916 799.25 153.333 808.583 145.749 814C142.916 814.25 140.833 814.583 140.499 814.917C139.333 816.083 101.749 823.167 97.5827 824.333C93.4161 825.5 85.9994 833.833 84.4161 838.833C82.8327 843.833 26.6661 857.75 23.5827 859.333C20.4994 860.833 15.9161 853.25 15.1661 852.083C14.4161 850.917 -7.08393 847.083 -7.08393 847.083L-9.41726 857.417C-9.41726 857.417 8.24941 851.75 11.3327 862.417C14.4161 873.083 46.4994 860.917 67.9161 854.75C89.3327 848.667 91.3327 841.917 103.499 834.25C115.749 826.583 132.083 830.25 145.833 825.667C159.583 821.083 154.999 830.25 159.583 840.917C164.166 851.583 155.249 852.75 169.166 861.583C180.666 868.833 191.749 870 205.499 865.417C219.249 860.833 249.833 856.25 269.666 853.167C289.499 850.083 270.833 865.417 293.749 870C316.666 874.583 333.916 870 352.249 871.5C366.499 872.667 379.083 899.75 385.416 914.25L462.833 915.833L478.083 907.667C478.249 907.583 415.666 882.583 404.749 877.5Z" fill="#9FA0A3"/>
</g>
<mask id="mask14_2002_4333" style="mask-type:luminance" maskUnits="userSpaceOnUse" x="0" y="0" width="1600" height="900">
<path d="M1600 0H0V900H1600V0Z" fill="white"/>
</mask>
<g mask="url(#mask14_2002_4333)">
<path d="M410.916 871.75C408.749 870.75 386.333 848.833 379.583 845.75C377.333 844.75 331.999 844 321.666 848.083C311.333 852.083 314.749 835.5 314.249 832.583C313.666 829.75 244.333 836.583 244.333 836.583C244.333 836.583 198.583 846.417 187.166 839.917C177.749 834.583 182.416 815.333 173.583 809.083C173.249 808.833 172.749 808.667 171.999 808.5L192.249 780.417C192.249 780.417 161.166 771.25 159.999 771.25C158.833 771.25 122.749 758.25 102.499 760.833C91.4161 762.25 44.4161 758.833 44.4161 758.833C44.4161 758.833 39.3327 746 35.4994 745.583C29.9161 744.917 -21.0006 751 -3.50059 749.667L-1.25059 755.417L34.1661 755.333C34.1661 755.333 36.6661 762.833 38.7494 764.083C47.5827 769.417 69.7494 764.333 79.9994 764.083C97.5827 763.667 146.583 776.5 146.583 776.5C146.583 776.5 170.333 781.167 170.749 787.667C171.166 793.583 159.583 802.917 151.999 808.333C149.166 808.583 147.083 808.917 146.749 809.25C145.583 810.417 100.166 819.167 95.9161 820.333C91.7494 821.5 84.4161 833.75 82.9161 838.667C81.4161 843.583 32.8327 852.083 29.8327 853.583C26.7494 855.083 22.1661 847.5 21.4161 846.333C20.6661 845.167 -0.833928 841.333 -0.833928 841.333L-3.16726 851.667C-3.16726 851.667 14.4994 846 17.5827 856.667C20.6661 867.333 52.7494 855.167 74.1661 849C95.5827 842.917 89.8327 835.583 102.083 828C114.333 820.333 138.416 824.583 152.166 820C165.916 815.417 161.333 824.583 165.916 835.25C170.499 845.917 161.583 847.083 175.499 855.917C186.999 863.167 198.083 864.333 211.833 859.75C225.583 855.167 256.166 850.583 275.999 847.5C295.833 844.417 277.166 859.75 300.083 864.333C322.999 868.917 340.249 864.333 358.583 865.833C372.833 867 385.416 894.083 391.749 908.583L469.166 910.167L484.416 902C484.333 901.833 421.833 876.833 410.916 871.75Z" fill="#C6C6CA"/>
</g>
<mask id="mask15_2002_4333" style="mask-type:luminance" maskUnits="userSpaceOnUse" x="0" y="0" width="1600" height="900">
<path d="M1600 0H0V900H1600V0Z" fill="white"/>
</mask>
<g mask="url(#mask15_2002_4333)">
<path d="M406.999 438.417C338.833 447.167 271.749 465.083 225.583 476C168.416 489.583 -7.33398 535.25 -7.33398 535.25L-4.33398 722.667C-2.91732 722.833 0.666016 723.25 2.24935 723.417C43.3327 726.833 45.9994 715.417 73.4994 716.5C100.999 717.583 100.999 733.667 151.499 736C201.999 738.333 187.333 734.083 212.583 729.833C237.833 725.583 226.083 745.25 299.499 741C372.916 736.75 411.749 764.417 436.499 778.25C461.749 792.417 566.583 844.917 574.583 836.917C582.583 828.917 498.416 801.167 497.249 773.083C496.333 751.167 457.666 760.083 443.916 756.667C430.166 753.25 448.499 748.667 471.416 736C494.333 723.417 436.999 721.083 427.833 722.25C418.666 723.417 376.333 713.917 372.833 703.167C369.333 692.5 350.999 686.083 331.499 680.333C311.999 674.583 262.749 672.333 238.083 659.75C213.333 647.167 269.583 633.75 286.749 628C303.916 622.25 466.833 589.25 447.333 564.75C435.583 550 386.583 550.25 373.916 546.833C363.916 544.083 298.833 541.667 286.249 532.5C273.666 523.333 369.166 504 365.916 500.417C356.166 489.5 325.749 499.25 314.333 488.417C308.166 482.667 365.666 456.5 406.999 438.417Z" fill="#C6C6CA"/>
</g>
<mask id="mask16_2002_4333" style="mask-type:luminance" maskUnits="userSpaceOnUse" x="0" y="0" width="1600" height="900">
<path d="M1600 0H0V900H1600V0Z" fill="white"/>
</mask>
<g mask="url(#mask16_2002_4333)">
<path d="M1166.5 532.917C1078.92 520.5 911.917 494.667 810.501 477.917C811.751 478.5 812.667 479.083 813.334 479.583C821.167 485.833 785.501 491.75 796.834 496.833C806.501 501.167 836.501 502.583 845.417 505.333C876.917 515.083 819.334 522.583 830.417 529.583C843.334 537.75 897.251 538.666 878.667 545.5C844.251 558.083 771.251 558.417 796.834 564.583C822.417 570.75 847.501 577.25 847.667 581.833C847.834 586.417 860.251 591.417 843.084 602.25C825.917 613.167 803.667 611.416 796.834 612.583C790.001 613.75 743.334 615.083 713.417 623.5C684.751 631.583 685.917 644.583 710.084 646.333C734.001 648.083 741.584 639 754.834 646.333C765.167 652.083 709.667 673.583 719.917 677.5C730.084 681.417 760.584 680.25 783.501 679.083C806.417 677.917 850.001 677.333 875.251 657.833C900.501 638.333 919.751 644.5 936.001 628C952.25 611.5 955.001 591.5 978.751 582.833C1002.5 574.167 1016.25 573 1025.42 573C1034.58 573 1038.08 575.333 1038.08 575.333C1038.08 575.333 1221.42 602.833 1230.58 602.25C1235.58 601.917 1255.33 574.833 1270.5 547.083C1228.75 541.583 1191.75 536.5 1166.5 532.917Z" fill="#C6C6CA"/>
</g>
<mask id="mask17_2002_4333" style="mask-type:luminance" maskUnits="userSpaceOnUse" x="0" y="0" width="1600" height="900">
<path d="M1600 0H0V900H1600V0Z" fill="white"/>
</mask>
<g mask="url(#mask17_2002_4333)">
<path d="M1600 578.084C1600 576.584 1435.58 544.417 1435.58 544.417C1435.58 544.417 1394 540.084 1380.58 536.75C1367.58 533.5 1330.17 518.417 1330.17 518.417C1330.17 518.417 1309.5 510.417 1302.67 510.584C1282.67 511 1242.17 520.417 1223.17 527.584C1207.67 533.417 1169.67 553.584 1163.58 556.667C1157.5 559.75 1140.67 564.334 1133 562.75C1125.33 561.167 1159 610.167 1165.08 614.75C1171.17 619.334 1348.5 651.417 1359.25 648.417C1369.92 645.334 1513.67 631.584 1524.33 630.084C1535 628.584 1600.08 624 1600.08 624V578.084H1600Z" fill="#E1E0E2"/>
</g>
<mask id="mask18_2002_4333" style="mask-type:luminance" maskUnits="userSpaceOnUse" x="0" y="0" width="1600" height="900">
<path d="M1600 0H0V900H1600V0Z" fill="white"/>
</mask>
<g mask="url(#mask18_2002_4333)">
<path d="M1292.25 626.5C1286.58 617.667 1273.58 617.667 1267.42 611.75C1261.17 605.833 1273.92 611.333 1255.83 593.833C1239 577.5 1234.08 579.917 1226.75 580.75C1219.42 581.584 1220.83 580.75 1213.25 576.25C1206.92 572.5 1226.08 560.5 1226.67 554.834C1227.25 549.167 1215.33 554.584 1200.67 554.834C1186.67 555 1195.75 545.583 1200.08 537.583C1184.25 545.667 1167 555.167 1163 557.167C1157 560.333 1140.42 565 1132.83 563.417C1125.33 561.833 1158.42 612.167 1164.5 616.834C1168.25 619.75 1237.83 633.75 1292.08 643.084C1294.33 637.917 1295.5 631.5 1292.25 626.5Z" fill="#D8D8D8"/>
</g>
<mask id="mask19_2002_4333" style="mask-type:luminance" maskUnits="userSpaceOnUse" x="0" y="0" width="1600" height="900">
<path d="M1600 0H0V900H1600V0Z" fill="white"/>
</mask>
<g mask="url(#mask19_2002_4333)">
<path d="M747.251 662.75C756.418 662.75 841.251 648.667 844.668 643.083C848.084 637.5 892.834 610.833 910.001 602C931.334 591 976.418 571.583 998.251 564.167C1019.42 557 1064.25 546.833 1086.5 549.25C1109.08 551.667 1163.33 575.583 1172.5 579.083C1181.67 582.5 1250 626.167 1250 626.167C1250 626.167 1300.58 642 1322.08 659.333C1328.58 664.583 1371.08 674.25 1371.08 674.25C1371.08 674.25 1153 696 1149.58 696C1146.17 696 863.001 723.5 857.251 720.083C851.501 716.667 741.918 694.75 723.084 678.25C715.334 671.333 747.251 662.75 747.251 662.75Z" fill="#E1E0E2"/>
</g>
<mask id="mask20_2002_4333" style="mask-type:luminance" maskUnits="userSpaceOnUse" x="0" y="0" width="1600" height="900">
<path d="M1600 0H0V900H1600V0Z" fill="white"/>
</mask>
<g mask="url(#mask20_2002_4333)">
<path d="M903.749 697.166C905.999 692.5 900.833 680.75 903.749 676.5C910.249 667.25 938.416 668.083 945.499 659.333C949.249 654.75 947.999 642.25 949.416 636C952.499 622.5 994.916 619.25 1007.75 608.25C1013.08 603.667 998.666 599.25 991.416 599.167C979.916 599.083 945.833 610.667 945.583 599.167C945.499 595.833 988.499 574.167 1024.42 556.917C1014.33 559.333 1005.08 561.916 998.333 564.25C976.499 571.666 931.416 591.083 910.083 602.083C892.916 610.917 848.166 637.583 844.749 643.167C841.333 648.75 756.499 662.833 747.333 662.833C747.333 662.833 715.416 671.417 723.249 678.333C742.083 694.833 848.999 719.917 854.749 723.333C855.249 723.583 899.499 705.916 903.749 697.166Z" fill="#D8D8D8"/>
</g>
<mask id="mask21_2002_4333" style="mask-type:luminance" maskUnits="userSpaceOnUse" x="0" y="0" width="1600" height="900">
<path d="M1600 0H0V900H1600V0Z" fill="white"/>
</mask>
<g mask="url(#mask21_2002_4333)">
<path d="M939.5 862.333C928.833 865.417 885.75 870.083 872 862.667C858.25 855.25 859.75 829.333 849.083 830.833C838.417 832.333 820 846.167 813.917 839.25C807.833 832.333 797.083 836.833 775.667 830.75C754.25 824.667 739 813.75 737.417 810.833C735.917 807.917 702.25 789.75 702.25 789.75L753.833 805.25C753.833 805.25 755 813.25 757.667 814.417C760.333 815.583 780.25 823.167 782.167 823.583C784.083 824 817.667 824 818.667 825.5C819.583 827 838.333 820.5 838.333 820.5C838.333 820.5 852.083 810.167 854 813.25C855.917 816.333 875 826.25 874.25 828.75C873.5 831.25 869.25 838.5 876.167 840.75C883.083 843.083 898.75 841.917 903.333 843.417C907.917 844.917 960.667 844.5 962.583 845.25C964.5 846 955.25 852.5 951.75 855C950.083 856.167 939.5 862.333 939.5 862.333Z" fill="#9FA0A3"/>
</g>
<mask id="mask22_2002_4333" style="mask-type:luminance" maskUnits="userSpaceOnUse" x="0" y="0" width="1600" height="900">
<path d="M1600 0H0V900H1600V0Z" fill="white"/>
</mask>
<g mask="url(#mask22_2002_4333)">
<path d="M1476.58 714.166C1475.08 714.166 1415.67 697.333 1414.17 696.083C1412.67 694.833 1388.67 689.083 1390.75 687.083C1392.75 685.083 1400.92 663.5 1400.92 663.5C1400.92 663.5 1391.25 658.416 1390 658.166C1388.83 657.916 1345.08 647 1335.58 645.167C1359.58 649.917 1389.75 665.916 1388.58 671.5C1387.67 675.916 1379.33 685.167 1375.5 689.083C1370.17 690 1364.58 690.75 1363.58 689.917C1361.67 688.417 1355.17 682.25 1355.17 682.25C1355.17 682.25 1345.08 683.917 1344.08 684.917C1343.08 685.917 1335.33 687.833 1331.33 687.833C1328.08 687.833 1309.67 687.083 1309.67 687.083C1309.67 687.083 1325.42 690.416 1330.58 690.666C1335.75 690.916 1352.92 687.75 1354.17 689.25C1355.42 690.75 1358.75 693.583 1360.5 694C1362.17 694.333 1370.67 695.083 1378.25 695.583C1381.33 698.333 1385.5 701.167 1388.5 700.333C1394.17 698.917 1421.75 706.917 1428.58 710.333C1435.42 713.75 1431.17 723.583 1431.17 723.583L1491.5 727.166C1491.58 727.25 1478.08 714.166 1476.58 714.166Z" fill="#9FA0A3"/>
</g>
<mask id="mask23_2002_4333" style="mask-type:luminance" maskUnits="userSpaceOnUse" x="0" y="0" width="1600" height="900">
<path d="M1600 0H0V900H1600V0Z" fill="white"/>
</mask>
<g mask="url(#mask23_2002_4333)">
<path d="M1478.92 712.083C1477.42 712.083 1418 695.25 1416.5 694C1415 692.75 1391 687 1393.08 685C1395.08 683 1403.25 661.417 1403.25 661.417C1403.25 661.417 1393.58 656.333 1392.33 656.083C1391.17 655.833 1341.33 646.333 1331.75 644.5C1355.75 649.25 1392.08 663.833 1390.92 669.5C1390 673.917 1381.67 683.167 1377.83 687.083C1372.5 688 1366.92 688.75 1365.92 687.917C1364 686.417 1357.5 680.25 1357.5 680.25C1357.5 680.25 1347.42 681.917 1346.42 682.917C1345.42 683.917 1337.67 685.833 1333.67 685.833C1330.42 685.833 1308.92 687.083 1308.92 687.083C1308.92 687.083 1327.75 688.333 1332.83 688.583C1337.92 688.833 1355.17 685.667 1356.42 687.167C1357.67 688.667 1361 691.5 1362.75 691.917C1364.42 692.25 1372.92 693 1380.5 693.5C1383.58 696.25 1387.75 699.083 1390.75 698.25C1396.42 696.833 1424 704.833 1430.83 708.25C1437.67 711.667 1433.42 721.5 1433.42 721.5L1493.75 725.083C1493.92 725.167 1480.42 712.083 1478.92 712.083Z" fill="#C6C6CA"/>
</g>
<mask id="mask24_2002_4333" style="mask-type:luminance" maskUnits="userSpaceOnUse" x="0" y="0" width="1600" height="900">
<path d="M1600 0H0V900H1600V0Z" fill="white"/>
</mask>
<g mask="url(#mask24_2002_4333)">
<path d="M942.001 858.75C931.334 861.833 888.251 866.5 874.501 859.083C860.751 851.667 862.251 825.75 851.584 827.25C840.917 828.75 822.501 842.583 816.417 835.667C810.334 828.75 799.584 833.25 778.167 827.167C756.751 821.083 741.501 810.167 739.917 807.25C738.334 804.333 700.584 789 700.584 789L756.417 801.583C756.417 801.583 757.584 809.583 760.251 810.75C762.917 811.917 782.834 819.5 784.751 819.917C786.667 820.333 820.251 820.333 821.251 821.833C822.251 823.333 840.917 816.833 840.917 816.833C840.917 816.833 854.667 806.5 856.584 809.583C858.501 812.667 877.584 822.583 876.834 825.083C876.084 827.583 871.834 834.833 878.751 837.083C885.667 839.333 901.334 838.25 905.917 839.75C910.501 841.25 963.251 840.833 965.167 841.583C967.084 842.333 955.584 848.583 952.001 851.083C950.334 852.333 942.001 858.75 942.001 858.75Z" fill="#C6C6CA"/>
</g>
<mask id="mask25_2002_4333" style="mask-type:luminance" maskUnits="userSpaceOnUse" x="0" y="0" width="1600" height="900">
<path d="M1600 0H0V900H1600V0Z" fill="white"/>
</mask>
<g mask="url(#mask25_2002_4333)">
<path d="M570.5 903.833C575.083 903.833 660.5 889.667 665.083 888.167C678.583 883.917 673.75 868.083 677.917 862.166C682.083 856.333 693.75 862.333 701.5 866C710.25 870.166 744.083 861.666 758.333 862.166C771.167 862.583 802.667 872.583 808.75 872.583C814.833 872.583 858.333 874.833 874.75 873.25C890.5 871.666 922.583 868.5 937.167 862.166C950.833 856.166 984.417 825.5 984.417 825.5C984.417 825.5 1007.75 801.583 1022.08 800.416C1036.5 799.333 1073.33 815.166 1080.92 814.416C1088.58 813.666 1118.67 811.5 1129.42 817.166C1135.08 820.166 1143.5 833.916 1148.17 834.833C1168.83 839.166 1227.67 826.5 1232.25 825.5C1236.83 824.5 1263.58 827.666 1273.67 825.5C1279.92 824.166 1300.75 822.583 1300.75 822.583L1285.58 862.166V917L570.5 903.833Z" fill="url(#paint1_linear_2002_4333)"/>
</g>
<mask id="mask26_2002_4333" style="mask-type:luminance" maskUnits="userSpaceOnUse" x="0" y="0" width="1600" height="900">
<path d="M1600 0H0V900H1600V0Z" fill="white"/>
</mask>
<g mask="url(#mask26_2002_4333)">
<path opacity="0.67" d="M1299.42 824.583C1299.42 824.583 1278.58 826.084 1272.33 827.417C1271.17 827.667 1269.75 827.833 1268.17 827.917C1265.25 832.5 1258.5 840.583 1259.08 845.5C1259.5 848.417 1262.42 849.5 1263.17 856.75C1263.92 864 1255 874.667 1259 879.167C1266.75 887.833 1272.08 911.75 1272.08 911.75L1284.42 910.083L1276.25 864.834L1299.42 824.583Z" fill="#4175AA"/>
</g>
<mask id="mask27_2002_4333" style="mask-type:luminance" maskUnits="userSpaceOnUse" x="0" y="0" width="1600" height="900">
<path d="M1600 0H0V900H1600V0Z" fill="white"/>
</mask>
<g mask="url(#mask27_2002_4333)">
<path d="M1182.75 763.75C1179.67 766.333 1179.08 778.25 1182.75 779.833C1204 789 1247.08 788.5 1258.58 789C1274.92 789.666 1296.92 795.75 1306.75 804.583C1316.08 812.916 1302.58 821.083 1296.58 825.166C1292.92 827.666 1287.08 830.25 1284.25 833.333C1280.25 837.666 1277.42 848.25 1277.33 853.583C1277.33 865.333 1285.67 900 1285.67 900H1600L1584.42 721.166C1584.42 721.166 1580.75 729.5 1578.17 730.666C1561.67 738.083 1524.58 722.5 1506.67 719.916C1487.58 717.166 1429.58 722.5 1429.58 722.5C1429.58 722.5 1350.67 724.5 1324.75 720.166C1314.75 718.5 1295.67 711.083 1285.67 709.5C1272.33 707.333 1235.33 708.75 1231.5 709.5C1227.67 710.25 1213.92 717.916 1223.08 721.75C1232.25 725.583 1257.17 731.75 1265.92 739.333C1277.33 749.25 1199.33 749.833 1182.75 763.75Z" fill="#476C8C"/>
</g>
<mask id="mask28_2002_4333" style="mask-type:luminance" maskUnits="userSpaceOnUse" x="0" y="0" width="1600" height="900">
<path d="M1600 0H0V900H1600V0Z" fill="white"/>
</mask>
<g mask="url(#mask28_2002_4333)">
<path d="M1182.75 763.75C1179.67 766.333 1179.08 778.25 1182.75 779.833C1204 789 1247.08 788.5 1258.58 789C1274.92 789.666 1296.92 795.75 1306.75 804.583C1316.08 812.916 1302.58 821.083 1296.58 825.166C1292.92 827.666 1287.08 830.25 1284.25 833.333C1280.25 837.666 1277.42 848.25 1277.33 853.583C1277.33 865.333 1287 903.916 1287 903.916L1571 905.667L1584.33 721.166C1584.33 721.166 1580.67 729.5 1578.08 730.666C1561.58 738.083 1524.5 722.5 1506.58 719.916C1487.5 717.166 1429.5 722.5 1429.5 722.5C1429.5 722.5 1350.58 724.5 1324.67 720.166C1314.67 718.5 1295.58 711.083 1285.58 709.5C1272.25 707.333 1235.25 708.75 1231.42 709.5C1227.58 710.25 1213.83 717.916 1223 721.75C1232.17 725.583 1257.08 731.75 1265.83 739.333C1277.33 749.25 1199.33 749.833 1182.75 763.75Z" fill="url(#paint2_linear_2002_4333)"/>
</g>
<mask id="mask29_2002_4333" style="mask-type:luminance" maskUnits="userSpaceOnUse" x="0" y="0" width="1600" height="900">
<path d="M1600 0H0V900H1600V0Z" fill="white"/>
</mask>
<g mask="url(#mask29_2002_4333)">
<path d="M1591.92 818.25L1581.5 764.083C1581.5 764.083 1583.58 748.75 1584.83 736.917L1583.58 723C1583.58 723 1579.92 731.333 1577.33 732.5C1567.92 736.667 1551.83 733.5 1536.33 729.417C1535.33 732.333 1535.58 735.583 1537.92 739.083C1543.83 748.083 1530.33 772.667 1536.67 773.833C1543 775 1552.25 773.25 1553.33 780.75C1554.5 788.167 1546.42 797.917 1549.33 808.417C1552.17 819 1558.75 825.083 1561.92 830.583C1565.42 836.667 1571 849.917 1571.67 856.917C1572.5 865.25 1568.25 890.167 1568.25 890.167L1570.67 900.083L1594.08 844.333L1591.92 818.25Z" fill="#9EBAD6"/>
</g>
<mask id="mask30_2002_4333" style="mask-type:luminance" maskUnits="userSpaceOnUse" x="0" y="0" width="1600" height="900">
<path d="M1600 0H0V900H1600V0Z" fill="white"/>
</mask>
<g mask="url(#mask30_2002_4333)">
<path d="M1604.08 604.833C1604.08 604.833 1502.08 607.917 1469.83 610.75C1460.58 611.584 1440.92 614.667 1434.17 621.083C1429.17 625.833 1425.92 639.25 1431.75 642.834C1453.83 656.334 1493.5 661 1513.75 668.084C1531.75 674.417 1567.17 692.667 1579.25 707.417C1581.5 710.167 1585 713.917 1584.25 717.417C1581.58 730.5 1554.75 747.75 1553.58 761C1552.58 771.417 1572 786.75 1575.67 796.5C1584 818.75 1573.33 891.667 1573.33 891.667L1570.42 907.583L1606.33 904.917L1604.08 604.833Z" fill="url(#paint3_linear_2002_4333)"/>
</g>
<mask id="mask31_2002_4333" style="mask-type:luminance" maskUnits="userSpaceOnUse" x="0" y="0" width="1600" height="900">
<path d="M1600 0H0V900H1600V0Z" fill="white"/>
</mask>
<g mask="url(#mask31_2002_4333)">
<path d="M1265.83 788.75C1263.33 788.417 1260.92 788.25 1258.67 788.167C1257.08 788.083 1254.75 788.083 1252.17 788H1251.08C1250.75 782.167 1252.92 776.417 1254.83 771.333C1256.25 767.5 1257.67 763.833 1257.75 760.667C1257.83 757.333 1255.67 750.917 1254.5 747.583C1261.33 746.167 1265.25 744.833 1266.92 743.25C1269.5 749 1269.75 752 1269.08 752.833C1267.5 754.75 1267 757 1266.42 759.333C1266.08 760.667 1265.75 762.083 1265.17 763.5C1263.58 767.5 1265.08 784.583 1265.08 785.25V785.333L1265.83 788.75Z" fill="#8BB4D4"/>
</g>
<mask id="mask32_2002_4333" style="mask-type:luminance" maskUnits="userSpaceOnUse" x="0" y="0" width="1600" height="900">
<path d="M1600 0H0V900H1600V0Z" fill="white"/>
</mask>
<g mask="url(#mask32_2002_4333)">
<path d="M1255.5 784.584C1255.5 784.584 1262.25 767.917 1260.17 762.667C1258.67 758.834 1260.25 753.917 1262.58 751.084C1263.5 749.917 1263.92 748.5 1262.08 746.333C1260.08 746.917 1255.5 748.167 1252.83 748.75C1253.75 751.5 1256.58 757.5 1256.5 761.084C1256.33 768.334 1248.75 776.5 1249.83 787.167C1252.42 787.25 1255.08 787.5 1256.83 787.583L1255.5 784.584Z" fill="#00425C"/>
</g>
<mask id="mask33_2002_4333" style="mask-type:luminance" maskUnits="userSpaceOnUse" x="0" y="0" width="1600" height="900">
<path d="M1600 0H0V900H1600V0Z" fill="white"/>
</mask>
<g mask="url(#mask33_2002_4333)">
<path d="M1375.17 724.917C1375.92 726 1376 726.167 1376.33 727C1379.42 733.583 1383.25 744.25 1382.42 758C1381.67 771.75 1384.92 768.583 1390.92 796.083C1395.67 817.75 1389.42 839.417 1386.58 849.75C1392.08 836.333 1413.17 805.25 1396.92 790.167C1393.17 786.667 1397.17 772.5 1397.83 766.833C1398.42 761.167 1415 756.583 1410.5 748.167C1407.33 742.167 1405.08 732.917 1402.25 724.75C1394.08 724.75 1384.83 725 1375.17 724.917Z" fill="#8BB4D4"/>
</g>
<mask id="mask34_2002_4333" style="mask-type:luminance" maskUnits="userSpaceOnUse" x="0" y="0" width="1600" height="900">
<path d="M1600 0H0V900H1600V0Z" fill="white"/>
</mask>
<g mask="url(#mask34_2002_4333)">
<path d="M1365.75 724.583C1366.5 725.667 1368.25 728.75 1368.67 729.583C1371.75 736.167 1362.5 765.75 1373.42 774.167C1395.67 791.333 1378.33 853.833 1378.42 854.25C1378.42 854.25 1392 822.75 1392.92 810.833C1394.17 794.917 1392.08 784 1389.83 780.667C1386.92 776.417 1385.92 767.25 1385.75 761.584C1385.67 755.917 1395.67 751.084 1390.17 743.25C1387.25 739.167 1384.5 731.334 1381.75 725.167C1377 725.084 1370.75 724.583 1365.75 724.583Z" fill="#8BB4D4"/>
</g>
<mask id="mask35_2002_4333" style="mask-type:luminance" maskUnits="userSpaceOnUse" x="0" y="0" width="1600" height="900">
<path d="M1600 0H0V900H1600V0Z" fill="white"/>
</mask>
<g mask="url(#mask35_2002_4333)">
<path d="M1486.58 720.75C1469.5 720.917 1448.08 722.5 1436.75 723.417L1450.92 727.417C1450.92 727.417 1474.58 737.083 1450.92 750.083C1446.67 752.417 1447.33 759.917 1452.92 767.25C1458.5 774.583 1470.75 784.5 1470 791.333C1469.83 793.167 1468.67 795.833 1467.08 799.083C1461 800.833 1449.75 805.333 1449.75 811.167C1449.75 818.083 1445.92 824.417 1442.08 827.25C1438.25 830.083 1432.75 838.75 1428.83 844.833C1424.92 850.917 1423.42 870.083 1424.17 873.917C1424.67 876.583 1409.67 892.167 1400.17 901.583H1424.67C1428.42 896.75 1431.67 892 1432.67 889.417C1435.83 881.25 1431.25 861.083 1434.33 851.833C1436.33 845.667 1446.08 836.833 1449.33 831.167C1451.5 827.333 1454.33 825.583 1456.75 824.167C1456.67 825.167 1456.75 826 1457 826.833C1459.33 835 1466.83 843.917 1469.58 855.167C1471.42 862.833 1461.58 885.5 1463.17 890.833C1463.92 893.583 1464.25 898.083 1464.33 901.667H1482.42C1482.17 896.5 1480.17 859.333 1480.17 856.5C1480.17 853.417 1469.42 838.083 1470.08 830.417C1470.75 822.75 1483 791.417 1481.5 783.833C1480 776.167 1463.92 766.75 1467 759.333C1470.33 751.417 1493.5 742.917 1494.25 738.333C1494.75 734.75 1490.58 726.167 1486.58 720.75Z" fill="#00425C"/>
</g>
<mask id="mask36_2002_4333" style="mask-type:luminance" maskUnits="userSpaceOnUse" x="0" y="0" width="1600" height="900">
<path d="M1600 0H0V900H1600V0Z" fill="white"/>
</mask>
<g mask="url(#mask36_2002_4333)">
<path d="M1295.92 744.167C1301.33 750.5 1303.67 753.833 1307.08 763.75C1311.17 775.5 1317.25 795.833 1317.25 795.833C1317.25 795.833 1309 749.833 1304.42 743C1302.5 740.167 1304.58 733.833 1309 727.333C1310.42 725.25 1312.42 722.334 1313.5 719.084C1307.17 717.25 1300.08 714.833 1293.92 713.083C1294.83 714.667 1295.58 716.5 1295.92 718.583C1297.33 727.833 1290.58 737.917 1295.92 744.167Z" fill="#8BB4D4"/>
</g>
<mask id="mask37_2002_4333" style="mask-type:luminance" maskUnits="userSpaceOnUse" x="0" y="0" width="1600" height="900">
<path d="M1600 0H0V900H1600V0Z" fill="white"/>
</mask>
<g mask="url(#mask37_2002_4333)">
<path d="M1290.5 738.917C1289.92 735.5 1291.5 730.5 1295.92 724.084C1297.33 722.084 1299.33 718.417 1300.5 715.167C1295.42 713.584 1290 712.667 1285.25 711.333C1286.17 712.917 1286.92 714.75 1287.25 716.834C1288.67 726 1283.83 734.834 1287.25 742.334C1291.33 751.25 1304.5 772.084 1304.5 772.084C1304.5 772.084 1291.42 744.167 1290.5 738.917Z" fill="#8BB4D4"/>
</g>
<mask id="mask38_2002_4333" style="mask-type:luminance" maskUnits="userSpaceOnUse" x="0" y="0" width="1600" height="900">
<path d="M1600 0H0V900H1600V0Z" fill="white"/>
</mask>
<g mask="url(#mask38_2002_4333)">
<path d="M1081.67 827.667C1086.25 831.25 1090.83 833 1087 842.417C1083.17 851.917 1084.58 849.167 1086.25 864.417C1087.92 879.667 1102.33 894.667 1102.33 894.667C1102.33 894.667 1092.33 881.083 1091.92 866.25C1091.75 859 1099 849.833 1098.25 846.25C1097.5 842.75 1100 829.75 1099.25 824.75C1098.92 822.417 1102.5 819 1106.42 815.75C1095.5 815.5 1084.42 816.333 1080.17 816.75C1079.33 816.833 1078.25 816.75 1076.83 816.5C1078.17 821.667 1079.67 826.083 1081.67 827.667Z" fill="#4175AA"/>
</g>
<mask id="mask39_2002_4333" style="mask-type:luminance" maskUnits="userSpaceOnUse" x="0" y="0" width="1600" height="900">
<path d="M1600 0H0V900H1600V0Z" fill="white"/>
</mask>
<g mask="url(#mask39_2002_4333)">
<path d="M1074.25 828.667C1078.83 832.25 1083.42 834 1079.58 843.417C1075.75 852.917 1076.33 856.417 1078.33 864.5C1082.08 879.417 1097.25 896.25 1097.25 896.25C1097.25 896.25 1086.17 874.25 1085.67 867.083C1084.92 856.25 1091.5 850.833 1090.75 847.333C1090 843.833 1092.5 830.833 1091.75 825.833C1091.42 823.5 1095 820.083 1098.92 816.833C1088 816.583 1078.17 816.833 1076.75 816.583C1078.17 821.667 1072.25 827.083 1074.25 828.667Z" fill="#4175AA"/>
</g>
<mask id="mask40_2002_4333" style="mask-type:luminance" maskUnits="userSpaceOnUse" x="0" y="0" width="1600" height="900">
<path d="M1600 0H0V900H1600V0Z" fill="white"/>
</mask>
<g mask="url(#mask40_2002_4333)">
<path d="M949.917 885.916C947.667 880.5 956.25 873.583 954.417 869.333C952.083 863.833 954.583 857.833 955.917 851.917C951.083 855.333 946 858.416 942.25 861.333C944.667 865.416 947.25 868.833 944.833 870.75C941 873.833 926.667 883 930.75 887.583C934.833 892.166 944 905.833 944 905.833L964.75 905.083C964.833 905.083 952.333 891.583 949.917 885.916Z" fill="#032155"/>
</g>
<mask id="mask41_2002_4333" style="mask-type:luminance" maskUnits="userSpaceOnUse" x="0" y="0" width="1600" height="900">
<path d="M1600 0H0V900H1600V0Z" fill="white"/>
</mask>
<g mask="url(#mask41_2002_4333)">
<path d="M1545.5 625.417C1554.67 632.583 1558.17 636.333 1555.42 640.917C1552.67 645.5 1537.83 659.167 1540.92 662.667C1544 666.167 1557.17 681.583 1557.33 681.833C1559.5 685.25 1563.42 692.5 1566.5 694.333C1562.25 679.917 1555.5 660.083 1555.5 660.083C1555.5 660.083 1561.92 658 1565.33 653.417C1576.42 638.5 1563.5 628.583 1564.17 620.333C1564.33 618.167 1569.08 616.083 1570 614.167C1570.83 612.5 1569.92 607.25 1569.92 607.25C1559.92 607.833 1548.5 607.583 1536.83 608.5C1537.75 613.167 1538.58 619.917 1545.5 625.417Z" fill="#B1CCE4"/>
</g>
<mask id="mask42_2002_4333" style="mask-type:luminance" maskUnits="userSpaceOnUse" x="0" y="0" width="1600" height="900">
<path d="M1600 0H0V900H1600V0Z" fill="white"/>
</mask>
<g mask="url(#mask42_2002_4333)">
<path d="M1533.58 625.75C1542.75 632.917 1546.25 636.667 1543.5 641.25C1540.75 645.834 1525.92 659.5 1529 663C1531.33 665.75 1536 670.667 1539.58 677.917C1541.25 679.167 1547.75 682.334 1547.75 682.334C1547.75 682.334 1541.17 667.084 1538.92 659.5C1538.08 656.667 1541.67 658.334 1545.08 653.75C1556.17 638.834 1543.25 628.917 1543.92 620.667C1544.08 618.5 1549.58 616.667 1549.75 614.5C1549.92 612.417 1543.83 608.667 1543.83 608.667C1543.83 608.667 1533.42 608.084 1524.83 608.75C1525.75 613.5 1526.58 620.25 1533.58 625.75Z" fill="#4B96B4"/>
</g>
<mask id="mask43_2002_4333" style="mask-type:luminance" maskUnits="userSpaceOnUse" x="0" y="0" width="1600" height="900">
<path d="M1600 0H0V900H1600V0Z" fill="white"/>
</mask>
<g mask="url(#mask43_2002_4333)">
<path d="M1165 894C1163.83 891.834 1165.33 870.75 1164.33 864.834C1163.83 861.667 1155.17 848.417 1150.58 844.333C1146.67 840.833 1134.75 834.75 1132.83 832.833C1134 834 1137.42 839.167 1140.08 842.25C1142.75 845.333 1147.83 848.583 1148.58 852.417C1149.33 856.167 1146.92 859.667 1148.08 864.25C1149.25 868.833 1152.25 875.667 1153.83 878.75C1155.33 881.833 1157.25 888.333 1157.25 890.583C1157.25 892.25 1158.92 903.583 1159.58 907L1172.58 910.083C1171.75 906.25 1166 895.834 1165 894Z" fill="#032155"/>
</g>
<mask id="mask44_2002_4333" style="mask-type:luminance" maskUnits="userSpaceOnUse" x="0" y="0" width="1600" height="900">
<path d="M1600 0H0V900H1600V0Z" fill="white"/>
</mask>
<g mask="url(#mask44_2002_4333)">
<path d="M803.666 894.333C803.666 894.333 799.583 888.667 800.749 887.417C801.916 886.167 807.083 884.75 801.333 882.417C795.583 880.084 787.499 874.167 786.666 870C778.583 868 769.166 865.667 761.666 864.333C765.166 866.167 771.166 869.5 772.083 872.917C773.249 877.25 770.916 883.584 774.416 885.334C777.916 887.084 783.583 889.334 785.333 891.084C787.083 892.834 788.749 894.917 790.499 898.5C791.166 899.917 798.999 907.5 802.166 908.417L810.583 908L803.666 894.333Z" fill="#032155"/>
</g>
<mask id="mask45_2002_4333" style="mask-type:luminance" maskUnits="userSpaceOnUse" x="0" y="0" width="1600" height="900">
<path d="M1600 0H0V900H1600V0Z" fill="white"/>
</mask>
<g mask="url(#mask45_2002_4333)">
<path d="M1011.42 836C1020.92 844.75 1022.83 842 1027.42 854.333C1032 866.667 1041.67 873.5 1041.67 873.5C1041.67 873.5 1042.75 850.5 1045 844.917C1047.33 839.333 1059.92 835.333 1062.17 823.667C1063 819.5 1063.67 815.583 1064.33 812C1050.25 807.667 1031.67 801.417 1022.42 802.167C1020.25 802.333 1017.92 803 1015.5 804C1020.42 807.25 1023.5 811.583 1019.5 817.833C1011.75 829.833 1001.83 827.25 1011.42 836Z" fill="#032155"/>
</g>
<mask id="mask46_2002_4333" style="mask-type:luminance" maskUnits="userSpaceOnUse" x="0" y="0" width="1600" height="900">
<path d="M1600 0H0V900H1600V0Z" fill="white"/>
</mask>
<g mask="url(#mask46_2002_4333)">
<path d="M1126 646.083C1120.67 649.917 1094.67 668.25 1094.67 675.167C1094.67 682.083 1080.17 694.25 1067.92 693.5C1055.67 692.75 1006 707.25 999.167 713.333C992.334 719.417 962.5 733.167 940.334 724.833C918.167 716.417 896.75 712.583 879.917 721.75C863.084 730.917 862.334 737.833 849.334 734.75C836.334 731.667 796.334 751 787.417 758.417C780.667 764.083 827.167 758.417 855.417 759.167C883.667 759.917 878.75 771.917 911.25 769.833C938 768.167 1027.58 771.583 1059.5 752.25C1069.17 746.417 1075.58 729.333 1100.75 733.917C1126 738.5 1145.83 739.25 1148.92 740C1152 740.75 1162.67 743.833 1161.92 727.75C1161.17 711.667 1168 707.083 1178.75 700.25C1189.42 693.333 1196.33 686.5 1206.25 686.5C1216.17 686.5 1248.25 687.25 1259 686.5C1269.67 685.75 1288.83 685.75 1292.67 683.417C1296.5 681.083 1297.25 676.5 1287.33 669.667C1277.42 662.75 1279.67 666.583 1256 659C1232.33 651.333 1201.75 647.5 1191 638.333C1180.33 629.167 1161.17 616.917 1155.08 613.083C1149 609.25 1139 607 1138.25 613.083C1137.5 619.167 1133.67 633.75 1134.42 637.583C1135.17 641.5 1126 646.083 1126 646.083Z" fill="#CFD0D0"/>
</g>
<mask id="mask47_2002_4333" style="mask-type:luminance" maskUnits="userSpaceOnUse" x="0" y="0" width="1600" height="900">
<path d="M1600 0H0V900H1600V0Z" fill="white"/>
</mask>
<g mask="url(#mask47_2002_4333)">
<path d="M994.75 834.5C991.916 837.917 983.833 855.75 983.25 862.583C982.666 869.416 982.666 881.916 989 893.5C995.333 905.166 997.583 921.583 997.583 921.583H1045.17C1045.17 921.583 1035.42 903.25 1029.67 898.083C1023.92 892.916 1022.58 886.083 1014.08 878C1005.58 870 999.833 866.5 999.833 860.25C999.833 854 999.25 852.25 1001 848.25C1002.75 844.25 999.833 838.5 999.25 834.5C998.666 830.5 1005.58 820.167 1005.58 820.167L994.75 834.5Z" fill="#32587E"/>
</g>
<mask id="mask48_2002_4333" style="mask-type:luminance" maskUnits="userSpaceOnUse" x="0" y="0" width="1600" height="900">
<path d="M1600 0H0V900H1600V0Z" fill="white"/>
</mask>
<g mask="url(#mask48_2002_4333)">
<path d="M1067 849C1066 855.667 1054.42 874 1050.42 879.75C1046.42 885.5 1041.42 891.833 1043.75 898.667C1046.08 905.5 1054.08 925 1054.08 925C1054.08 925 1079.67 929.583 1082.5 932.417C1085.33 935.25 1092.25 908.25 1089.33 906.667C1086.5 905.083 1075.58 898.583 1072.17 896.917C1068.75 895.167 1051 882 1070.92 860C1073.83 856.833 1073.33 852.083 1073.33 849.167C1073.33 846.333 1067.25 827 1067.25 827C1067.25 827 1067.67 844.083 1067 849Z" fill="#32587E"/>
</g>
<mask id="mask49_2002_4333" style="mask-type:luminance" maskUnits="userSpaceOnUse" x="0" y="0" width="1600" height="900">
<path d="M1600 0H0V900H1600V0Z" fill="white"/>
</mask>
<g mask="url(#mask49_2002_4333)">
<path d="M1119.67 828.167C1119.67 828.167 1109.25 840.417 1109.83 850.167C1110.42 859.917 1112.25 864.5 1119.67 874.75C1127.08 885 1132.25 891.583 1131.17 900C1130 908.417 1129.42 917.583 1128.83 919.917C1128.25 922.25 1144.33 914.417 1144.33 914.417C1144.33 914.417 1146.58 898.667 1141.5 894.083C1136.42 889.5 1130.5 882.083 1128 876.917C1125.5 871.75 1123.17 861.417 1122.58 856.25C1122 851.083 1114.75 852.083 1114.92 847.667C1115.58 832.667 1119.67 828.167 1119.67 828.167Z" fill="#032155"/>
</g>
<mask id="mask50_2002_4333" style="mask-type:luminance" maskUnits="userSpaceOnUse" x="0" y="0" width="1600" height="900">
<path d="M1600 0H0V900H1600V0Z" fill="white"/>
</mask>
<g mask="url(#mask50_2002_4333)">
<path d="M1132.67 836.75C1132.67 836.75 1125.25 852 1125.33 855.583C1125.42 860.75 1127.58 863.417 1134.5 874C1141.42 884.583 1142.92 886.167 1145.75 905.667C1148.58 925.167 1149.92 935.333 1150.5 938.75C1151.08 942.167 1158.5 912.75 1156.83 905.667C1155.08 898.583 1151.67 894.333 1148.83 887.833C1146 881.417 1141.42 875.667 1139.08 871.333C1136.75 867 1129.58 862.583 1129.58 857.417C1129.58 852.333 1132.67 836.75 1132.67 836.75Z" fill="#4175AA"/>
</g>
<mask id="mask51_2002_4333" style="mask-type:luminance" maskUnits="userSpaceOnUse" x="0" y="0" width="1600" height="900">
<path d="M1600 0H0V900H1600V0Z" fill="white"/>
</mask>
<g mask="url(#mask51_2002_4333)">
<path d="M1161.5 849.25C1164.92 856.166 1178.67 861.25 1177.5 872.083C1176.33 882.833 1164.42 893.416 1174.67 903.166C1185 912.916 1224.5 917.666 1225.67 917.5C1226.83 917.333 1237.17 911.75 1233.67 910.583C1230.25 909.416 1225.67 887.666 1221.67 879.666C1217.67 871.666 1213.67 861.916 1214.75 854.416C1215.92 847 1225.67 838.916 1225.67 838.916C1225.67 838.916 1216.5 835.5 1213.08 841.75C1209.67 848.083 1206.42 852.25 1203.92 860.083C1202.83 863.583 1192.42 882.833 1189.58 880.5C1186.75 878.166 1185.58 860 1179.25 852.583C1177 850.083 1161.5 849.25 1161.5 849.25Z" fill="#32587E"/>
</g>
<mask id="mask52_2002_4333" style="mask-type:luminance" maskUnits="userSpaceOnUse" x="0" y="0" width="1600" height="900">
<path d="M1600 0H0V900H1600V0Z" fill="white"/>
</mask>
<g mask="url(#mask52_2002_4333)">
<path d="M803.5 884.75C806.917 886.5 819 902.667 820.667 908C822.333 913.333 828.667 922 837.833 923.667C847 925.417 865.917 920.25 861.333 915.667C856.75 911.083 832.75 888.75 832.75 888.75C832.75 888.75 828.667 885.917 826.417 884.75C824.083 883.583 803.5 884.75 803.5 884.75Z" fill="#32587E"/>
</g>
<mask id="mask53_2002_4333" style="mask-type:luminance" maskUnits="userSpaceOnUse" x="0" y="0" width="1600" height="900">
<path d="M1600 0H0V900H1600V0Z" fill="white"/>
</mask>
<g mask="url(#mask53_2002_4333)">
<path d="M882.501 884.5C883.667 893.5 891.667 917.25 894.001 914.75C896.334 912.167 893.417 906.5 898.584 899.75C903.751 893 911.751 886.25 914.084 887.334C916.417 888.417 919.834 878.917 920.417 877.084C921.001 875.25 924.334 868.833 924.334 868.833C924.334 868.833 906.501 872.083 900.417 873C894.917 873.833 877.584 875.167 877.584 875.167L882.501 884.5Z" fill="#4175AA"/>
</g>
<mask id="mask54_2002_4333" style="mask-type:luminance" maskUnits="userSpaceOnUse" x="0" y="0" width="1600" height="900">
<path d="M1600 0H0V900H1600V0Z" fill="white"/>
</mask>
<g mask="url(#mask54_2002_4333)">
<path d="M679.584 868.333C681.917 871 694.417 880.5 693.251 886.667C692.084 892.917 691.834 904.75 693.417 912.25C695.084 919.667 705.417 932.75 707.667 936C710.001 939.25 719.667 921.833 716.251 913.333C712.834 904.833 711.667 900.167 720.251 897.583C728.834 895 719.251 890.417 718.667 886.833C718.084 883.25 734.334 870.25 734.334 870.25C734.334 870.25 718.001 874.917 713.834 877.5C708.001 881.083 708.834 904.417 708.834 904.417C708.834 904.417 699.251 896.5 698.667 892.917C698.084 889.333 698.501 883.667 698.001 879.417C697.584 875.167 694.667 875.583 690.251 873.5C687.417 872.167 679.584 868.333 679.584 868.333Z" fill="#032155"/>
</g>
<mask id="mask55_2002_4333" style="mask-type:luminance" maskUnits="userSpaceOnUse" x="0" y="0" width="1600" height="900">
<path d="M1600 0H0V900H1600V0Z" fill="white"/>
</mask>
<g mask="url(#mask55_2002_4333)">
<path d="M1203.5 757.333C1205.17 760.583 1224.33 757.416 1226.58 762.166C1228.83 766.916 1225.67 785.583 1225.67 785.583C1225.67 785.583 1234.08 765.333 1234.67 761.916C1235.25 758.5 1227.08 752.917 1227.08 752.917L1203.5 757.333Z" fill="#115875"/>
</g>
<mask id="mask56_2002_4333" style="mask-type:luminance" maskUnits="userSpaceOnUse" x="0" y="0" width="1600" height="900">
<path d="M1600 0H0V900H1600V0Z" fill="white"/>
</mask>
<g mask="url(#mask56_2002_4333)">
<path d="M1199.33 758.083C1200.5 758.583 1214.75 761.75 1217.5 768.5C1220.08 774.917 1210.92 784.417 1210.92 784.417L1220.25 786.25C1220.25 786.25 1226.58 764.333 1226.5 761.25C1226.5 758.167 1216.5 761.417 1216.5 756.25C1216.42 755.583 1203.5 756.167 1199.33 758.083Z" fill="#115875"/>
</g>
<mask id="mask57_2002_4333" style="mask-type:luminance" maskUnits="userSpaceOnUse" x="0" y="0" width="1600" height="900">
<path d="M1600 0H0V900H1600V0Z" fill="white"/>
</mask>
<g mask="url(#mask57_2002_4333)">
<path d="M1344.42 827.583C1337.83 836.917 1325.42 843.583 1325.92 870.5C1326.5 897.417 1329.67 897.833 1335.33 911C1341.08 924.167 1346.83 939.083 1346.83 935.333C1346.83 931.583 1369.5 917.583 1369.5 908.417C1369.5 899.25 1358.83 884.833 1360.58 876.667C1362.33 868.5 1369.17 811.25 1369.17 806.583C1369.17 801.917 1370.33 786.167 1367.5 779.333C1364.67 772.417 1347.42 737.833 1347.42 737.833C1347.42 737.833 1372.92 787.333 1344.42 827.583Z" fill="#115875"/>
</g>
<mask id="mask58_2002_4333" style="mask-type:luminance" maskUnits="userSpaceOnUse" x="0" y="0" width="1600" height="900">
<path d="M1600 0H0V900H1600V0Z" fill="white"/>
</mask>
<g mask="url(#mask58_2002_4333)">
<path d="M1339.08 744.5C1341.17 755.333 1346 779.083 1341.42 787.083C1336.83 795.083 1298.58 840.75 1300.33 862C1302.08 883.25 1310.08 895.083 1314.67 904.917C1319.25 914.75 1325.58 916.5 1325.58 916.5C1325.58 916.5 1325 911.167 1323.83 904.917C1322.67 898.667 1313.58 866 1317.08 850.333C1319.58 838.917 1336.42 808.667 1343.33 801.833C1350.25 794.917 1350.33 775.417 1348.58 765.5C1346.83 755.5 1332.42 724.5 1332.42 724.5C1332.42 724.5 1338.17 739.667 1339.08 744.5Z" fill="#00425C"/>
</g>
<mask id="mask59_2002_4333" style="mask-type:luminance" maskUnits="userSpaceOnUse" x="0" y="0" width="1600" height="900">
<path d="M1600 0H0V900H1600V0Z" fill="white"/>
</mask>
<g mask="url(#mask59_2002_4333)">
<path d="M1419.75 774C1422.58 776.25 1430.08 764.417 1434.08 779.333C1438.08 794.25 1426.08 818.917 1425.17 822.917C1424.33 826.917 1421.42 845.75 1419.75 864.917C1418 884.083 1402.58 892.667 1397.42 902.5C1392.25 912.333 1376.75 930.667 1372.75 927.833C1368.75 925 1367.58 912.75 1369.33 902.5C1371.08 892.25 1368.08 885.667 1374.42 876.917C1380.75 868.167 1398 856.75 1401.75 845.25C1405.5 833.75 1409.5 820 1412.92 814.833C1416.33 809.667 1418.67 809.083 1417.5 801.667C1416.33 794.25 1406 787.5 1405.5 782.917C1404.75 776.333 1417.5 760.333 1418.58 758.917C1419.75 757.583 1423.75 746.083 1423.75 743.25C1423.75 740.417 1419.75 733.5 1419.75 733.5H1447.25C1447.25 733.5 1445.5 735.25 1439.25 742.667C1433 750.083 1414.17 769.5 1419.75 774Z" fill="#004B6A"/>
</g>
<mask id="mask60_2002_4333" style="mask-type:luminance" maskUnits="userSpaceOnUse" x="0" y="0" width="1600" height="900">
<path d="M1600 0H0V900H1600V0Z" fill="white"/>
</mask>
<g mask="url(#mask60_2002_4333)">
<path d="M1457.92 841.917C1453.33 845.333 1442.42 854.5 1444.75 865.667C1447.08 876.833 1452.17 889.083 1447.58 897.583C1443 906.083 1440.67 904.167 1437.25 912.583C1433.83 921 1454.42 915.083 1455.58 912.583C1456.75 910.083 1459.58 893.917 1457.92 889.167C1456.17 884.333 1450.5 874.583 1450.08 866.667C1449.42 855.5 1457.92 841.75 1457.92 841.917Z" fill="#115875"/>
</g>
<mask id="mask61_2002_4333" style="mask-type:luminance" maskUnits="userSpaceOnUse" x="0" y="0" width="1600" height="900">
<path d="M1600 0H0V900H1600V0Z" fill="white"/>
</mask>
<g mask="url(#mask61_2002_4333)">
<path d="M1495.67 763.917C1495.67 763.917 1483.75 773.667 1488.83 792.083C1494 810.417 1498.58 832.25 1502.58 841.917C1506.58 851.667 1512.92 864.416 1509.5 882.166C1506.08 900 1504.33 912.667 1501.5 920.25C1498.67 927.833 1535.67 912.167 1538 904.833C1540.33 897.5 1542.58 883.75 1541.08 874.167C1539.58 864.583 1535.75 853.166 1530.42 845.5C1525.08 837.833 1516.08 822.583 1514.83 814.917C1513.58 807.25 1518.33 795.667 1514.83 786.583C1511.33 777.5 1508.25 765.667 1512.08 761.25C1515.92 756.833 1519 751.5 1519.75 746.083C1520.5 740.666 1518.42 732.333 1514.83 730.833C1511.33 729.333 1502.17 730.833 1502.17 730.833C1502.17 730.833 1511.42 740.666 1511.17 744.833C1510.75 751.083 1495.67 763.917 1495.67 763.917Z" fill="#115875"/>
</g>
<mask id="mask62_2002_4333" style="mask-type:luminance" maskUnits="userSpaceOnUse" x="0" y="0" width="1600" height="900">
<path d="M1600 0H0V900H1600V0Z" fill="white"/>
</mask>
<g mask="url(#mask62_2002_4333)">
<path d="M1532.75 800C1533.92 802.833 1536.5 807.917 1539.42 815C1542.33 822.083 1545.67 831.25 1548.25 842.417C1553.42 864.75 1552.67 877.167 1546.42 893.75C1540.17 910.333 1543.67 913.417 1547.08 912.917C1550.5 912.417 1557.42 914.083 1560.25 906.667C1563.08 899.25 1563.67 879.083 1564.83 875.417C1566 871.75 1567.17 863.667 1564.83 856.5C1562.5 849.333 1556.83 834.25 1555.08 832.917C1553.33 831.583 1532.75 800 1532.75 800Z" fill="#004B6A"/>
</g>
<mask id="mask63_2002_4333" style="mask-type:luminance" maskUnits="userSpaceOnUse" x="0" y="0" width="1600" height="900">
<path d="M1600 0H0V900H1600V0Z" fill="white"/>
</mask>
<g mask="url(#mask63_2002_4333)">
<path d="M1604.08 607.25L1597.42 607.833C1597.42 607.833 1591.67 614.917 1590.92 617.75C1589.08 625 1595.5 643 1590.92 655C1586.33 667 1583.5 678.5 1585.75 695.167C1588.08 711.75 1595.17 736.917 1589 746.083C1582.83 755.333 1578.5 762 1577.17 768.083C1576.08 772.833 1576.58 787.75 1576.58 787.75C1576.58 787.75 1579.58 796.083 1580.25 797.833C1582.75 804.417 1585.08 817 1585 829.25L1584.25 839L1577 891.333L1570.5 907.417L1606.42 904.75L1604.08 607.25Z" fill="#97BFDE"/>
</g>
<mask id="mask64_2002_4333" style="mask-type:luminance" maskUnits="userSpaceOnUse" x="0" y="0" width="1600" height="900">
<path d="M1600 0H0V900H1600V0Z" fill="white"/>
</mask>
<g mask="url(#mask64_2002_4333)">
<path d="M1576.33 732.5C1575.5 733.417 1574.58 734.25 1573.75 735.25C1572.08 737.083 1570.08 739.5 1568.25 741C1566.5 751.417 1563.75 758.583 1563.75 758.583C1563.75 758.583 1566.08 761.833 1569.08 758.583C1572.08 755.333 1577.75 736.5 1579.58 728.25C1578.58 729.583 1577.5 731.417 1576.33 732.5Z" fill="#4B96B4"/>
</g>
<mask id="mask65_2002_4333" style="mask-type:luminance" maskUnits="userSpaceOnUse" x="0" y="0" width="1600" height="900">
<path d="M1600 0H0V900H1600V0Z" fill="white"/>
</mask>
<g mask="url(#mask65_2002_4333)">
<path d="M1573.08 699.583C1574.75 701.333 1576.33 702.667 1578.08 704.333C1579.58 705.833 1581.25 707.667 1582.5 709.333C1582.67 704.083 1582.75 698.167 1582.25 693.083C1581.08 681.083 1584.58 669 1582.25 661.583C1580.33 655.417 1578.5 636.5 1578.17 625.5C1578.08 623.167 1578.08 621.167 1578.25 619.75C1578.25 619.75 1572.75 637.333 1573.75 641.5C1574.75 645.667 1571.75 649.167 1571.67 657C1571.58 664.833 1572.5 664.417 1569.83 675.333C1567.5 684.75 1570.42 690.083 1571.17 697.833C1571.75 698.417 1572.5 699 1573.08 699.583Z" fill="#4B96B4"/>
</g>
<mask id="mask66_2002_4333" style="mask-type:luminance" maskUnits="userSpaceOnUse" x="0" y="0" width="1600" height="900">
<path d="M1600 0H0V900H1600V0Z" fill="white"/>
</mask>
<g mask="url(#mask66_2002_4333)">
<path d="M1487.75 617.333C1482.33 621.917 1479.5 624.25 1482.92 636.25C1486.33 648.25 1489.25 646.583 1490.33 655.75C1491.5 664.917 1490.83 659.583 1490.83 659.583L1510.92 664.75C1510.92 664.75 1511 663.25 1505.83 655.75C1500.67 648.333 1502.42 636.25 1504.08 631.083C1505.83 625.917 1512.25 617.333 1514.5 614.5C1516.67 611.667 1517 609.25 1517 609.25L1487.83 610.833L1487.75 617.333Z" fill="#97BFDE"/>
</g>
<mask id="mask67_2002_4333" style="mask-type:luminance" maskUnits="userSpaceOnUse" x="0" y="0" width="1600" height="900">
<path d="M1600 0H0V900H1600V0Z" fill="white"/>
</mask>
<g mask="url(#mask67_2002_4333)">
<path d="M1454.58 614.417C1449.58 615.417 1450 631.917 1454.58 636.25C1459.17 640.583 1456.83 651.833 1456.83 651.833L1467.08 654.75C1467.08 654.75 1470.42 656.167 1465.83 644.917C1461.25 633.75 1458.5 633.666 1459.42 629.666C1460.33 625.666 1461.58 621.25 1463.75 617.083C1465.92 612.917 1471.75 611.917 1471.75 611.917L1454.58 614.417Z" fill="#3B768C"/>
</g>
<mask id="mask68_2002_4333" style="mask-type:luminance" maskUnits="userSpaceOnUse" x="0" y="0" width="1600" height="900">
<path d="M1600 0H0V900H1600V0Z" fill="white"/>
</mask>
<g mask="url(#mask68_2002_4333)">
<path d="M1162.33 803.334C1159.5 805.084 1149.67 816 1155 814.5C1160.33 813 1172.92 822.5 1174.5 819.583C1175.92 817 1169.17 809.417 1185.33 810.334C1187.75 810.5 1177.33 802.333 1177.33 802.333C1177.33 802.333 1165.5 801.334 1162.33 803.334Z" fill="#C6C6CA"/>
</g>
<mask id="mask69_2002_4333" style="mask-type:luminance" maskUnits="userSpaceOnUse" x="0" y="0" width="1600" height="900">
<path d="M1600 0H0V900H1600V0Z" fill="white"/>
</mask>
<g mask="url(#mask69_2002_4333)">
<path d="M931.083 815.25C957.083 812.75 963.166 820.417 963.166 820.417C963.166 820.417 969.25 825.75 963.166 825.75C957.083 825.75 942.5 825 938.666 825.75C934.833 826.5 928.75 823.417 924.166 825.75C919.583 828.084 909.583 823.917 910.416 820.334C911.666 815.084 931.083 815.25 931.083 815.25Z" fill="#C6C6CA"/>
</g>
<mask id="mask70_2002_4333" style="mask-type:luminance" maskUnits="userSpaceOnUse" x="0" y="0" width="1600" height="900">
<path d="M1600 0H0V900H1600V0Z" fill="white"/>
</mask>
<g mask="url(#mask70_2002_4333)">
<path d="M971.083 806C968.416 806.583 962.083 808.083 965.916 809.25C969.749 810.417 971.833 811.583 972.999 811.333C974.166 811.167 977.416 806.167 978.749 808.667C980.083 811.167 982.749 808.667 982.749 808.667C982.749 808.667 983.666 807.5 981.583 806C979.416 804.5 971.083 806 971.083 806Z" fill="#C6C6CA"/>
</g>
</g>
<defs>
<linearGradient id="paint0_linear_2002_4333" x1="800" y1="900" x2="800" y2="0" gradientUnits="userSpaceOnUse">
<stop offset="0.00174064" stop-color="#007295"/>
<stop offset="0.0579802" stop-color="#127D9F"/>
<stop offset="0.2041" stop-color="#3B96B6"/>
<stop offset="0.354" stop-color="#5CABC9"/>
<stop offset="0.5064" stop-color="#77BBD8"/>
<stop offset="0.6624" stop-color="#89C6E3"/>
<stop offset="0.8239" stop-color="#94CDE9"/>
<stop offset="1" stop-color="#6BAFDC"/>
</linearGradient>
<linearGradient id="paint1_linear_2002_4333" x1="570.536" y1="858.725" x2="1300.8" y2="858.725" gradientUnits="userSpaceOnUse">
<stop stop-color="#22678B"/>
<stop offset="0.3774" stop-color="#214F6F"/>
<stop offset="0.7521" stop-color="#203D5B"/>
<stop offset="1" stop-color="#203753"/>
</linearGradient>
<linearGradient id="paint2_linear_2002_4333" x1="1497.42" y1="948.149" x2="1327.27" y2="653.451" gradientUnits="userSpaceOnUse">
<stop offset="0.144" stop-color="#22678B"/>
<stop offset="0.5007" stop-color="#24698D"/>
<stop offset="0.6549" stop-color="#2A6F94"/>
<stop offset="0.7701" stop-color="#367AA1"/>
<stop offset="0.8659" stop-color="#468AB3"/>
<stop offset="0.9487" stop-color="#5A9FC9"/>
<stop offset="1" stop-color="#6BAFDC"/>
</linearGradient>
<linearGradient id="paint3_linear_2002_4333" x1="1428.63" y1="756.141" x2="1606.4" y2="756.141" gradientUnits="userSpaceOnUse">
<stop stop-color="#47839B"/>
<stop offset="0.2172" stop-color="#5492B2"/>
<stop offset="0.5024" stop-color="#61A2C9"/>
<stop offset="0.7699" stop-color="#68ACD7"/>
<stop offset="1" stop-color="#6BAFDC"/>
</linearGradient>
<clipPath id="clip0_2002_4333">
<rect width="1600" height="900" fill="white"/>
</clipPath>
</defs>
</svg>
