<?xml version="1.0" encoding="utf-8"?>
<!-- Generator: Adobe Illustrator 28.0.0, SVG Export Plug-In . SVG Version: 6.00 Build 0)  -->
<svg version="1.1" id="ice_background" xmlns="http://www.w3.org/2000/svg" xmlns:xlink="http://www.w3.org/1999/xlink" x="0px"
	 y="0px" viewBox="0 0 1290 2796" style="enable-background:new 0 0 1290 2796;" xml:space="preserve">
<style type="text/css">
	
		.st0{clip-path:url(#SVGID_00000016039439649640901720000004483621323101386425_);fill:url(#SVGID_00000018219529180857193080000016041833627104076446_);}
	.st1{clip-path:url(#SVGID_00000016039439649640901720000004483621323101386425_);fill:#CCDFEE;}
	.st2{clip-path:url(#SVGID_00000016039439649640901720000004483621323101386425_);fill:#E6ECEF;}
	
		.st3{clip-path:url(#SVGID_00000016039439649640901720000004483621323101386425_);fill:#D7DEE2;stroke:#000000;stroke-width:4;stroke-miterlimit:10;}
	.st4{clip-path:url(#SVGID_00000016039439649640901720000004483621323101386425_);fill:#9C9B9C;}
	
		.st5{clip-path:url(#SVGID_00000016039439649640901720000004483621323101386425_);fill:#E1E0E2;stroke:#000000;stroke-width:4;stroke-miterlimit:10;}
	.st6{clip-path:url(#SVGID_00000016039439649640901720000004483621323101386425_);fill:#C6C6CA;}
	.st7{clip-path:url(#SVGID_00000016039439649640901720000004483621323101386425_);fill:#9FA0A3;}
	.st8{clip-path:url(#SVGID_00000016039439649640901720000004483621323101386425_);}
	.st9{clip-path:url(#SVGID_00000016039439649640901720000004483621323101386425_);fill:#E1E0E2;}
	.st10{clip-path:url(#SVGID_00000016039439649640901720000004483621323101386425_);fill:#D8D8D8;}
	.st11{clip-path:url(#SVGID_00000016039439649640901720000004483621323101386425_);fill:#181817;}
	
		.st12{clip-path:url(#SVGID_00000016039439649640901720000004483621323101386425_);fill:url(#SVGID_00000034795640753674052720000004620072504968319896_);stroke:#000000;stroke-width:5;stroke-miterlimit:10;}
	.st13{opacity:0.67;clip-path:url(#SVGID_00000016039439649640901720000004483621323101386425_);fill:#4175AA;}
	.st14{clip-path:url(#SVGID_00000016039439649640901720000004483621323101386425_);fill:#476C8C;}
	
		.st15{clip-path:url(#SVGID_00000016039439649640901720000004483621323101386425_);fill:url(#SVGID_00000088848885911706635150000002059801073013083824_);stroke:#000000;stroke-width:4;stroke-miterlimit:10;}
	.st16{clip-path:url(#SVGID_00000016039439649640901720000004483621323101386425_);fill:#9EBAD6;}
	
		.st17{clip-path:url(#SVGID_00000016039439649640901720000004483621323101386425_);fill:url(#SVGID_00000154415824198770830250000016572743151161959560_);stroke:#000000;stroke-width:3;stroke-miterlimit:10;}
	.st18{fill:#8BB4D4;}
	.st19{clip-path:url(#SVGID_00000016039439649640901720000004483621323101386425_);fill:#00425C;}
	.st20{fill:#4175AA;}
	.st21{clip-path:url(#SVGID_00000016039439649640901720000004483621323101386425_);fill:#032155;}
	.st22{fill:#B1CCE4;}
	.st23{clip-path:url(#SVGID_00000016039439649640901720000004483621323101386425_);fill:#4B96B4;}
	.st24{fill:#032155;}
	.st25{clip-path:url(#SVGID_00000016039439649640901720000004483621323101386425_);fill:#CFD0D0;}
	.st26{fill:#32587E;}
	.st27{clip-path:url(#SVGID_00000016039439649640901720000004483621323101386425_);fill:#115875;}
	.st28{clip-path:url(#SVGID_00000016039439649640901720000004483621323101386425_);fill:#004B6A;}
	.st29{clip-path:url(#SVGID_00000016039439649640901720000004483621323101386425_);fill:#97BFDE;}
	.st30{clip-path:url(#SVGID_00000016039439649640901720000004483621323101386425_);fill:#3B768C;}
</style>
<g>
	<defs>
		<rect id="SVGID_1_" x="0" y="-3.8" width="1290" height="2801.4"/>
	</defs>
	<clipPath id="SVGID_00000033330568869752495820000007050331815197714577_">
		<use xlink:href="#SVGID_1_"  style="overflow:visible;"/>
	</clipPath>
	
		<linearGradient id="SVGID_00000019674916900559000260000016512042897281559702_" gradientUnits="userSpaceOnUse" x1="645" y1="2797.5679" x2="645" y2="-3.8376">
		<stop  offset="1.740642e-03" style="stop-color:#007295"/>
		<stop  offset="5.798023e-02" style="stop-color:#127D9F"/>
		<stop  offset="0.2041" style="stop-color:#3B96B6"/>
		<stop  offset="0.354" style="stop-color:#5CABC9"/>
		<stop  offset="0.5064" style="stop-color:#77BBD8"/>
		<stop  offset="0.6624" style="stop-color:#89C6E3"/>
		<stop  offset="0.8239" style="stop-color:#94CDE9"/>
		<stop  offset="1" style="stop-color:#98CFEB"/>
		<stop  offset="1" style="stop-color:#95CDEA"/>
		<stop  offset="1" style="stop-color:#7EBCE2"/>
		<stop  offset="1" style="stop-color:#70B2DE"/>
		<stop  offset="1" style="stop-color:#6BAFDC"/>
		<stop  offset="1" style="stop-color:#6AADDA"/>
		<stop  offset="1" style="stop-color:#65A6D3"/>
		<stop  offset="1" style="stop-color:#5E9BC6"/>
		<stop  offset="1" style="stop-color:#548AB4"/>
		<stop  offset="1" style="stop-color:#46759D"/>
		<stop  offset="1" style="stop-color:#355B81"/>
		<stop  offset="1" style="stop-color:#2B4B70"/>
		<stop  offset="1" style="stop-color:#6BAFDC"/>
	</linearGradient>
	
		<rect x="0" y="-3.8" style="clip-path:url(#SVGID_00000033330568869752495820000007050331815197714577_);fill:url(#SVGID_00000019674916900559000260000016512042897281559702_);" width="1290" height="2801.4"/>
	<path style="clip-path:url(#SVGID_00000033330568869752495820000007050331815197714577_);fill:#CCDFEE;" d="M0,492.4
		c0,0,394.4,114.1,444.6,228.6c17.6,40.1-58.2,133.8-35.7,171.4c46.5,77.9,332.2-46.8,360.7,39.3
		c53.3,160.9-592.3,166.2-589.3,335.7c1.3,74.3,280.5,2.4,317.5,75.1c6.5,12.7-22.6,44-14,55.5c21.5,28.5,108.6,46.4,142.4,32.6
		c55-22.5,98,36.9,103.2,69.7c5.2,32.8,23.4,177.5,23.4,177.5l127.5,21.8c0,0,39.4-134.4,58.2-174.5
		c22.5-48.2,149.8-149.2,170.6-198.1c11.9-27.9-82.7-105.3-105.9-165.1c-33.5-86.5,294.4-83.9,294.4-83.9l-7.6-485.5
		c0,0-105.9-81.1-106.1-121.4c-0.3-41,106.1-125,106.1-125V88.9L1112.4,0H0V492.4z"/>
	<path style="clip-path:url(#SVGID_00000033330568869752495820000007050331815197714577_);fill:#E6ECEF;" d="M1167.4,618
		c-48.6-36.3-199.2-71.6-203.6-132.1c-6.5-89.4,181.6-159.6,170.6-315.5c-4.4-63-154.1-158.9-172.4-170.4H0v152
		c0,0,403.4,34.8,532.7,71.5c91.8,26.1,341,64.3,346.7,159.6c6.8,112.2-382.9,143.2-370.5,255c8.2,74.1,223.4,22.5,295.3,42.2
		c35.5,9.7,86.2,70,119.2,86.2c48.4,23.8,166.3,7.5,212.8,34.9c17.4,10.2,72,37.9,44,67.9c-126.6,135.7-544.4,129.1-544.8,282.5
		c-0.2,75,253.6,31.7,282.5,100.9c15.3,36.6-105,88.1-95.4,126.6c3.4,13.6,46.4,5.4,53.2,17.6c22.4,40.3-108.7,128.8-117.4,182.3
		c-3.8,23.5,36.1,81.5,36.7,88.1c0.9,9.5,4.9,17,10.9,22.9l74.4,9.5c0,0,9.8-134.9,28.6-175c11.9-25.4,44.3-55.2,75.3-84.8
		c7.4-25.7,12.9-47.9,14.9-63.3c2.2-16.6-22-28.9-50.9-24.8c-141.6,20.2,57.6-105.6,64.7-137.6c8.3-37.3-74.5-61.4-108.7-88.1
		c-65-50.6,246-49.8,323.8-77c17.7-6.2,62.1-42.2,62.1-42.2v-222C1290,784.9,1208.9,648.9,1167.4,618z"/>
	
		<path style="clip-path:url(#SVGID_00000033330568869752495820000007050331815197714577_);fill:#D7DEE2;stroke:#000000;stroke-width:4;stroke-miterlimit:10;" d="
		M299.7,1601.2c29.4-18.3,82.5-64.2,115.6-64.2c35.5,0,113.7,60.5,126.6,64.2c12.8,3.7,163.3,34.9,170.6,42.2
		c7.3,7.3,124.7,62.4,128.4,71.5c3.7,9.2,38.5,75.2,38.5,75.2s-480.6,33-491.6,18.3S299.7,1601.2,299.7,1601.2z"/>
	<path style="clip-path:url(#SVGID_00000033330568869752495820000007050331815197714577_);fill:#9C9B9C;" d="M839.9,1716.8
		c-3.7-9.2-121.1-64.2-128.4-71.5c-7.3-7.3-157.8-38.5-170.6-42.2c-10.2-2.9-61.4-41.5-99.9-57.4c6.9,18,22.5,62.5,41.2,70.2
		c22,9.2,67.9,47.8,75.2,60.6c7.3,12.8,31.2,44,45.9,55c14.7,11,110,25.7,150.4,45.9c21.6,10.8,76,12.7,123.5,12.4
		C871,1777.9,843.2,1724.9,839.9,1716.8z"/>
	
		<path style="clip-path:url(#SVGID_00000033330568869752495820000007050331815197714577_);fill:#D7DEE2;stroke:#000000;stroke-width:4;stroke-miterlimit:10;" d="
		M1315,1122.2c0,9-155.5,159.1-155.5,159.1s0,35.1-1.9,47c-5.5,34.1-50.9,77.5-68.2,103.1c-25.2,37.2-46.1,131.9-78.9,162.1
		c-41.1,37.9-159.7,46.5-210.4,69.1c-31.8,14.2-111,85.3-111,85.3s137.3,37.8,146.1,40.8c8.8,3,207.5,33,207.5,33l189.9,27l82.5,18
		V1122.2z"/>
	
		<path style="clip-path:url(#SVGID_00000033330568869752495820000007050331815197714577_);fill:#D7DEE2;stroke:#000000;stroke-width:4;stroke-miterlimit:10;" d="
		M-21.2,1307.9c12.3-2,116.7-30,116.7,0c0,65.5,13.5,95.7,23.2,108.4c9.7,12.7,110.2,78.2,119.8,90.1c9.7,11.9,98.6,51.6,96.6,87.3
		c-1.9,35.7,23.2,63.5,46.4,79.4s110.2,64,121.8,70.7c11.6,6.7,32.9,30.5,32.9,30.5s-365.3,43.7-376.9,59.5s-180.5,99.2-180.5,99.2
		v-578.6V1307.9z"/>
	<path style="clip-path:url(#SVGID_00000033330568869752495820000007050331815197714577_);fill:#9C9B9C;" d="M525,1766.2
		c-0.4-0.4-0.8-0.8-1.2-1.2c-1.6-1.6-3.3-3.3-5.1-5.1c-0.4-0.4-0.9-0.9-1.3-1.3c-0.9-0.9-1.8-1.7-2.7-2.6c-5-4.7-10.1-9-14.1-11.3
		c-11.6-6.7-98.6-54.8-121.8-70.7c-15.9-10.9-32.8-27.5-41.2-48.3c-2.3-5.7-3.9-11.7-4.7-18c-0.1-1.1-0.3-2.1-0.3-3.2
		c-0.2-2.1-0.3-4.3-0.2-6.5c0-1.1,0-2.2,0.1-3.3c0-0.6,0-1.1,0-1.7c-0.2-9-5.9-18.1-14.5-27c-0.5-0.6-1.1-1.1-1.6-1.7
		c-3.3-3.3-7.1-6.6-11-9.8c-0.7-0.5-1.3-1.1-2-1.6c-6.1-4.8-12.6-9.4-19.2-13.7c-0.7-0.5-1.5-1-2.2-1.4
		c-21.1-13.9-41.8-25-46.1-30.3c-3.2-3.9-16.1-13.6-32.4-25.3c-1.6-1.1-3.1-2.2-4.7-3.4c-1.6-1.1-3.2-2.3-4.9-3.5
		c-1.7-1.2-3.3-2.4-5-3.6c-2.5-1.8-5.1-3.6-7.7-5.4c-12-8.5-24.3-17.1-34.9-24.9c-1.5-1.1-3-2.2-4.5-3.2c-2.9-2.1-5.6-4.2-8.2-6.1
		c-1.3-1-2.5-1.9-3.7-2.8c-0.6-0.4-1.2-0.9-1.7-1.3c-1.1-0.9-2.2-1.7-3.2-2.5c-4.4-3.6-7.6-6.4-9-8.2
		c-9.7-12.7-23.2-42.9-23.2-108.4c0-10.6-13-13.9-30.4-13.8l3.4,8.7c38.3,9.3-1.9,65.5-1.9,65.5l9.7,38.2c9.7,21.4-25.1,51.1,0,67
		c25.1,15.9,65.7,35.7,81.2,51.6c15.5,15.9,48.3,31.8,54.1,45.6c5.8,13.9,41.8,24.2,46,42.9c4.2,18.7,8.1,40.5-20.9,54.4
		s-48.3,15.9-52.2,29.8c-3.9,13.9-6.8,32.3-20.8,35c-14,2.7-64.3,44.4-70.1,58.3c-4.4,10.5-12.8,65.1-20.1,93.8c0,0,0,0,0,0
		c5.1-2.7,10.2-5.4,15.1-8c0,0,0,0,0,0c1.2-0.6,2.4-1.3,3.6-1.9c0.1,0,0.2-0.1,0.2-0.1c1.2-0.6,2.3-1.3,3.5-1.9
		c0.1,0,0.1-0.1,0.2-0.1c1.1-0.6,2.3-1.2,3.4-1.9c0.1,0,0.2-0.1,0.3-0.1c1.1-0.6,2.3-1.2,3.4-1.8c0.1,0,0.1-0.1,0.2-0.1
		c3.5-1.9,6.9-3.8,10.3-5.7c0,0,0.1,0,0.1-0.1c1.1-0.6,2.1-1.2,3.1-1.7c0.1-0.1,0.2-0.1,0.3-0.2c1-0.6,2-1.1,3-1.7
		c0.1-0.1,0.2-0.1,0.3-0.2c1-0.5,1.9-1.1,2.9-1.6c0.1-0.1,0.2-0.1,0.3-0.2c0.9-0.5,1.9-1.1,2.8-1.6c0.1-0.1,0.2-0.1,0.3-0.2
		c0.9-0.5,1.9-1.1,2.8-1.6c0,0,0.1-0.1,0.1-0.1c1.9-1.1,3.7-2.2,5.5-3.2c0,0,0.1,0,0.1-0.1c0.8-0.5,1.7-1,2.5-1.5
		c0.1,0,0.2-0.1,0.2-0.1c0.8-0.5,1.5-0.9,2.3-1.4c0.1-0.1,0.2-0.1,0.3-0.2c0.7-0.4,1.4-0.9,2.1-1.3c0.1-0.1,0.2-0.1,0.3-0.2
		c0.7-0.4,1.4-0.9,2-1.3c0.1-0.1,0.2-0.1,0.3-0.2c0.7-0.4,1.3-0.8,1.9-1.2c0.1,0,0.1-0.1,0.2-0.1c0.6-0.4,1.3-0.8,1.8-1.2
		c0,0,0.1,0,0.1-0.1c0.6-0.4,1.2-0.8,1.7-1.2c0,0,0,0,0.1,0c0.5-0.4,1.1-0.7,1.6-1.1c0.1,0,0.1-0.1,0.2-0.1c0.5-0.3,0.9-0.7,1.4-1
		c0.1,0,0.1-0.1,0.2-0.1c0.4-0.3,0.8-0.6,1.2-0.9c0.1,0,0.1-0.1,0.2-0.1c0.4-0.3,0.7-0.6,1-0.9c0,0,0.1-0.1,0.1-0.1
		c0.3-0.3,0.6-0.5,0.9-0.8c0,0,0.1-0.1,0.1-0.1c0.3-0.3,0.5-0.5,0.7-0.7c0,0,0,0,0.1-0.1c0.2-0.2,0.4-0.5,0.6-0.7
		c0.7-1,2.8-2.1,6.1-3.3c0.4-0.1,0.8-0.3,1.3-0.5c2.3-0.8,5-1.6,8.1-2.4c0.6-0.2,1.3-0.3,1.9-0.5c3.3-0.8,7-1.7,11.1-2.6
		c1.6-0.4,3.3-0.7,5.1-1.1c1.7-0.4,3.6-0.7,5.4-1.1c7.4-1.5,15.7-3,24.7-4.6c11.2-2,23.5-4,36.5-6.1c1.3-0.2,2.6-0.4,3.9-0.6
		c5.3-0.8,10.6-1.7,16.1-2.5c4.1-0.6,8.2-1.2,12.4-1.9c8.4-1.3,16.9-2.5,25.5-3.7c2.9-0.4,5.7-0.8,8.6-1.2c7.2-1,14.5-2.1,21.7-3.1
		c1.5-0.2,2.9-0.4,4.4-0.6c92.8-12.9,184.1-23.8,184.1-23.8C533.5,1775.2,529.9,1771.3,525,1766.2z"/>
	<path style="clip-path:url(#SVGID_00000033330568869752495820000007050331815197714577_);fill:#9C9B9C;" d="M1091.8,1432.6
		c-25.2,37.2-46.1,131.9-78.9,162.1c-41.1,37.9-159.7,46.5-210.4,69.1c-31.8,14.2-111,85.3-111,85.3s137.3,37.8,146.1,40.8
		c2.9,1,26.8,5,57.3,9.8c15.3-20.4,30.9-43,46.9-53.1c25.3-16,64.3-8,76-12.7c11.7-4.7,7.8-29.3,9.7-51.3c1.9-22,9.7-32,31.2-50
		c21.4-18,29.2,0,35.1-18.8c5.8-18.8,15.6-39.2,33.1-57.2c17.5-18,54.5-30,74-44c19.5-14-3.9-32-13.6-56c-9.7-24-11.7-32-5.8-52.8
		c5.8-20.8,3.9-47.3,1.9-61.3c-1.9-14-21.4-59.8-21.4-59.8s0,35.1-1.9,47C1154.5,1363.7,1109.1,1407,1091.8,1432.6z"/>
	
		<path style="clip-path:url(#SVGID_00000033330568869752495820000007050331815197714577_);fill:#E1E0E2;stroke:#000000;stroke-width:4;stroke-miterlimit:10;" d="
		M-205.4,2010.7c0,0,190.6-98.5,253.3-127.5c69-31.9,170.8-99.8,267.9-119.6c125.6-25.7,241-39.9,328.1-27.5
		c121.8,17.3,417.1,62.7,519.7,100.2c217.7,79.6,385.6,292.2,385.6,292.2l0.7,662.7L-204.8,2811L-205.4,2010.7z"/>
	<path style="clip-path:url(#SVGID_00000033330568869752495820000007050331815197714577_);fill:#C6C6CA;" d="M1248.4,2252.6
		c0.5,1.7-0.1,3.5-1.7,4.4c-9.9,5.5-21,36.2-12.3,43.9c9.6,8.4,16.7,32.1,15.2,34.9c-1.4,2.5-15.2-6.3-17.8-8.1
		c-0.3-0.2-0.6-0.4-1-0.5c-3.8-1.1-26.4-7.5-24.2,0.2c2.4,8.4,1.6,16.3-4,8.8c-5.6-7.4-32.4-18.9-32.7-7.4s11.1,32.6-10.4,22.4
		c-21.4-10.2-34.3-11.2-37.5-8.4s4.8,22.2-30.3,11.1c-35.1-11.1-41.5-2.7-62.2-15.3c-18.8-11.4-85.3,3.6-97.8,6.5
		c-1.3,0.3-2.3,1.3-2.7,2.6c-1.4,4.8-3.9,16.1,4.9,16.1c11.2,0,28.2,32.8,50.2,29.3c22.1-3.4,21.5,1.4,36.7,11.2
		c15.2,9.8,15.4,15.5,47.1,26.5s50.2,1.4,89.3,11.2c39.1,9.8,71.1,15.1,92.7,7c21.6-8.1,38.1-18.2,46.8-25.1s23.2-16.8,23.2-34.9
		s1.7-40.5,0-53.1c-1.7-12.6-4.9-27.9-11.3-43.3c-6.4-15.4-9.9-26.4-22.3-36.3c-12.4-9.9-15.9-23.8-24.7-25.1
		c-8.8-1.4-13.6-8.4-15.9,0C1243.9,2237,1246.6,2247.3,1248.4,2252.6z"/>
	<path style="clip-path:url(#SVGID_00000033330568869752495820000007050331815197714577_);fill:#C6C6CA;" d="M832.1,2501.5
		c-1.2,0.1-2.2,0.8-2.8,1.8c-6.3,10.5-14.5,32.1-0.6,34c14.7,2.1,29.3,4.9,34.1,10.5s7,5.4,8.2,16.8c1.6,15.4,4,22.4-6.4,15.4
		c-10.4-7-31.3-9.8-37.2-4.2c-5.9,5.6-1.9,20.2-4.3,25.1c-4.6,9.3-26.9,1.3-30,0.1c-0.2-0.1-0.4-0.2-0.7-0.3
		c-3-1.9-27-17.2-29.2-26.4c-2.4-9.8-38.3-12.6-60.6-18.2c-21-5.2-31.1-8.4-49.4-16.8c-10.8-4.9-38.6-6.7-42.3,25.1
		c-3.7,31.9-7.7,48.5-0.9,74c6.8,25.6,17-15.8,34.5,4c17.6,19.8,23,44.9,56.5,54.7s73.4,15.4,120.4,5.6s100.5-18.2,116.4-34.9
		c15.9-16.8,31.1-46.6,32.7-63.1c1.6-16.5,15.9-34.7,0-51.5s-17.5-47.5-31.9-51.7c-14.4-4.2-34.2-20.7-50.6-12.4
		C873.8,2496.5,840.2,2500.6,832.1,2501.5z"/>
	<path style="clip-path:url(#SVGID_00000033330568869752495820000007050331815197714577_);fill:#9FA0A3;" d="M413.1,2667.8
		c-2.2-1.8-24.9-41.8-31.8-47.5c-2.2-1.9-48.2-3.1-58.7,4.2c-10.5,7.3-7-23.1-7.6-28.3c-0.6-5.2-70.9,7.3-70.9,7.3
		s-46.4,18-57.9,6.1c-9.5-9.8-4.8-44.9-13.8-56.4c-0.3-0.4-0.9-0.8-1.6-1.1l20.5-51.3c0,0-31.5-16.8-32.7-16.8s-50.6-28.3-71.1-23.6
		c-11.2,2.6-46.1,0.8-46.1,0.8s-5.1-23.4-9-24.2c-5.7-1.2-57.2,9.8-39.6,7.4l2.3,10.5l35.9-0.2c0,0,2.5,13.7,4.6,16.1
		c8.9,9.8,31.4,0.5,41.8,0c17.8-0.8,67.5,22.7,67.5,22.7s24.1,8.5,24.5,20.4c0.4,10.9-11.3,27.9-19,37.7c-2.9,0.4-5,1-5.3,1.6
		c-1.2,2.1-39.3,15-43.5,17.1c-4.3,2.1-11.8,17.4-13.3,26.5s-58.5,34.6-61.6,37.4c-3.1,2.8-7.7-11.2-8.5-13.3
		c-0.8-2.1-22.6-9.2-22.6-9.2l-2.3,18.9c0,0,17.9-10.4,21,9.2c3.1,19.6,35.6-2.8,57.3-14c21.7-11.2,23.7-23.5,36.1-37.4
		c12.4-14,29-7.3,42.9-15.6c13.9-8.4,9.3,8.4,13.9,27.9c4.6,19.6-4.4,21.7,9.7,37.7c11.6,13.3,22.8,15.4,36.8,7
		c13.9-8.4,44.9-16.8,65.1-22.4c20.1-5.6,1.2,22.4,24.4,30.7c23.2,8.4,40.7,0,59.2,2.8c14.4,2.2,27.2,51.6,33.6,78.2l78.4,2.9
		l15.5-14.9C487.6,2722.8,424.2,2677.1,413.1,2667.8z"/>
	<path style="clip-path:url(#SVGID_00000033330568869752495820000007050331815197714577_);fill:#C6C6CA;" d="M419.3,2657.3
		c-2.2-1.8-24.9-41.8-31.8-47.5c-2.2-1.9-48.2-3.1-58.7,4.2c-10.5,7.3-7-23.1-7.6-28.3c-0.6-5.2-70.9,7.3-70.9,7.3
		s-46.4,18-57.9,6.1c-9.5-9.8-4.8-44.9-13.8-56.4c-0.3-0.4-0.9-0.8-1.6-1.1l20.5-51.3c0,0-31.5-16.8-32.7-16.8s-37.8-23.8-58.3-19.1
		c-11.2,2.6-58.9-3.7-58.9-3.7s-5.1-23.4-9-24.2c-5.7-1.2-57.2,9.8-39.6,7.4l2.3,10.5l35.9-0.2c0,0,2.5,13.7,4.6,16.1
		c8.9,9.8,31.4,0.5,41.8,0c17.8-0.8,67.5,22.7,67.5,22.7s24.1,8.5,24.5,20.4c0.4,10.9-11.3,27.9-19,37.7c-2.9,0.4-5,1-5.3,1.6
		c-1.2,2.1-47.2,18.2-51.5,20.3c-4.3,2.1-11.6,24.4-13.2,33.5s-50.7,24.4-53.8,27.2c-3.1,2.8-7.7-11.2-8.5-13.3
		c-0.8-2.1-22.6-9.2-22.6-9.2l-2.3,18.9c0,0,17.9-10.4,21,9.2c3.1,19.6,35.6-2.8,57.3-14c21.7-11.2,15.9-24.4,28.3-38.4
		s36.8-6.3,50.7-14.7c13.9-8.4,9.3,8.4,13.9,27.9c4.6,19.6-4.4,21.7,9.7,37.7c11.6,13.3,22.8,15.4,36.8,7
		c13.9-8.4,44.9-16.8,65.1-22.4c20.1-5.6,1.2,22.4,24.4,30.7s40.7,0,59.2,2.8c14.4,2.2,27.2,51.6,33.6,78.2l78.4,2.9l15.5-14.9
		C493.8,2712.3,430.4,2666.6,419.3,2657.3z"/>
	<path style="clip-path:url(#SVGID_00000033330568869752495820000007050331815197714577_);fill:#C6C6CA;" d="M229.2,1794.5
		c-67.9,28.8-132.7,69.1-181.3,91.5c-38,17.5-122.9,60.6-184,91.8l2.5,282.6c1.5,0.4,5.2,1.1,6.9,1.4c42.9,6.3,45.6-14.7,74.3-12.6
		c28.7,2.1,28.7,31.4,81.3,35.6c52.6,4.2,37.4-3.4,63.7-11.3c26.3-7.8,14.1,28.2,90.7,20.4c76.6-7.8,117.1,42.7,142.9,68.1
		c26.3,25.8,135.7,121.9,144.1,107.2c8.4-14.7-79.5-65.3-80.7-116.6c-0.9-40-41.3-23.8-55.7-30.1s4.8-14.7,28.7-37.7
		c23.9-23.1-35.9-27.2-45.5-25.1c-9.6,2.1-53.7-15.3-57.4-34.9c-3.6-19.6-22.8-31.2-43.1-41.7c-20.3-10.5-71.7-14.6-97.5-37.6
		c-25.8-23.1,32.8-47.5,50.8-58c17.9-10.5,187.9-70.9,167.5-115.7c-12.3-27-63.4-26.5-76.6-32.8c-10.5-5-78.4-9.4-91.5-26.2
		c-13.2-16.8,86.5-52.1,83.1-58.7c-10.2-19.9-41.9-2.1-53.8-22C195.7,1826.8,209.3,1812,229.2,1794.5z"/>
	<path style="clip-path:url(#SVGID_00000033330568869752495820000007050331815197714577_);fill:#C6C6CA;" d="M688.5,2009.8
		c25,3.2,32.9-13.4,46.7,0c10.8,10.5-47.1,49.8-36.4,56.9c10.7,7.1,42.4,5,66.4,2.9s69.4-3.1,95.7-38.8
		c26.3-35.6,46.4-24.3,63.4-54.5c17-30.1,19.8-66.7,44.6-82.6c24.8-15.9,45.9,6.4,55.5,6.4s16.9-7.2,16.9-7.2s180.9,37.3,190.4,36.2
		c3.4-0.4,13.4-21.6,24.3-50.4c-28.3-15.5-57.9-29.3-88.4-40.4c-64.2-23.4-203.7-50-329.1-70.8c-6.1,10.8-32.4,20.1-24.4,28.9
		c13.5,14.9,69.7,16.6,50.4,29c-35.9,23.1-112.1,23.6-85.4,34.9c26.7,11.2,52.9,23.1,53.1,31.5c0.2,8.4,13.2,17.5-4.8,37.4
		c-17.9,19.9-41.1,16.8-48.3,18.8c-7.2,2.1-55.8,4.5-87,19.9C662.2,1982.8,663.4,2006.6,688.5,2009.8z"/>
	<path style="clip-path:url(#SVGID_00000033330568869752495820000007050331815197714577_);" d="M1577.2,1929.7
		c0-3.3-204.5-73.3-204.5-73.3s-51.7-9.4-68.5-16.7c-16.2-7-62.8-40-62.8-40s-25.7-17.4-34.2-17.1c-24.9,0.9-75.2,21.4-98.9,37.1
		c-19.3,12.8-66.6,56.6-74.2,63.3s-29.9,19.7-39.4,16.4c-9.5-3.3,33.7,100.2,41.3,110.2c7.6,10,228.2,80,241.5,73.3
		c13.3-6.7,192.1-36.6,205.4-40c13.3-3.3,94.3-13.3,94.3-13.3V1929.7z"/>
	<path style="clip-path:url(#SVGID_00000033330568869752495820000007050331815197714577_);fill:#C6C6CA;" d="M1032.8,2426.8
		c-3.5,3.9-15.8,27.7-9.2,24.4c6.7-3.3,22.2,17.4,24.2,11c1.8-5.7-6.7-22.2,13.4-20.2c3,0.3-10-17.4-10-17.4
		S1036.7,2422.4,1032.8,2426.8z"/>
	<path style="clip-path:url(#SVGID_00000033330568869752495820000007050331815197714577_);fill:#C6C6CA;" d="M578.1,2515.1
		c0.2,0,0.5,0,0.7-0.1c32-5.3,39.5,11.2,39.5,11.2s7.6,11.7,0,11.7c-7.6,0-25.7-1.7-30.4,0s-12.4-5-18.1,0c-5.7,5-18.2-4-17.1-11.8
		C554.2,2515.6,575.1,2515.1,578.1,2515.1z"/>
	<path style="clip-path:url(#SVGID_00000033330568869752495820000007050331815197714577_);fill:#C6C6CA;" d="M866.8,2396.8
		c-0.1,0-0.2,0.1-0.3,0.1c-3.4,1.3-11,4.6-6.3,7c4.8,2.5,7.4,5,8.8,4.6c1.4-0.4,5.5-11.2,7.1-5.8c0.8,2.7,2.1,2.7,3.2,2
		c1.7-1.1,2.4-3.3,1.8-5.3c-0.2-0.8-0.7-1.6-1.4-2.6C877.3,2393.8,868.1,2396.4,866.8,2396.8z"/>
	<path style="clip-path:url(#SVGID_00000033330568869752495820000007050331815197714577_);fill:#E1E0E2;" d="M1577.2,1935.8
		c0-3.3-195.3-70.1-204.2-73.2c-0.2-0.1-0.4-0.1-0.6-0.2c-4.4-0.8-52.1-9.6-68.1-16.6c-16.2-7-62.8-40-62.8-40s-25.7-17.4-34.2-17.1
		c-24.9,0.9-75.2,21.4-98.9,37.1c-19.3,12.8-66.6,56.6-74.2,63.3s-28.5,16.7-38,13.3c-9.5-3.3,32.3,103.3,39.9,113.3
		s228.2,80,241.5,73.3c13.3-6.7,192.1-36.6,205.4-40c11.5-2.9,74-10.8,90.3-12.8c2.2-0.3,3.9-2.2,3.9-4.4V1935.8z"/>
	<path style="clip-path:url(#SVGID_00000033330568869752495820000007050331815197714577_);fill:#D8D8D8;" d="M1194.4,2041.4
		c-7-19.3-23.2-19.3-30.9-32.1c-7.7-12.8,8-1-14.4-39c-21-35.6-27.1-30.3-36.2-28.6c-9.1,1.7-7.4,0-16.7-9.7
		c-7.8-8.1,16-34.4,16.7-46.8c0.7-12.4-14.1-0.5-32.3,0c-12,0.3-10.4-9.4-6.4-21.2c1.5-4.4-3.9-7.9-7.3-4.7
		c-15.3,14.1-29.3,27.5-33.1,31c-7.5,6.8-28.1,17.1-37.5,13.7c-9.4-3.4,31.9,106.2,39.4,116.4c4.6,6.3,87.3,35.5,154.1,55.7
		c2.5,0.8,5.2-0.8,5.7-3.4C1197.3,2062.5,1197.8,2050.8,1194.4,2041.4z"/>
	<path style="clip-path:url(#SVGID_00000033330568869752495820000007050331815197714577_);fill:#181817;" d="M650.5,2050.2
		c9.6,0,98.1-21.4,101.7-29.8c3.6-8.4,50.3-48.9,68.2-62.2c22.3-16.6,69.3-46.1,92.1-57.3c22.1-10.9,68.9-26.2,92.1-22.6
		c23.6,3.7,80.1,39.9,89.7,45.1c9.6,5.2,80.9,71.3,80.9,71.3s52.8,23.9,75.2,50.2c6.8,8,51.1,22.6,51.1,22.6s-227.5,33-231.1,33
		c-3.6,0-299,41.7-305,36.5c-6-5.2-120.3-38.4-140-63.4C617.2,2063.2,650.5,2050.2,650.5,2050.2z"/>
	<path style="clip-path:url(#SVGID_00000033330568869752495820000007050331815197714577_);fill:#E1E0E2;" d="M649.8,2055.5
		c0.4-0.2,0.9-0.3,1.4-0.3c12.4-0.8,97.5-21.5,101-29.8c3.6-8.4,50.3-48.9,68.2-62.2c22.3-16.6,69.3-46.1,92.1-57.3
		c22.1-10.9,68.9-26.2,92.1-22.6c23.6,3.7,80.1,39.9,89.7,45.1c9.1,5,74.6,65.5,80.5,70.9c0.3,0.3,0.6,0.5,1,0.6
		c5.6,2.6,53.6,25.2,74.7,50c4.5,5.3,25.7,13.6,39.3,18.5c3.4,1.2,2.8,5.4-0.9,5.9c-47.8,6.9-215.4,31.2-218.5,31.2
		c-3.6,0-299,41.7-305,36.5c-6-5.2-120.3-38.4-140-63.4C617.9,2069.1,645,2057.4,649.8,2055.5z"/>
	<path style="clip-path:url(#SVGID_00000033330568869752495820000007050331815197714577_);fill:#D8D8D8;" d="M815.3,2104.2
		c2.4-7-3.1-24.8,0-31.3c6.8-14,36.1-12.8,43.6-26c3.9-6.9,2.6-25.9,4.1-35.4c3.2-20.4,47.5-25.3,60.9-42c5.6-6.9-9.4-13.7-17-13.8
		c-12-0.2-47.5,17.4-47.8,0c-0.1-4.1,22.7-27.9,53.5-49.9c3.5-2.5-68.3,37.6-90.6,54.2c-17.9,13.4-64.6,53.8-68.2,62.2
		c-3.5,8.2-88.6,28.9-101,29.8c-0.5,0-0.9,0.1-1.4,0.3c-4.8,2-31.9,13.6-24.4,23.2c19.6,25,131.2,63,137.2,68.2
		C764.6,2144.2,810.8,2117.5,815.3,2104.2z"/>
	<path style="clip-path:url(#SVGID_00000033330568869752495820000007050331815197714577_);fill:#9FA0A3;" d="M839.7,2458.9
		c-10,3.2-50.5,8-63.4,0.4s-11.5-34.8-21.5-33.2c-10,1.6-27.3,16-33,8.8s-15.8-2.5-35.9-8.8c-20.1-6.3-34.5-17.7-35.9-20.8
		c-1.4-3-33-22-33-22l48.4,16.1c0,0,1.1,8.4,3.6,9.6c2.5,1.2,21.2,9.2,23,9.6c1.8,0.4,33.4,0.4,34.3,2s18.5-5.2,18.5-5.2
		s12.9-10.7,14.7-7.6c1.8,3.2,19.7,13.6,19,16.1c-0.7,2.6-4.7,10.1,1.8,12.5c6.5,2.4,21.2,1.2,25.5,2.8c4.3,1.6,53.9,1.1,55.7,1.9
		s-6.9,7.5-10.2,10.2C849.6,2452.5,839.7,2458.9,839.7,2458.9z"/>
	<path style="clip-path:url(#SVGID_00000033330568869752495820000007050331815197714577_);fill:#9FA0A3;" d="M1183.8,2364.2
		c-1.7,0-66.7-30.7-68.4-33.1c-1.7-2.3-27.9-12.8-25.7-16.4c2.2-3.6,11.2-43.2,11.2-43.2s-10.6-9.3-12-9.8
		c-1.3-0.4-49.2-20.4-59.6-23.7c26.3,8.7,59.3,37.9,58.1,48.2c-1,8.1-10.2,24.9-14.3,32.2c-5.9,1.7-12,3-13,1.6
		c-2.1-2.8-9.2-14-9.2-14s-11,3-12.1,4.9c-1.1,1.9-9.6,5.4-14,5.4c-3.6,0-23.7-1.4-23.7-1.4s17.3,6.1,22.9,6.5
		c5.6,0.5,24.4-5.4,25.8-2.6c1.4,2.8,5,7.9,7,8.6c1.8,0.6,11.1,1.9,19.5,3c3.4,5,7.9,10.1,11.3,8.7c6.3-2.6,36.4,12.1,43.9,18.3
		c7.5,6.3,2.8,24.2,2.8,24.2l66.1,6.5C1200.2,2388.2,1185.4,2364.2,1183.8,2364.2z"/>
	<path style="clip-path:url(#SVGID_00000033330568869752495820000007050331815197714577_);fill:#C6C6CA;" d="M1186.3,2360.4
		c-1.7,0-66.7-30.7-68.4-33.1s-27.9-12.8-25.7-16.4c2.2-3.6,11.2-43.2,11.2-43.2s-10.6-9.3-12-9.8c-1.3-0.4-55.9-17.9-66.4-21.2
		c26.3,8.7,66.1,35.4,64.8,45.7c-1,8.1-10.2,24.9-14.3,32.2c-5.9,1.7-12,3-13,1.6c-2.1-2.8-9.2-14-9.2-14s-11,3-12.1,4.9
		c-1.1,1.9-9.6,5.4-14,5.4c-3.6,0-27.1,2.3-27.1,2.3s20.7,2.3,26.2,2.8c5.6,0.5,24.4-5.4,25.8-2.6c1.4,2.8,5,7.9,7,8.6
		c1.8,0.6,11.1,1.9,19.5,3c3.4,5,7.9,10.1,11.3,8.7c6.3-2.6,36.4,12.1,43.9,18.3c7.5,6.3,2.8,24.2,2.8,24.2l66.1,6.5
		C1202.7,2384.4,1188,2360.4,1186.3,2360.4z"/>
	<path style="clip-path:url(#SVGID_00000033330568869752495820000007050331815197714577_);fill:#C6C6CA;" d="M838.3,2452.6
		c-10,3.2-50.5,8-63.4,0.4s-11.5-34.8-21.5-33.2c-10,1.6-27.3,16-33,8.8c-5.7-7.2-15.8-2.5-35.9-8.8c-20.1-6.3-34.5-17.7-35.9-20.8
		s-37-19-37-19l52.4,13.1c0,0,1.1,8.4,3.6,9.6c2.5,1.2,21.2,9.2,23,9.6c1.8,0.4,33.4,0.4,34.3,2s18.5-5.2,18.5-5.2
		s12.9-10.7,14.7-7.6c1.8,3.2,19.7,13.6,19,16.1c-0.7,2.6-4.7,10.1,1.8,12.5c6.5,2.4,21.2,1.2,25.5,2.8c4.3,1.6,53.9,1.1,55.7,1.9
		c1.8,0.8-9,7.3-12.4,9.9C846.1,2445.9,838.3,2452.6,838.3,2452.6z"/>
	
		<linearGradient id="SVGID_00000093891409743850801990000016308050726431936395_" gradientUnits="userSpaceOnUse" x1="-10.4749" y1="2690.0393" x2="956.5751" y2="2690.0393">
		<stop  offset="0" style="stop-color:#22678B"/>
		<stop  offset="0.3774" style="stop-color:#214F6F"/>
		<stop  offset="0.7521" style="stop-color:#203D5B"/>
		<stop  offset="1" style="stop-color:#203753"/>
	</linearGradient>
	
		<path style="clip-path:url(#SVGID_00000033330568869752495820000007050331815197714577_);fill:url(#SVGID_00000093891409743850801990000016308050726431936395_);stroke:#000000;stroke-width:5;stroke-miterlimit:10;" d="
		M-10.5,2803.6c6,0,128.3-42.3,134.4-45.6c17.7-9.8,11.4-46.3,16.9-59.9c5.4-13.5,20.7,0.4,30.9,8.9c11.5,9.5,55.8-9.9,74.4-8.9
		c16.9,1,58.1,24.1,66.1,24.1s64.9,5.2,86.4,1.5c20.7-3.6,62.7-10.9,81.8-25.6c17.9-13.8,61.8-84.6,61.8-84.6s30.6-55.2,49.3-57.8
		c18.9-2.6,67.1,34,77.1,32.2c10-1.8,49.4-6.7,63.6,6.3c7.5,6.8,18.5,38.6,24.5,40.8c27.1,10,104.1-19.2,110.1-21.5
		c6-2.3,41,5,54.3,0c8.2-3.1,35.5-6.7,35.5-6.7l-19.8,91.3v126.3L-10.5,2803.6z"/>
	<path style="opacity:0.67;clip-path:url(#SVGID_00000033330568869752495820000007050331815197714577_);fill:#4175AA;" d="
		M954.8,2610.3c0,0-27.3,3.6-35.5,6.6c-1.5,0.6-3.4,1-5.4,1.2c-3.8,10.6-12.7,29.2-11.8,40.6c0.5,6.8,4.3,9.2,5.3,25.8
		c1,16.6-10.7,41.3-5.4,51.7c10.1,20,17.1,75.2,17.1,75.2l16.2-3.8l-10.7-104.2L954.8,2610.3z"/>
	<path style="clip-path:url(#SVGID_00000033330568869752495820000007050331815197714577_);fill:#476C8C;" d="M802,2470.2
		c-4,6-4.8,33.3,0,37c27.8,21.1,84.3,20,99.3,21.1c21.4,1.6,50.2,15.7,63.1,35.9c12.2,19.3-5.4,38-13.4,47.4
		c-4.8,5.7-12.4,11.7-16.2,18.9c-5.2,10-9,34.4-9,46.7c0,27.2,10.9,107,10.9,107h411.8l-20.4-412.2c0,0-4.8,19.3-8.2,21.9
		c-21.6,17-70.2-18.8-93.7-24.7c-25-6.3-101,5.9-101,5.9s-103.4,4.6-137.3-5.3c-13.1-3.8-38.1-21-51.2-24.7c-17.5-4.9-66-1.8-71,0
		c-5,1.8-23,19.4-11,28.2c12,8.8,44.6,23.1,56.1,40.5C925.9,2436.7,823.7,2438,802,2470.2z"/>
	
		<linearGradient id="SVGID_00000044137572582135613730000008208899112307877767_" gradientUnits="userSpaceOnUse" x1="1272.9698" y1="2839.8208" x2="957.8899" y2="2294.0862">
		<stop  offset="0.144" style="stop-color:#22678B"/>
		<stop  offset="0.5007" style="stop-color:#24698D"/>
		<stop  offset="0.6549" style="stop-color:#2A6F94"/>
		<stop  offset="0.7701" style="stop-color:#367AA1"/>
		<stop  offset="0.8659" style="stop-color:#468AB3"/>
		<stop  offset="0.9487" style="stop-color:#5A9FC9"/>
		<stop  offset="1" style="stop-color:#6BAFDC"/>
	</linearGradient>
	
		<path style="clip-path:url(#SVGID_00000033330568869752495820000007050331815197714577_);fill:url(#SVGID_00000044137572582135613730000008208899112307877767_);stroke:#000000;stroke-width:4;stroke-miterlimit:10;" d="
		M802,2472.5c-4,6-4.8,33.3,0,37c27.8,21.1,84.3,20,99.3,21.1c21.4,1.6,50.2,15.7,63.1,35.9c12.2,19.3-5.4,38-13.4,47.4
		c-4.8,5.7-12.4,11.7-16.2,18.9c-5.2,10-9,34.4-9,46.7c0,27.2,10.9,139.1,10.9,139.1h373l18.3-444.3c0,0-4.8,19.3-8.2,21.9
		c-21.6,17-70.2-18.8-93.7-24.7c-25-6.3-101,5.9-101,5.9s-103.4,4.6-137.3-5.3c-13.1-3.8-38.1-21-51.2-24.7c-17.5-4.9-66-1.8-71,0
		c-5,1.8-23,19.4-11,28.2c12,8.8,44.6,23.1,56.1,40.5C925.9,2439,823.7,2440.3,802,2472.5z"/>
	<path style="clip-path:url(#SVGID_00000033330568869752495820000007050331815197714577_);fill:#9EBAD6;" d="M1338,2595.7
		l-13.6-124.9c0,0,2.7-35.3,4.3-62.7l-1.6-32.1c0,0-4.8,19.3-8.2,21.9c-12.3,9.7-33.4,2.2-53.7-7.1c-1.3,6.7-1,14.3,2,22.3
		c7.8,20.8-9.9,77.4-1.6,80c8.3,2.6,20.4-1.3,21.9,15.9c1.5,17.2-9,39.5-5.3,63.9s12.3,38.4,16.5,51.1c4.6,14,11.9,44.7,12.8,60.8
		c1.1,19.2-4.5,76.6-4.5,76.6l3.2,22.9l30.7-128.5L1338,2595.7z"/>
	
		<linearGradient id="SVGID_00000124863632909880907890000007352316709599033506_" gradientUnits="userSpaceOnUse" x1="1124.0293" y1="2452.5415" x2="1356.8837" y2="2452.5415">
		<stop  offset="0" style="stop-color:#47839B"/>
		<stop  offset="0.2172" style="stop-color:#5492B2"/>
		<stop  offset="0.5024" style="stop-color:#61A2C9"/>
		<stop  offset="0.7699" style="stop-color:#68ACD7"/>
		<stop  offset="1" style="stop-color:#6BAFDC"/>
		<stop  offset="1" style="stop-color:#6AADDA"/>
		<stop  offset="1" style="stop-color:#65A6D3"/>
		<stop  offset="1" style="stop-color:#5E9BC6"/>
		<stop  offset="1" style="stop-color:#548AB4"/>
		<stop  offset="1" style="stop-color:#46759D"/>
		<stop  offset="1" style="stop-color:#355B81"/>
		<stop  offset="1" style="stop-color:#2B4B70"/>
		<stop  offset="1" style="stop-color:#6BAFDC"/>
	</linearGradient>
	
		<path style="clip-path:url(#SVGID_00000033330568869752495820000007050331815197714577_);fill:url(#SVGID_00000124863632909880907890000007352316709599033506_);stroke:#000000;stroke-width:3;stroke-miterlimit:10;" d="
		M1353.9,2103.7c0,0-133.7,7-175.8,13.6c-12.1,1.9-37.9,9.1-46.8,23.8c-6.6,10.9-10.8,41.8-3.1,50.1c28.9,31.1,80.9,41.8,107.4,58.3
		c23.6,14.6,69.9,56.6,85.8,90.6c2.9,6.3,7.5,15.1,6.6,23c-3.5,30.1-38.6,69.8-40.2,100.4c-1.3,24,24.1,59.3,28.9,81.9
		c11,51.3-3,219.3-3,219.3l-3.8,36.6l47.1-6.2L1353.9,2103.7z"/>
	<g style="clip-path:url(#SVGID_00000033330568869752495820000007050331815197714577_);">
		<path class="st18" d="M911,2528.7c-3.3-0.7-6.5-1.2-9.6-1.4c-2.1-0.2-5.2-0.3-8.7-0.4l-1.3-0.1c-0.7-14,2.3-27.7,4.9-39.9
			c1.9-8.8,3.7-17.1,3.7-24.1c0.1-7.7-2.9-23-4.3-30.4l-0.1-0.5c9-3.2,14.4-6.4,16.6-9.9c3.1,12.1,4.2,20.6,2.8,23.5
			c-1.9,4.2-2.7,9.2-3.4,14.6c-0.5,3.2-0.9,6.4-1.7,9.7c-2,8.8-0.1,47.9,0,49.6L911,2528.7z"/>
		<path d="M911.7,2424.4c3.1,12.4,3.3,18.9,2.4,20.9c-2,4.3-2.7,9.4-3.5,14.9c-0.4,3.1-0.9,6.4-1.6,9.6c-2,9-0.1,48.2,0,49.9l0,0.1
			l0,0.1l1,7.7c-2.9-0.6-5.7-1-8.3-1.2c-2.2-0.2-5.1-0.3-8.8-0.4l-0.4,0c-0.5-13.6,2.4-26.9,4.9-38.7c1.9-8.8,3.7-17.2,3.8-24.3
			c0.1-7.7-2.8-22.7-4.3-30.2C904.2,2429.9,909,2427.3,911.7,2424.4 M912.3,2418.8c-0.6,5-7.6,8.9-17.9,12.5
			c1.2,6.2,4.6,23.4,4.6,31.5c-0.2,16.7-10,40.2-8.6,65c4.6,0.2,8.4,0.3,10.9,0.5c3.4,0.3,7.1,0.8,10.8,1.7l-1.3-10.5
			c0,0-2-40.5,0-49.3c2-8.8,2-17.6,5-24.1C918,2441.4,914.5,2426.7,912.3,2418.8L912.3,2418.8z"/>
	</g>
	<path style="clip-path:url(#SVGID_00000033330568869752495820000007050331815197714577_);fill:#00425C;" d="M896.3,2519.6
		c0,0,8.8-39.9,6.1-52.5c-2-9.2,0.1-21,3.1-27.7c1.2-2.8,1.8-6.2-0.6-11.4c-2.6,1.4-8.6,4.4-12.1,5.7c1.2,6.5,4.9,21,4.8,29.4
		c-0.2,17.3-10.2,36.8-8.7,62.5c3.4,0.1,6.8,0.8,9.2,0.9L896.3,2519.6z"/>
	<g style="clip-path:url(#SVGID_00000033330568869752495820000007050331815197714577_);">
		<path class="st18" d="M1054,2380.5c1,2.6,1.1,3,1.6,4.9c4,15.2,9,39.8,8,71.5c-1,31.7,3.3,24.4,11.2,87.8
			c6.2,50-1.9,99.8-5.7,123.6c7.3-30.8,34.8-102.6,13.6-137.4c-4.9-8.1,0.4-40.8,1.2-53.9c0.8-13.1,22.5-23.6,16.6-43
			c-4.2-13.8-7.1-35.1-10.8-54.1C1078.8,2380.2,1066.7,2380.7,1054,2380.5z"/>
	</g>
	<g style="clip-path:url(#SVGID_00000033330568869752495820000007050331815197714577_);">
		<path class="st18" d="M1041.7,2379.7c1,2.6,3.3,9.6,3.8,11.6c4,15.2-8,83.3,6.3,102.7c29.1,39.5,6.5,183.6,6.5,184.6
			c0,0,17.8-72.7,19-100c1.7-36.6-1.1-61.9-4.1-69.6c-3.8-9.8-5.2-30.9-5.3-44c-0.2-13.1,13-24.3,5.8-42.2
			c-3.8-9.5-7.4-27.5-11.1-41.6C1056.4,2381,1048.2,2379.8,1041.7,2379.7z"/>
	</g>
	<path style="clip-path:url(#SVGID_00000033330568869752495820000007050331815197714577_);fill:#00425C;" d="M1199.9,2370.9
		c-22.4,0.4-50.4,4-65.3,6.1l18.5,9.3c0,0,31,22.2,0,52.2c-5.6,5.4-4.7,22.6,2.7,39.5c7.3,16.9,23.4,39.7,22.4,55.6
		c-0.3,4.2-1.8,10.5-3.8,17.8c-8,3.9-22.7,14.4-22.7,27.9c0,16-5,30.5-10,37.1c-5,6.6-12.3,26.4-17.4,40.5
		c-5.1,14.1-7.1,58.1-6.1,66.9c0.7,6.1-19,42-31.4,63.8h32.1c4.9-11.2,9.2-22.1,10.5-28.1c4.1-18.9-1.9-65.3,2.1-86.6
		c2.7-14.2,15.4-34.5,19.7-47.7c2.9-8.9,6.6-13,9.7-16.2c-0.1,2.3,0,4.3,0.3,6.1c3,18.9,12.9,39.3,16.4,65.3
		c2.4,17.6-10.4,69.9-8.4,82.2c1,6.4,1.4,16.6,1.5,25h23.7c-0.4-11.9-3-97.6-3-104.2c0-7-14.1-42.4-13.2-60
		c0.9-17.6,17-89.9,15-107.5c-2-17.6-23.1-39.3-19-56.4c4.4-18.3,34.7-37.9,35.7-48.5C1210.6,2403.3,1205.2,2383.4,1199.9,2370.9z"
		/>
	<g style="clip-path:url(#SVGID_00000033330568869752495820000007050331815197714577_);">
		<path class="st18" d="M950.2,2425c7.1,14.6,10.1,22.3,14.6,45.1c5.3,27,13.3,74,13.3,74s-10.8-105.9-16.8-121.8
			c-2.5-6.6,0.3-21.2,6-36.1c1.8-4.8,4.4-11.5,5.9-19.1c-8.3-4.3-17.6-9.7-25.7-13.8c1.2,3.7,2.2,8,2.6,12.8
			C952.1,2387.4,943.2,2410.5,950.2,2425z"/>
	</g>
	<g style="clip-path:url(#SVGID_00000033330568869752495820000007050331815197714577_);">
		<path class="st18" d="M943.1,2412.8c-0.7-7.8,1.3-19.4,7.1-34.3c1.8-4.7,4.5-13.2,6-20.5c-6.7-3.6-13.8-5.7-20-8.8
			c1.2,3.7,2.2,8,2.6,12.8c1.9,21.1-4.5,41.4,0,58.8c5.3,20.5,22.6,68.6,22.6,68.6S944.3,2425,943.1,2412.8z"/>
	</g>
	<g style="clip-path:url(#SVGID_00000033330568869752495820000007050331815197714577_);">
		<path class="st20" d="M671.5,2615.8c6,8.3,12,12.2,7,34.1s-3.1,15.5-1,50.8c2.1,35.2,21,69.7,21,69.7s-13.1-31.2-13.6-65.6
			c-0.3-16.6,9.3-37.9,8.3-46c-1-8.1,2.3-38,1.3-49.6c-0.5-5.3,4.2-13.2,9.4-20.8c-14.3-0.7-28.9,1.3-34.4,2.2
			c-1.1,0.2-2.5-0.1-4.4-0.6C666.9,2602,668.9,2612.2,671.5,2615.8z"/>
	</g>
	<g style="clip-path:url(#SVGID_00000033330568869752495820000007050331815197714577_);">
		<path class="st20" d="M661.8,2618c6,8.3,12,12.2,7,34.1c-5,21.8-4.3,30.1-1.6,48.6c4.9,34.4,24.8,73.1,24.8,73.1
			s-14.5-50.7-15.1-67.2c-1-24.9,7.7-37.5,6.7-45.6c-1-8.1,2.3-38,1.3-49.6c-0.5-5.3,4.2-13.2,9.4-20.8c-14.3-0.7-27.2,0-29-0.6
			C666.9,2602,659.2,2614.4,661.8,2618z"/>
	</g>
	<path style="clip-path:url(#SVGID_00000033330568869752495820000007050331815197714577_);fill:#032155;" d="M496.9,2751.8
		c-3-12.5,8.2-28.5,5.9-38.2c-3.1-12.8,0.2-26.5,2-40.2c-6.4,7.9-13,15-17.9,21.7c3.1,9.4,6.6,17.2,3.4,21.7
		c-5,7-23.8,28.2-18.4,38.8c5.4,10.6,17.4,42,17.4,42l27.2-1.8C516.5,2795.8,500.1,2764.8,496.9,2751.8z"/>
	<g style="clip-path:url(#SVGID_00000033330568869752495820000007050331815197714577_);">
		<path class="st22" d="M1277.2,2151.2c12,16.6,16.6,25.2,13,35.8s-23,42-19,50.1c4,8.1,21.3,43.6,21.5,44.2c2.9,7.9,8,24.6,12,28.8
			c-5.6-33.2-14.5-79-14.5-79s8.4-4.7,12.9-15.4c14.5-34.4-2.4-57.2-1.5-76.2c0.2-5,6.4-9.8,7.7-14.1c1.1-3.8-0.1-16-0.1-16
			c-13.1,1.3-28,0.7-43.3,2.8C1267,2123,1268,2138.6,1277.2,2151.2z"/>
	</g>
	<path style="clip-path:url(#SVGID_00000033330568869752495820000007050331815197714577_);fill:#4B96B4;" d="M1261.5,2152
		c12,16.6,16.6,25.2,13,35.8c-3.6,10.6-23,42-19,50.1c3.1,6.3,9.1,17.6,13.9,34.4c2.2,2.8,10.7,10.1,10.7,10.1s-8.7-35.2-11.6-52.7
		c-1.1-6.6,3.6-2.6,8.1-13.3c14.5-34.4-2.4-57.2-1.5-76.2c0.2-5,7.4-9.3,7.7-14.1c0.2-4.8-7.8-13.4-7.8-13.4s-13.7-1.4-24.9,0.2
		C1251.3,2123.7,1252.4,2139.4,1261.5,2152z"/>
	<g style="clip-path:url(#SVGID_00000033330568869752495820000007050331815197714577_);">
		<path class="st24" d="M778.7,2770.3c-1.5-5.1,0.4-53.6-0.8-67.2c-0.7-7.3-12-37.8-18-47.3c-5.2-8.1-20.7-22.1-23.2-26.5l0,0
			c1.5,2.7,6,14.6,9.5,21.7c3.5,7,10.2,14.7,11.2,23.3c1,8.7-2.1,16.8-0.6,27.2c1.5,10.5,5.5,26.3,7.5,33.4c2,7,4.5,22,4.5,27.3
			c0,3.8,2.1,30,3,37.9l17,7C787.5,2798.5,780,2774.6,778.7,2770.3z"/>
	</g>
	<path style="clip-path:url(#SVGID_00000033330568869752495820000007050331815197714577_);fill:#032155;" d="M305.4,2771
		c0,0-5.3-13-3.8-15.9c1.5-2.8,8.3-6.2,0.8-11.4c-7.5-5.3-18.1-19.1-19.2-28.7l0,0c-10.6-4.6-22.9-10-32.7-13
		c4.6,4.3,12.5,12,13.6,19.8c1.5,10.1-1.5,24.6,3,28.6c4.5,4,12,9.2,14.3,13.2c2.3,4,4.5,8.9,6.8,17.2c0.9,3.4,11.1,20.8,15.3,22.9
		l11-0.9L305.4,2771z"/>
	<path style="clip-path:url(#SVGID_00000033330568869752495820000007050331815197714577_);fill:#032155;" d="M577.5,2636.6
		c12.5,20.2,14.9,13.9,20.9,42.3c6,28.4,18.7,44.2,18.7,44.2s1.4-53,4.4-66c3-13,19.6-22,22.5-49c1.1-9.5,2-18.6,2.9-27
		c-18.5-10-42.8-24.3-54.9-22.7c-2.8,0.4-5.9,1.9-9.1,4.3c6.4,7.4,10.5,17.5,5.3,31.8C577.9,2622.4,565,2616.4,577.5,2636.6z"/>
	<path style="clip-path:url(#SVGID_00000033330568869752495820000007050331815197714577_);fill:#CFD0D0;" d="M1060.9,2036.6
		c-0.1,0.1-0.3,0.2-0.4,0.3c-6.3,6.2-34.1,33.5-34.1,43.8c0,10.4-15.9,28.9-29.3,27.8c-13.4-1.2-67.8,20.8-75.4,30.1
		c-7.5,9.3-40.2,30.1-64.5,17.4s-47.7-18.5-66.2-4.6c-18.4,13.9-19.3,24.3-33.5,19.7c-14.2-4.6-58,24.5-67.8,35.9
		c-7.4,8.6,43.5,0,74.5,1.2c31,1.2,25.6,19.3,61.1,16.2c29.3-2.5,127.5,2.7,162.5-26.6c10.6-8.9,17.6-34.7,45.2-27.8
		c27.6,6.9,49.4,8.1,52.8,9.3c3.3,1.2,15.1,5.8,14.2-18.5c-0.8-24.3,6.7-31.3,18.4-41.7s19.3-20.8,30.1-20.8s46.1,1.2,57.8,0
		s32.7-1.1,36.8-4.6c4.2-3.5,5-10.4-5.9-20.8c-10.9-10.4-8.4-4.6-34.3-16.2c-26-11.6-59.5-17.4-71.2-31.3s-32.7-32.4-39.4-38.2
		c-6.7-5.8-17.6-9.3-18.4,0c-0.8,9.3-5,31.3-4.2,37C1070.7,2029.3,1062.4,2035.6,1060.9,2036.6z"/>
	<g style="clip-path:url(#SVGID_00000033330568869752495820000007050331815197714577_);">
		<path class="st26" d="M555.7,2633.1c-3.8,7.9-14.3,48.9-15,64.7c-0.8,15.9-0.8,44.5,7.5,71.4s11.3,64.7,11.3,64.7h62.3
			c0,0-12.8-42.3-20.3-54.2s-9.3-27.7-20.4-46.2s-18.6-26.4-18.6-41s-0.8-18.5,1.5-27.7c2.3-9.2-1.5-22.5-2.3-31.7
			c-0.8-9.2,8.3-33,8.3-33L555.7,2633.1z"/>
	</g>
	<g style="clip-path:url(#SVGID_00000033330568869752495820000007050331815197714577_);">
		<path class="st26" d="M650.3,2666.6c-1.3,15.3-16.5,57.7-21.8,70.9c-5.3,13.2-11.8,27.8-8.8,43.6c3,15.9,13.5,60.8,13.5,60.8
			s33.5,10.6,37.3,17.2c3.8,6.6,12.7-55.8,9-59.4c-3.7-3.6-18-18.5-22.5-22.5s-27.8-34.4-1.7-85.2c3.8-7.4,3.2-18.3,3.2-24.9
			c0-6.6-7.9-51.1-7.9-51.1S651.2,2655.2,650.3,2666.6z"/>
	</g>
	<path style="clip-path:url(#SVGID_00000033330568869752495820000007050331815197714577_);fill:#032155;" d="M719.4,2618.6
		c0,0-13.7,28.2-12.9,50.7s3.2,33.1,12.9,56.6c9.8,23.5,16.5,38.8,15,58.3c-1.5,19.4-2.3,40.6-3,45.9c-0.8,5.3,20.3-12.6,20.3-12.6
		s3-36.3-3.8-46.9c-6.8-10.6-14.4-27.7-17.7-39.6s-6.3-35.7-7.1-47.6c-0.8-11.9-10.3-9.6-10-19.8
		C714,2629,719.4,2618.6,719.4,2618.6z"/>
	<g style="clip-path:url(#SVGID_00000033330568869752495820000007050331815197714577_);">
		<path class="st20" d="M736.4,2638.4c0,0-9.7,35.1-9.6,43.4c0.1,11.9,3,18.1,12,42.5c9,24.4,11,28.1,14.7,73.1
			c3.8,44.9,5.4,68.3,6.2,76.3c0.8,7.9,10.5-60,8.3-76.3c-2.3-16.2-6.8-26.2-10.5-41c-3.8-14.9-9.8-28.1-12.8-38
			c-3-9.9-12.4-20.3-12.4-32.2S736.4,2638.4,736.4,2638.4z"/>
	</g>
	<g style="clip-path:url(#SVGID_00000033330568869752495820000007050331815197714577_);">
		<path class="st26" d="M774.1,2667.2c4.5,15.9,22.4,27.7,20.9,52.6c-1.5,24.9-17.2,49.2-3.7,71.6c13.5,22.5,65.3,33.4,66.8,33
			s15-13.2,10.5-15.9c-4.5-2.6-10.5-52.9-15.8-71.4c-5.3-18.5-10.5-41-9-58.1c1.5-17.2,14.3-35.7,14.3-35.7s-12-7.9-16.5,6.6
			s-8.8,24.2-12,42.3c-1.5,8.1-15,52.4-18.8,47.1c-3.8-5.3-5.2-47.3-13.5-64.3C794.4,2669,774.1,2667.2,774.1,2667.2z"/>
	</g>
	<g style="clip-path:url(#SVGID_00000033330568869752495820000007050331815197714577_);">
		<path class="st26" d="M305.1,2748.9c4.5,4,20.3,41.3,22.5,53.7c2.3,12.4,10.5,32.2,22.5,36.2s36.8-7.9,30.8-18.5
			s-37.5-62.1-37.5-62.1s-5.3-6.6-8.3-9.2C332.1,2746.3,305.1,2748.9,305.1,2748.9z"/>
	</g>
	<g style="clip-path:url(#SVGID_00000033330568869752495820000007050331815197714577_);">
		<path class="st20" d="M408.7,2748.4c1.5,20.8,12,75.6,15,69.7s-0.8-19.1,6-34.6c6.8-15.6,17.3-31.1,20.3-28.6
			c3,2.5,7.5-19.5,8.3-23.7c0.8-4.2,5.1-19,5.1-19s-23.4,7.4-31.3,9.5c-7.2,1.9-29.9,5-29.9,5L408.7,2748.4z"/>
	</g>
	<path style="clip-path:url(#SVGID_00000033330568869752495820000007050331815197714577_);fill:#032155;" d="M142.9,2711.2
		c3.1,6.1,19.4,28,17.9,42.3c-1.5,14.4-1.9,41.7,0.3,58.9c2.2,17.2,15.7,47.2,18.7,54.7c3,7.4,15.8-32.6,11.3-52.2
		c-4.5-19.6-6-30.4,5.3-36.3s-1.3-16.5-2.1-24.8c-0.8-8.2,20.5-38.2,20.5-38.2s-21.4,10.8-26.9,16.7c-7.6,8.2-6.6,62-6.6,62
		s-12.5-18.2-13.3-26.5c-0.8-8.2-0.2-21.3-0.8-31.1c-0.6-9.8-4.3-8.8-10.2-13.6C153.1,2720,142.9,2711.2,142.9,2711.2z"/>
	<path style="clip-path:url(#SVGID_00000033330568869752495820000007050331815197714577_);fill:#115875;" d="M827.7,2454.5
		c2.2,7.4,28.7,1,31.7,11.9s-1.3,54-1.3,54s11-46.7,11.8-54.6c0.8-7.9-4.4-19.2-9.9-20.7C852.2,2442.8,827.7,2454.5,827.7,2454.5z"
		/>
	<path style="clip-path:url(#SVGID_00000033330568869752495820000007050331815197714577_);fill:#115875;" d="M823.6,2456.9
		c1.5,1.2,20.2,8.4,23.8,24c3.4,14.9,3.3,11.3,3.3,11.3l0.2,29.6c0,0,8.3-50.5,8.2-57.7c0-7.1-13.6-2.5-13.6-14.4
		C845.6,2448.3,829.1,2452.6,823.6,2456.9z"/>
	<path style="clip-path:url(#SVGID_00000033330568869752495820000007050331815197714577_);fill:#115875;" d="M1013.7,2617.3
		c-8.7,21.5-24.9,36.9-24.2,99c0.8,62.1,4.9,63,12.4,93.4c7.5,30.4,15,64.7,15,56.1s29.7-40.9,29.7-62s-14-54.4-11.7-73.2
		c2.3-18.7,11.3-150.9,11.3-161.5c0-10.6,1.5-47-2.2-62.8c-3.8-15.9-26.3-95.7-26.3-95.7S1051.1,2524.5,1013.7,2617.3z"/>
	<path style="clip-path:url(#SVGID_00000033330568869752495820000007050331815197714577_);fill:#00425C;" d="M1006.7,2425.7
		c2.7,24.9,9,79.7,3,98.2c-6,18.5-56.1,123.7-53.8,172.7c2.3,49,12.8,76.2,18.8,98.9c6,22.7,14.3,26.6,14.3,26.6s-0.8-12.3-2.3-26.6
		c-1.5-14.3-13.4-89.8-8.9-125.8c3.3-26.4,25.4-96,34.4-111.9c9-15.9,9.1-60.8,6.9-83.8c-2.3-23-21.1-94.6-21.1-94.6
		S1005.5,2414.6,1006.7,2425.7z"/>
	<path style="clip-path:url(#SVGID_00000033330568869752495820000007050331815197714577_);fill:#004B6A;" d="M1112.4,2493.7
		c3.7,5.2,13.5-22,18.8,12.3s-10.5,91.2-11.6,100.4c-1.1,9.2-4.9,52.6-7.1,96.9s-22.5,63.9-29.3,86.6c-6.8,22.7-27,64.9-32.3,58.3
		c-5.3-6.6-6.8-34.7-4.5-58.3s-1.6-38.8,6.7-59c8.3-20.1,30.9-46.5,35.8-73c4.9-26.4,10.1-58.1,14.6-70c4.5-11.9,7.5-13.2,6-30.4
		s-15-32.7-15.7-43.3c-0.9-15.1,15.7-52.1,17.2-55.3s6.8-29.6,6.8-36.2s-5.3-22.5-5.3-22.5h36c0,0-2.3,4-10.5,21.1
		C1129.7,2438.6,1105.1,2483.4,1112.4,2493.7z"/>
	<path style="clip-path:url(#SVGID_00000033330568869752495820000007050331815197714577_);fill:#115875;" d="M1162.4,2650.3
		c-6,7.9-20.3,29.1-17.3,54.8c3,25.8,9.8,54,3.8,73.6c-6,19.6-9,15.2-13.5,34.5c-4.5,19.4,22.5,5.7,24,0c1.5-5.7,5.3-42.9,3-54.1
		c-2.3-11.1-9.7-33.5-10.3-51.8C1151.3,2681.5,1162.4,2649.8,1162.4,2650.3z"/>
	<path style="clip-path:url(#SVGID_00000033330568869752495820000007050331815197714577_);fill:#115875;" d="M1211.8,2470.5
		c0,0-15.7,22.6-8.9,64.8c6.8,42.3,12.8,92.5,18,115s13.5,51.8,9,92.8c-4.5,41-6.8,70.3-10.5,87.9s44.8-18.5,47.8-35.5
		c3-17,6-48.6,4-70.7c-2-22.1-7-48.5-14-66.1c-7-17.6-18.8-52.9-20.4-70.5s4.6-44.3,0-65.3c-4.6-21-8.6-48.2-3.6-58.4
		c5-10.2,9-22.5,10-34.9c1-12.3-1.8-31.7-6.4-35.2c-4.6-3.5-16.6,0-16.6,0s12.1,22.7,11.8,32.3
		C1231.6,2440.8,1211.8,2470.5,1211.8,2470.5z"/>
	<path style="clip-path:url(#SVGID_00000033330568869752495820000007050331815197714577_);fill:#004B6A;" d="M1260.4,2553.6
		c1.5,6.6,4.9,18.2,8.7,34.5s8.2,37.5,11.5,63.3c6.8,51.5,5.8,80-2.4,118.3c-8.3,38.3-3.6,45.3,0.9,44.1c4.5-1.2,13.5,2.7,17.3-14.4
		c3.8-17.2,4.5-63.5,6-72.1s3-27.1,0-43.6c-3-16.5-10.5-51.2-12.8-54.3C1287.5,2626.2,1260.4,2553.6,1260.4,2553.6z"/>
	<path style="clip-path:url(#SVGID_00000033330568869752495820000007050331815197714577_);fill:#97BFDE;" d="M1353.9,2109.4
		l-8.8,1.4c0,0-7.5,16.3-8.5,22.9c-2.4,16.7,6,58.1,0,85.9c-6,27.7-9.8,54.2-6.8,92.5c3,38.3,12.3,96.2,4.3,117.5
		c-8,21.3-13.7,36.7-15.5,50.8c-1.4,11-0.8,45.3-0.8,45.3s3.9,19.2,4.8,23.2c3.2,15.2,6.4,44.2,6.3,72.5l-1,22.5l-9.5,120.7l-8.5,37
		l47.1-6.2L1353.9,2109.4z"/>
	<path style="clip-path:url(#SVGID_00000033330568869752495820000007050331815197714577_);fill:#4B96B4;" d="M1317.5,2398.1
		c-1.1,2.1-2.3,4.1-3.4,6.3c-2.2,4.2-4.8,9.7-7.2,13.3c-2.3,24-5.8,40.6-5.8,40.6s3,7.5,7,0c3.9-7.4,11.3-50.9,13.8-69.8
		C1320.4,2391.4,1319,2395.6,1317.5,2398.1z"/>
	<path style="clip-path:url(#SVGID_00000033330568869752495820000007050331815197714577_);fill:#4B96B4;" d="M1313.2,2322.2
		c2.2,3.9,4.3,7.1,6.5,11c2,3.5,4.1,7.6,5.8,11.6c0.2-12.1,0.3-25.7-0.4-37.4c-1.5-27.7,3-55.5,0-72.7c-2.5-14.1-4.9-57.8-5.3-83.2
		c-0.1-5.4-0.1-10,0.1-13.3c0,0-7.2,40.6-5.9,50.2c1.4,9.6-2.7,17.6-2.8,35.7c-0.1,18.1,1.1,17.2-2.4,42.3c-3,21.7,0.8,34,1.7,51.8
		C1311.5,2319.5,1312.5,2320.8,1313.2,2322.2z"/>
	<path style="clip-path:url(#SVGID_00000033330568869752495820000007050331815197714577_);fill:#97BFDE;" d="M1201.4,2132.6
		c-7.1,10.6-10.8,15.9-6.3,43.6c4.5,27.7,8.3,23.8,9.8,44.9c1.5,21.1,0.6,8.8,0.6,8.8l26.3,11.9c0,0,0.1-3.5-6.6-20.7
		c-6.8-17.2-4.5-44.9-2.3-56.8s10.7-31.7,13.6-38.3c2.9-6.6,3.3-12.2,3.3-12.2l-38.2,3.7L1201.4,2132.6z"/>
	<path style="clip-path:url(#SVGID_00000033330568869752495820000007050331815197714577_);fill:#3B768C;" d="M1158,2125.8
		c-6.5,2.3-6,40.4,0,50.4c6,10,2.9,35.9,2.9,35.9l13.4,6.7c0,0,4.3,3.2-1.7-22.6c-6-25.8-9.6-26-8.4-35.2c1.2-9.2,2.8-19.3,5.7-29.1
		s10.5-11.9,10.5-11.9L1158,2125.8z"/>
</g>
</svg>
