<?xml version="1.0" encoding="utf-8"?>
<!-- Generator: Adobe Illustrator 27.6.1, SVG Export Plug-In . SVG Version: 6.00 Build 0)  -->
<svg version="1.1" id="head" xmlns="http://www.w3.org/2000/svg" xmlns:xlink="http://www.w3.org/1999/xlink" x="0px" y="0px"
	 viewBox="0 0 31 31" style="enable-background:new 0 0 31 31;" xml:space="preserve">
<style type="text/css">
	.st0{fill:#FFFFFF;}
	.st1{fill:#94ABD7;}
	.st2{fill:#2F2929;}
	.st3{fill:#594648;}
</style>
<g>
	<rect x="29.8722534" y="15.5" width="1.0639038" height="1.0325928"/>
	<polygon points="28.8084106,17.5651245 28.8084106,18.5977173 28.8084106,19.6303101 29.8722534,19.6303101 29.8722534,18.5977173 
		29.8722534,17.5651245 29.8722534,16.5325928 28.8084106,16.5325928 	"/>
	<polygon class="st0" points="28.8084106,15.5 28.8084106,14.4674072 27.7445068,14.4674072 27.7445068,13.4348145 
		26.6915894,13.4348145 26.6915894,12.4022217 26.6915894,11.3803101 25.6277466,11.3803101 25.6277466,12.4022217 
		25.6277466,13.4348145 25.6277466,14.4674072 24.5638428,14.4674072 24.5638428,15.5 25.6277466,15.5 25.6277466,16.5325928 
		26.6915894,16.5325928 26.6915894,17.5651245 26.6915894,18.5977173 27.7445068,18.5977173 27.7445068,19.6303101 
		28.8084106,19.6303101 28.8084106,18.5977173 28.8084106,17.5651245 28.8084106,16.5325928 29.8722534,16.5325928 29.8722534,15.5 
			"/>
	<rect x="28.8084106" y="14.4674072" width="1.0638428" height="1.0325928"/>
	<rect x="27.7445068" y="13.4348145" width="1.0639038" height="1.0325928"/>
	<polygon points="27.7445068,18.5977173 26.6915894,18.5977173 26.6915894,19.6303101 26.6915894,20.6522217 26.6915894,21.6848145 
		27.7445068,21.6848145 27.7445068,20.6522217 28.8084106,20.6522217 28.8084106,19.6303101 27.7445068,19.6303101 	"/>
	<polygon points="26.6915894,13.4348145 27.7445068,13.4348145 27.7445068,12.4022217 27.7445068,11.3803101 26.6915894,11.3803101 
		26.6915894,12.4022217 	"/>
	<polygon points="26.6915894,8.2825928 26.6915894,9.3151245 27.7445068,9.3151245 27.7445068,8.2825928 27.7445068,7.25 
		27.7445068,6.2174072 26.6915894,6.2174072 26.6915894,7.25 	"/>
	<rect x="25.6277466" y="21.6848145" width="1.0638428" height="1.0325928"/>
	<polygon class="st1" points="26.6915894,19.6303101 26.6915894,18.5977173 25.6277466,18.5977173 25.6277466,19.6303101 
		24.5638428,19.6303101 24.5638428,20.6522217 24.5638428,21.6848145 24.5638428,22.7174072 25.6277466,22.7174072 
		25.6277466,21.6848145 26.6915894,21.6848145 26.6915894,20.6522217 	"/>
	<polygon points="25.6277466,18.5977173 26.6915894,18.5977173 26.6915894,17.5651245 26.6915894,16.5325928 25.6277466,16.5325928 
		25.6277466,17.5651245 	"/>
	<polygon points="25.6277466,10.3477173 25.6277466,11.3803101 26.6915894,11.3803101 26.6915894,10.3477173 26.6915894,9.3151245 
		25.6277466,9.3151245 	"/>
	<polygon class="st0" points="25.6277466,7.25 25.6277466,8.2825928 25.6277466,9.3151245 26.6915894,9.3151245 
		26.6915894,8.2825928 26.6915894,7.25 26.6915894,6.2174072 25.6277466,6.2174072 	"/>
	<rect x="25.6277466" y="5.1848145" width="1.0638428" height="1.0325928"/>
	<rect x="24.5638428" y="22.7174072" width="1.0639038" height="1.0325928"/>
	<rect x="24.5638428" y="18.5977173" width="1.0639038" height="1.0325928"/>
	<polygon points="24.5638428,12.4022217 24.5638428,13.4348145 24.5638428,14.4674072 25.6277466,14.4674072 25.6277466,13.4348145 
		25.6277466,12.4022217 25.6277466,11.3803101 24.5638428,11.3803101 	"/>
	<rect x="24.5638428" y="8.2825928" width="1.0639038" height="1.0325317"/>
	<rect x="24.5638428" y="7.25" class="st1" width="1.0639038" height="1.0325928"/>
	<rect x="24.5638428" y="6.2174072" width="1.0639038" height="1.0325928"/>
	<rect x="23.5" y="23.75" width="1.0638428" height="1.0325928"/>
	<rect x="23.5" y="22.7174072" class="st1" width="1.0638428" height="1.0325928"/>
	<polygon class="st2" points="23.5,16.5325928 22.4361572,16.5325928 21.3722534,16.5325928 21.3722534,17.5651245 
		22.4361572,17.5651245 22.4361572,18.5977173 21.3722534,18.5977173 21.3722534,19.6303101 22.4361572,19.6303101 23.5,19.6303101 
		24.5638428,19.6303101 24.5638428,18.5977173 25.6277466,18.5977173 25.6277466,17.5651245 25.6277466,16.5325928 
		24.5638428,16.5325928 	"/>
	<polygon points="23.5,15.5 22.4361572,15.5 21.3722534,15.5 20.3084106,15.5 20.3084106,16.5325928 21.3722534,16.5325928 
		22.4361572,16.5325928 23.5,16.5325928 24.5638428,16.5325928 25.6277466,16.5325928 25.6277466,15.5 24.5638428,15.5 
		24.5638428,14.4674072 23.5,14.4674072 	"/>
	<polygon class="st0" points="24.5638428,12.4022217 24.5638428,11.3803101 23.5,11.3803101 23.5,12.4022217 22.4361572,12.4022217 
		22.4361572,13.4348145 22.4361572,14.4674072 21.3722534,14.4674072 20.3084106,14.4674072 20.3084106,15.5 21.3722534,15.5 
		22.4361572,15.5 23.5,15.5 23.5,14.4674072 24.5638428,14.4674072 24.5638428,13.4348145 	"/>
	<rect x="23.5" y="10.3477173" width="1.0638428" height="1.0325928"/>
	<rect x="23.5" y="7.25" width="1.0638428" height="1.0325928"/>
	<polygon class="st0" points="23.5,5.1848145 22.4361572,5.1848145 22.4361572,6.2174072 23.5,6.2174072 23.5,7.25 24.5638428,7.25 
		24.5638428,6.2174072 25.6277466,6.2174072 25.6277466,5.1848145 24.5638428,5.1848145 	"/>
	<rect x="22.4361572" y="24.7825928" width="1.0638428" height="1.0325317"/>
	<rect x="22.4361572" y="23.75" class="st1" width="1.0638428" height="1.0325928"/>
	<rect x="22.4361572" y="22.7174072" width="1.0638428" height="1.0325928"/>
	<polygon points="22.4361572,19.6303101 21.3722534,19.6303101 21.3722534,20.6522217 22.4361572,20.6522217 23.5,20.6522217 
		23.5,21.6848145 23.5,22.7174072 24.5638428,22.7174072 24.5638428,21.6848145 24.5638428,20.6522217 24.5638428,19.6303101 
		23.5,19.6303101 	"/>
	<rect x="22.4361572" y="6.2174072" width="1.0638428" height="1.0325928"/>
	<polygon class="st1" points="21.3722534,24.7825928 20.3084106,24.7825928 19.2554932,24.7825928 18.1915894,24.7825928 
		17.1277466,24.7825928 17.1277466,25.8151245 18.1915894,25.8151245 19.2554932,25.8151245 20.3084106,25.8151245 
		21.3722534,25.8151245 22.4361572,25.8151245 22.4361572,24.7825928 	"/>
	<polygon class="st3" points="22.4361572,18.5977173 22.4361572,17.5651245 21.3722534,17.5651245 21.3722534,16.5325928 
		20.3084106,16.5325928 20.3084106,17.5651245 20.3084106,18.5977173 21.3722534,18.5977173 	"/>
	<polygon points="22.4361572,10.3477173 23.5,10.3477173 23.5,9.3151245 22.4361572,9.3151245 21.3722534,9.3151245 
		20.3084106,9.3151245 20.3084106,10.3477173 21.3722534,10.3477173 	"/>
	<polygon points="20.3084106,25.8151245 19.2554932,25.8151245 18.1915894,25.8151245 17.1277466,25.8151245 17.1277466,26.8477173 
		18.1915894,26.8477173 19.2554932,26.8477173 20.3084106,26.8477173 21.3722534,26.8477173 22.4361572,26.8477173 
		22.4361572,25.8151245 21.3722534,25.8151245 	"/>
	<polygon points="20.3084106,23.75 20.3084106,24.7825928 21.3722534,24.7825928 22.4361572,24.7825928 22.4361572,23.75 
		21.3722534,23.75 	"/>
	<rect x="20.3084106" y="18.5977173" width="1.0638428" height="1.0325928"/>
	<polygon points="20.3084106,13.4348145 20.3084106,14.4674072 21.3722534,14.4674072 22.4361572,14.4674072 22.4361572,13.4348145 
		22.4361572,12.4022217 23.5,12.4022217 23.5,11.3803101 22.4361572,11.3803101 21.3722534,11.3803101 20.3084106,11.3803101 
		20.3084106,10.3477173 19.2554932,10.3477173 19.2554932,11.3803101 19.2554932,12.4022217 20.3084106,12.4022217 	"/>
	<polygon class="st1" points="21.3722534,11.3803101 22.4361572,11.3803101 23.5,11.3803101 23.5,10.3477173 22.4361572,10.3477173 
		21.3722534,10.3477173 20.3084106,10.3477173 20.3084106,11.3803101 	"/>
	<polygon points="20.3084106,7.25 20.3084106,8.2825928 21.3722534,8.2825928 22.4361572,8.2825928 22.4361572,7.25 
		21.3722534,7.25 	"/>
	<polygon points="21.3722534,6.2174072 22.4361572,6.2174072 22.4361572,5.1848145 23.5,5.1848145 24.5638428,5.1848145 
		25.6277466,5.1848145 25.6277466,4.1522217 24.5638428,4.1522217 23.5,4.1522217 22.4361572,4.1522217 21.3722534,4.1522217 
		21.3722534,5.1848145 20.3084106,5.1848145 20.3084106,6.2174072 	"/>
	<polygon points="19.2554932,22.7174072 18.1915894,22.7174072 18.1915894,23.75 19.2554932,23.75 20.3084106,23.75 
		20.3084106,22.7174072 	"/>
	<polygon points="20.3084106,16.5325928 19.2554932,16.5325928 19.2554932,17.5651245 19.2554932,18.5977173 20.3084106,18.5977173 
		20.3084106,17.5651245 	"/>
	<rect x="19.2554932" y="14.4674072" width="1.0529175" height="1.0325928"/>
	<polygon class="st0" points="20.3084106,13.4348145 20.3084106,12.4022217 19.2554932,12.4022217 19.2554932,13.4348145 
		19.2554932,14.4674072 20.3084106,14.4674072 	"/>
	<polygon points="19.2554932,12.4022217 18.1915894,12.4022217 18.1915894,13.4348145 18.1915894,14.4674072 19.2554932,14.4674072 
		19.2554932,13.4348145 	"/>
	<rect x="17.1277466" y="21.6848145" width="1.0638428" height="1.0325928"/>
	<rect x="16.0638428" y="26.8477173" width="1.0639038" height="1.0325928"/>
	<path class="st0" d="M16.0638428,25.8151245H15v-1.0325317h-1.0638428V23.75h-1.0639038v-1.0325928h-1.0638428v-1.0325928
		h1.0638428v1.0325928h1.0639038V23.75H15h1.0638428h1.0639038v1.0325928h1.0638428h1.0639038h1.0529175V23.75h-1.0529175
		h-1.0639038v-1.0325928h-1.0638428v-1.0325928h-1.0639038H15v-1.0325928h1.0638428v-1.0219116h1.0639038v1.0219116v1.0325928
		h1.0638428v1.0325928h1.0639038h1.0529175V23.75h1.0638428h1.0639038v-1.0325928H23.5v-1.0325928v-1.0325928h-1.0638428h-1.0639038
		v-1.0219116h-1.0638428v-1.0325928h-1.0529175v-1.0325928v-1.0325317h1.0529175V15.5h-1.0529175v-1.0325928h-1.0639038v-1.0325928
		v-1.0325928h1.0639038v-1.0219116v-1.0325928h1.0529175V9.3151245h1.0638428h1.0639038H23.5v1.0325928h1.0638428v1.0325928
		h1.0639038v-1.0325928V9.3151245h-1.0639038V8.2825928H23.5V7.25h-1.0638428v1.0325928h-1.0639038h-1.0638428V7.25h1.0638428
		h1.0639038V6.2174072h-1.0639038h-1.0638428V5.1848145h-1.0529175h-1.0639038h-1.0638428h-1.0639038V4.1522217H15v1.0325928
		h-1.0638428h-1.0639038v1.0325928h-1.0638428h-1.0639038V7.25H9.6915894H8.6277466v1.0325928H7.5638428v1.0325317h1.0639038
		v1.0325928H7.5638428V9.3151245H6.5V8.2825928H5.4361572H4.3722534v1.0325317H3.3084106v1.0325928h1.0638428h1.0639038v1.0325928
		H6.5v1.0219116H5.4361572v1.0325928H4.3722534v-1.0325928H3.3084106v-1.0219116v-1.0325928H2.2445068v1.0325928v1.0219116
		v1.0325928h1.0639038v1.0325928h1.0638428V15.5H3.3084106v1.0325928H2.2445068v1.0325317H1.1915894v1.0325928h1.0529175v1.0325928
		h1.0639038v1.0219116v1.0325928h1.0638428v1.0325928h1.0639038V23.75H6.5v1.0325928h1.0638428h1.0639038v1.0325317h1.0638428
		h1.0529175h1.0639038v1.0325928h1.0638428h1.0639038H15h1.0638428h1.0639038v-1.0325928H16.0638428z M12.8722534,9.3151245
		V8.2825928h1.0639038H15v1.0325317h-1.0638428H12.8722534v1.0325928h-1.0638428V9.3151245H12.8722534z M17.1277466,14.4674072V15.5
		h1.0638428v1.0325928h-1.0638428v1.0325317h-1.0639038v1.0325928H15v1.0325928h-1.0638428h-1.0639038h-1.0638428v-1.0325928
		h-1.0639038v-1.0325928H9.6915894v-1.0325317V15.5v-1.0325928v-1.0325928h1.0529175v-1.0325928h1.0639038v-1.0219116h1.0638428
		h1.0639038H15v1.0219116h1.0638428v1.0325928h1.0639038V14.4674072z"/>
	<polygon class="st1" points="16.0638428,23.75 15,23.75 15,24.7825928 16.0638428,24.7825928 17.1277466,24.7825928 
		17.1277466,23.75 	"/>
	<polygon points="17.1277466,19.6303101 16.0638428,19.6303101 16.0638428,20.6522217 15,20.6522217 15,21.6848145 
		16.0638428,21.6848145 17.1277466,21.6848145 17.1277466,20.6522217 	"/>
	<polygon points="16.0638428,14.4674072 16.0638428,15.5 16.0638428,16.5325928 16.0638428,17.5651245 17.1277466,17.5651245 
		17.1277466,16.5325928 18.1915894,16.5325928 18.1915894,15.5 17.1277466,15.5 17.1277466,14.4674072 17.1277466,13.4348145 
		16.0638428,13.4348145 	"/>
	<polygon points="16.0638428,5.1848145 17.1277466,5.1848145 18.1915894,5.1848145 19.2554932,5.1848145 20.3084106,5.1848145 
		20.3084106,4.1522217 19.2554932,4.1522217 19.2554932,3.1303101 18.1915894,3.1303101 18.1915894,4.1522217 17.1277466,4.1522217 
		17.1277466,3.1303101 17.1277466,2.0977173 16.0638428,2.0977173 16.0638428,3.1303101 15,3.1303101 15,4.1522217 
		16.0638428,4.1522217 	"/>
	<polygon class="st1" points="15,26.8477173 13.9361572,26.8477173 12.8722534,26.8477173 11.8084106,26.8477173 
		11.8084106,27.8803101 12.8722534,27.8803101 13.9361572,27.8803101 15,27.8803101 16.0638428,27.8803101 16.0638428,26.8477173 	
		"/>
	<polygon points="15,24.7825928 15,25.8151245 16.0638428,25.8151245 17.1277466,25.8151245 17.1277466,24.7825928 
		16.0638428,24.7825928 	"/>
	<rect x="15" y="17.5651245" width="1.0638428" height="1.0325928"/>
	<polygon class="st0" points="16.0638428,15.5 16.0638428,14.4674072 16.0638428,13.4348145 15,13.4348145 15,14.4674072 
		13.9361572,14.4674072 13.9361572,15.5 15,15.5 15,16.5325928 13.9361572,16.5325928 12.8722534,16.5325928 11.8084106,16.5325928 
		11.8084106,15.5 10.7445068,15.5 10.7445068,16.5325928 10.7445068,17.5651245 11.8084106,17.5651245 11.8084106,18.5977173 
		12.8722534,18.5977173 13.9361572,18.5977173 15,18.5977173 15,17.5651245 16.0638428,17.5651245 16.0638428,16.5325928 	"/>
	<rect x="15" y="12.4022217" width="1.0638428" height="1.0325928"/>
	<polygon points="13.9361572,27.8803101 12.8722534,27.8803101 11.8084106,27.8803101 11.8084106,28.9022217 12.8722534,28.9022217 
		13.9361572,28.9022217 15,28.9022217 16.0638428,28.9022217 16.0638428,27.8803101 15,27.8803101 	"/>
	<rect x="13.9361572" y="23.75" width="1.0638428" height="1.0325928"/>
	<polygon points="15,9.3151245 15,8.2825928 13.9361572,8.2825928 12.8722534,8.2825928 12.8722534,9.3151245 13.9361572,9.3151245 
			"/>
	<polygon points="15,5.1848145 15,4.1522217 13.9361572,4.1522217 12.8722534,4.1522217 12.8722534,5.1848145 13.9361572,5.1848145 
			"/>
	<rect x="12.8722534" y="22.7174072" width="1.0639038" height="1.0325928"/>
	<polygon points="12.8722534,18.5977173 11.8084106,18.5977173 11.8084106,19.6303101 12.8722534,19.6303101 13.9361572,19.6303101 
		15,19.6303101 15,18.5977173 13.9361572,18.5977173 	"/>
	<polygon points="13.9361572,12.4022217 15,12.4022217 15,11.3803101 13.9361572,11.3803101 12.8722534,11.3803101 
		11.8084106,11.3803101 11.8084106,12.4022217 12.8722534,12.4022217 	"/>
	<rect x="11.8084106" y="21.6848145" width="1.0638428" height="1.0325928"/>
	<polygon class="st1" points="12.8722534,13.4348145 13.9361572,13.4348145 15,13.4348145 15,12.4022217 13.9361572,12.4022217 
		12.8722534,12.4022217 11.8084106,12.4022217 11.8084106,13.4348145 	"/>
	<rect x="11.8084106" y="9.3151245" width="1.0638428" height="1.0325928"/>
	<polygon points="12.8722534,6.2174072 12.8722534,5.1848145 11.8084106,5.1848145 10.7445068,5.1848145 10.7445068,6.2174072 
		11.8084106,6.2174072 	"/>
	<polygon points="10.7445068,26.8477173 9.6915894,26.8477173 8.6277466,26.8477173 8.6277466,27.8803101 9.6915894,27.8803101 
		10.7445068,27.8803101 11.8084106,27.8803101 11.8084106,26.8477173 	"/>
	<rect x="10.7445068" y="17.5651245" width="1.0639038" height="1.0325928"/>
	<rect x="10.7445068" y="13.4348145" class="st1" width="1.0639038" height="1.0325928"/>
	<rect x="10.7445068" y="12.4022217" width="1.0639038" height="1.0325928"/>
	<polygon class="st1" points="10.7445068,26.8477173 11.8084106,26.8477173 11.8084106,25.8151245 10.7445068,25.8151245 
		9.6915894,25.8151245 8.6277466,25.8151245 8.6277466,26.8477173 9.6915894,26.8477173 	"/>
	<polygon points="10.7445068,15.5 11.8084106,15.5 11.8084106,16.5325928 12.8722534,16.5325928 13.9361572,16.5325928 
		15,16.5325928 15,15.5 13.9361572,15.5 13.9361572,14.4674072 15,14.4674072 15,13.4348145 13.9361572,13.4348145 
		12.8722534,13.4348145 11.8084106,13.4348145 11.8084106,14.4674072 10.7445068,14.4674072 10.7445068,13.4348145 
		9.6915894,13.4348145 9.6915894,14.4674072 9.6915894,15.5 9.6915894,16.5325928 9.6915894,17.5651245 10.7445068,17.5651245 
		10.7445068,16.5325928 	"/>
	<polygon points="10.7445068,7.25 10.7445068,6.2174072 9.6915894,6.2174072 8.6277466,6.2174072 8.6277466,7.25 9.6915894,7.25 	
		"/>
	<polygon points="7.5638428,25.8151245 6.5,25.8151245 6.5,26.8477173 7.5638428,26.8477173 8.6277466,26.8477173 
		8.6277466,25.8151245 	"/>
	<polygon class="st1" points="8.6277466,25.8151245 8.6277466,24.7825928 7.5638428,24.7825928 6.5,24.7825928 6.5,25.8151245 
		7.5638428,25.8151245 	"/>
	<rect x="7.5638428" y="9.3151245" width="1.0639038" height="1.0325928"/>
	<rect x="7.5638428" y="7.25" width="1.0639038" height="1.0325928"/>
	<rect x="6.5" y="8.2825928" width="1.0638428" height="1.0325317"/>
	<rect x="5.4361572" y="24.7825928" width="1.0638428" height="1.0325317"/>
	<rect x="5.4361572" y="23.75" class="st1" width="1.0638428" height="1.0325928"/>
	<rect x="5.4361572" y="11.3803101" width="1.0638428" height="1.0219116"/>
	<polygon points="6.5,8.2825928 6.5,7.25 5.4361572,7.25 4.3722534,7.25 4.3722534,8.2825928 5.4361572,8.2825928 	"/>
	<rect x="4.3722534" y="23.75" width="1.0639038" height="1.0325928"/>
	<rect x="4.3722534" y="22.7174072" class="st1" width="1.0639038" height="1.0325928"/>
	<rect x="3.3084106" y="22.7174072" width="1.0638428" height="1.0325928"/>
	<rect x="3.3084106" y="21.6848145" class="st1" width="1.0638428" height="1.0325928"/>
	<rect x="3.3084106" y="14.4674072" width="1.0638428" height="1.0325928"/>
	<polygon class="st1" points="3.3084106,11.3803101 3.3084106,12.4022217 4.3722534,12.4022217 4.3722534,13.4348145 
		5.4361572,13.4348145 5.4361572,12.4022217 5.4361572,11.3803101 4.3722534,11.3803101 	"/>
	<polygon points="4.3722534,11.3803101 5.4361572,11.3803101 5.4361572,10.3477173 4.3722534,10.3477173 3.3084106,10.3477173 
		3.3084106,11.3803101 	"/>
	<rect x="3.3084106" y="8.2825928" width="1.0638428" height="1.0325317"/>
	<rect x="2.2445068" y="21.6848145" width="1.0639038" height="1.0325928"/>
	<rect x="2.2445068" y="20.6522217" class="st1" width="1.0639038" height="1.0325928"/>
	<rect x="2.2445068" y="19.6303101" width="1.0639038" height="1.0219116"/>
	<rect x="2.2445068" y="15.5" width="1.0639038" height="1.0325928"/>
	<rect x="2.2445068" y="13.4348145" width="1.0639038" height="1.0325928"/>
	<rect x="2.2445068" y="9.3151245" width="1.0639038" height="1.0325928"/>
	<rect x="1.1915894" y="20.6522217" width="1.0529175" height="1.0325928"/>
	<rect x="1.1915894" y="18.5977173" width="1.0529175" height="1.0325928"/>
	<rect x="1.1915894" y="16.5325928" width="1.0529175" height="1.0325317"/>
	<polygon points="2.2445068,11.3803101 2.2445068,10.3477173 1.1915894,10.3477173 1.1915894,11.3803101 1.1915894,12.4022217 
		1.1915894,13.4348145 2.2445068,13.4348145 2.2445068,12.4022217 	"/>
	<rect x="0.1277466" y="17.5651245" width="1.0638428" height="1.0325928"/>
</g>
</svg>
