<svg width="22" height="42" viewBox="0 0 22 42" fill="none" xmlns="http://www.w3.org/2000/svg">
<rect y="2" width="2" height="18" fill="#3363ff"/>
<rect x="2" y="4" width="2" height="14" fill="#3363ff"/>
<rect x="4" y="6" width="2" height="10" fill="#3363ff"/>
<rect y="22" width="2" height="18" fill="#3363ff"/>
<rect x="2" y="24" width="2" height="14" fill="#3363ff"/>
<rect x="4" y="26" width="2" height="10" fill="#3363ff"/>
<rect x="22" y="20" width="2" height="18" transform="rotate(-180 22 20)" fill="#3363ff"/>
<rect x="20" y="18" width="2" height="14" transform="rotate(-180 20 18)" fill="#3363ff"/>
<rect x="18" y="16" width="2" height="10" transform="rotate(-180 18 16)" fill="#3363ff"/>
<rect x="22" y="40" width="2" height="18" transform="rotate(-180 22 40)" fill="#3363ff"/>
<rect x="20" y="38" width="2" height="14" transform="rotate(-180 20 38)" fill="#3363ff"/>
<rect x="18" y="36" width="2" height="10" transform="rotate(-180 18 36)" fill="#3363ff"/>
<rect x="20" width="2" height="18" transform="rotate(90 20 0)" fill="#3363ff"/>
<rect x="18" y="2" width="2" height="14" transform="rotate(90 18 2)" fill="#3363ff"/>
<rect x="16" y="4" width="2" height="10" transform="rotate(90 16 4)" fill="#3363ff"/>
<rect x="2" y="42" width="2" height="18" transform="rotate(-90 2 42)" fill="#3363ff"/>
<rect x="4" y="40" width="2" height="14" transform="rotate(-90 4 40)" fill="#3363ff"/>
<rect x="6" y="38" width="2" height="10" transform="rotate(-90 6 38)" fill="#3363ff"/>
<rect x="2" y="20" width="18" height="2" fill="#3363ff"/>
<rect x="4" y="18" width="14" height="2" fill="#3363ff"/>
<rect x="4" y="22" width="14" height="2" fill="#3363ff"/>
</svg>
