<svg width="800" height="800" viewBox="0 0 800 800" fill="none" xmlns="http://www.w3.org/2000/svg">
<path d="M447.781 114.14C447.781 114.14 459.88 105.826 472.051 104.974C481.88 104.285 490.374 111.746 491.463 121.539C492.768 133.172 493.065 152.647 480.966 155" fill="white"/>
<path d="M447.781 114.14C447.781 114.14 459.88 105.826 472.051 104.974C481.88 104.285 490.374 111.746 491.463 121.539C492.768 133.172 493.065 152.647 480.966 155" stroke="black" stroke-width="0.725" stroke-miterlimit="10" stroke-linecap="round"/>
<path d="M465.756 106.947C465.756 106.947 457.55 125.671 459.306 134.149C459.306 134.149 448.665 113.144 450.031 114.284C450.504 114.685 454.15 109.31 465.756 106.947Z" fill="#94ABD7"/>
<path d="M475.824 118.95C475.824 118.95 489.988 112.537 487.368 138.095C487.368 138.095 483.27 150.858 477.139 149.574C475.886 149.317 469.395 129.987 469.395 129.987C469.395 129.987 472.825 117.213 475.824 118.95Z" fill="#94ABD7"/>
<path d="M520.669 204.749C513.88 202.262 505.427 201.635 496.081 202.016C499.521 192.52 505.098 187.495 513.479 188.307C509.371 186.251 484.382 171.433 482.903 159.347C482.903 159.347 479.894 138.373 471.071 129.689C471.071 129.689 449.769 104.82 428.314 102.621C428.314 102.621 435.945 93.5876 434.425 88.2643C434.425 88.2643 426.331 96.7322 417.283 99.4144C417.283 99.4144 417.663 90.6691 413.893 87.1853C413.893 87.1853 403.797 100.093 394.594 99.1575C394.594 99.1575 360.608 103.854 345.068 116.772C345.068 116.772 315.54 137.54 307.796 161.547C307.796 161.547 293.683 187.289 274.169 189.345C274.169 189.345 290.52 197.998 298.233 198.275C298.233 198.275 274.169 206.815 266.979 209.898C266.979 209.898 291.537 218.253 298.655 224.398L301.9 227.368C291.794 231.561 271.94 241.365 250.176 263.86C250.176 263.86 238.067 268.001 228.392 276.459C234.4 274.784 239.115 274.63 242.155 276.459C232.829 294.145 217.217 333.319 205.529 411.462C205.529 411.462 202.047 442.035 202.643 447.389C202.643 447.389 208.713 435.992 210.839 435.15C210.839 435.15 218.08 481.24 244.835 516.263C244.835 516.263 250.597 530.383 252.241 535.572L266.99 555.961L269.044 570.616C268.15 585.003 268.13 601.199 265.531 606.933C265.531 606.933 250.125 629.593 247.044 640.054L257.314 636.57C257.314 636.57 240.552 669.517 243.007 693.081C243.397 696.832 245.359 700.347 248.584 702.937C259.851 711.939 293.273 729.162 365.754 701.529C369.164 700.234 370.848 697.326 371.598 694.243C374.525 682.198 373.806 657.987 373.806 657.987C396.402 598.383 394.348 585.023 394.348 585.023L444.757 581.848L445.014 586.811C444.675 604.538 441.809 640.804 424.996 662.282L416.605 671.018L429.197 668.613L427.297 677.728C426.999 679.177 427.903 680.595 429.495 681.171C444.418 686.535 517.834 710.983 569.414 692.321C569.414 692.321 590.1 684.531 579.829 664.482C579.829 664.482 580.538 651.019 542.7 643.363C542.7 643.363 558.26 598.229 554.152 584.283L560.509 596.852C560.509 596.852 563.457 557.749 562.03 534.401L561.968 514.557L566.384 505.113C577.405 462.311 568.839 428.727 556.011 404.67L555.271 404.094C548.267 367.951 551.502 373.336 547.394 324.009C548.421 321.953 554.583 322.981 554.583 322.981C550.475 317.843 540.153 306.343 540.153 306.343L527.355 268.258C525.301 259.184 515.554 252.987 507.337 246.935C507.337 246.935 491.582 236.504 487.648 236.062L486.467 233.287" fill="white"/>
<path d="M520.669 204.749C513.88 202.262 505.427 201.635 496.081 202.016C499.521 192.52 505.098 187.495 513.479 188.307C509.371 186.251 484.382 171.433 482.903 159.347C482.903 159.347 479.894 138.373 471.071 129.689C471.071 129.689 449.769 104.82 428.314 102.621C428.314 102.621 435.945 93.5876 434.425 88.2643C434.425 88.2643 426.331 96.7322 417.283 99.4144C417.283 99.4144 417.663 90.6691 413.893 87.1853C413.893 87.1853 403.797 100.093 394.594 99.1575C394.594 99.1575 360.608 103.854 345.068 116.772C345.068 116.772 315.54 137.54 307.796 161.547C307.796 161.547 293.683 187.289 274.169 189.345C274.169 189.345 290.52 197.998 298.233 198.275C298.233 198.275 274.169 206.815 266.979 209.898C266.979 209.898 291.537 218.253 298.655 224.398L301.9 227.368C291.794 231.561 271.94 241.365 250.176 263.86C250.176 263.86 238.067 268.001 228.392 276.459C234.4 274.784 239.115 274.63 242.155 276.459C232.829 294.145 217.217 333.319 205.529 411.462C205.529 411.462 202.047 442.035 202.643 447.389C202.643 447.389 208.713 435.992 210.839 435.15C210.839 435.15 218.08 481.24 244.835 516.263C244.835 516.263 250.597 530.383 252.241 535.572L266.99 555.961L269.044 570.616C268.15 585.003 268.13 601.199 265.531 606.933C265.531 606.933 250.125 629.593 247.044 640.054L257.314 636.57C257.314 636.57 240.552 669.517 243.007 693.081C243.397 696.832 245.359 700.347 248.584 702.937C259.851 711.939 293.273 729.162 365.754 701.529C369.164 700.234 370.848 697.326 371.598 694.243C374.525 682.198 373.806 657.987 373.806 657.987C396.402 598.383 394.348 585.023 394.348 585.023L444.757 581.848L445.014 586.811C444.675 604.538 441.809 640.804 424.996 662.282L416.605 671.018L429.197 668.613L427.297 677.728C426.999 679.177 427.903 680.595 429.495 681.171C444.418 686.535 517.834 710.983 569.414 692.321C569.414 692.321 590.1 684.531 579.829 664.482C579.829 664.482 580.538 651.019 542.7 643.363C542.7 643.363 558.26 598.229 554.152 584.283L560.509 596.852C560.509 596.852 563.457 557.749 562.03 534.401L561.968 514.557L566.384 505.113C577.405 462.311 568.839 428.727 556.011 404.67L555.271 404.094C548.267 367.951 551.502 373.336 547.394 324.009C548.421 321.953 554.583 322.981 554.583 322.981C550.475 317.843 540.153 306.343 540.153 306.343L527.355 268.258C525.301 259.184 515.554 252.987 507.337 246.935C507.337 246.935 491.582 236.504 487.648 236.062L486.467 233.287" fill="white"/>
<path d="M339.972 361.713C339.972 361.713 368.607 388.771 425.744 366.646C425.744 366.646 379.279 394.331 353.54 387.918C353.54 387.918 336.737 381.999 339.972 361.713Z" fill="#94ABD7"/>
<path d="M477.705 230.543C477.705 230.543 506.915 204.595 518.1 204.738C518.819 204.738 520.082 205.252 520.082 205.252C520.082 205.252 485.942 231.211 477.212 243.676L472.867 242.813L477.694 230.553L477.705 230.543Z" fill="#94ABD7"/>
<path d="M495.234 202.447C495.234 202.447 491.239 192.221 507.087 184.617L512.653 187.761C512.653 187.761 497.329 190.896 495.234 202.447Z" fill="#94ABD7"/>
<path d="M268.633 209.188C268.633 209.188 294.166 199.456 338.711 236.02L357.743 257.981C357.743 257.981 319.751 246.101 298.603 224.397C298.603 224.397 279.314 212.599 268.633 209.188Z" fill="#94ABD7"/>
<path d="M338.066 550.041C334.697 560.975 326.429 559.567 313.416 549.013C310.53 560.729 296.982 553.792 287.903 545.612L265.143 543.875L269.713 567.686L266.17 605.833L247.621 638.903L260.182 634.371C240.76 664.892 243.738 696.513 243.738 696.513C254.964 720.663 309.544 715.812 309.544 715.812C385.702 705.731 370.275 692.279 370.275 692.279C320.235 704.868 322.32 679.423 322.32 679.423C316.764 684.376 319.414 701.641 319.414 701.641C276.03 708.763 283.712 677.08 280.888 675.97C278.063 674.86 274.386 696.523 274.386 696.523C240.421 683.708 266.807 638.913 266.807 638.913C275.588 600.735 290.892 577.716 290.892 577.716L292.946 584.694L300.135 579.463C306.298 581.21 311.433 578.589 311.433 578.589L313.488 586.43C313.488 586.43 320.369 579.309 320.677 579.453C329.921 583.81 335.056 574.222 335.056 574.222C335.056 574.222 338.795 563.524 338.425 560.379C338.425 560.379 344.218 555.179 344.218 550.041L343.509 542.714L338.055 550.041" fill="#94ABD7"/>
<path d="M283.615 187.279C283.615 187.279 302.103 197.555 318.567 193.291C318.567 193.291 294.913 205.777 275.398 189.334L283.615 187.279Z" fill="#94ABD7"/>
<path d="M416.24 179.571C416.24 179.571 450.719 180.146 466.341 195.51C466.341 195.51 450.585 164.177 415.5 179.222" fill="#94ABD7"/>
<path d="M428.49 218.828C428.49 218.828 437.929 238.713 446.166 238.364C446.166 238.364 429.034 255.146 404.086 236C404.086 236 420.17 259.749 445.211 247.109C445.211 247.109 436.614 280.601 379.898 249.74C379.898 249.74 412.282 286.376 456.437 264.682C456.437 264.682 473.353 256.183 478.755 222.795C478.755 222.795 478.735 212.169 473.702 210.843L428.49 218.828Z" fill="#94ABD7"/>
<path d="M398.733 378.834C398.733 378.834 461.385 348.559 491.448 344.839C493.902 344.531 496.285 343.842 498.545 342.866C505.447 339.865 517.936 333.196 514.865 325.211C514.865 325.211 526.42 342.177 518.542 361.518C518.542 361.518 493.214 342.547 398.723 378.844L398.733 378.834Z" fill="#94ABD7"/>
<path d="M437.171 638.902C437.171 638.902 534.538 575.074 536.777 540.412C536.777 540.412 479.785 573.656 369.887 584.981L444.864 581.898C444.864 581.898 447.883 591.137 437.171 638.902Z" fill="#94ABD7"/>
<path d="M460.681 333.277C460.681 333.277 465.088 340.183 461.965 342.886L455.207 332.948L460.692 333.277H460.681Z" fill="#94ABD7"/>
<path d="M460.681 321.973C460.681 321.973 465.088 328.879 461.965 331.581L455.207 321.644L460.692 321.973H460.681Z" fill="#94ABD7"/>
<path d="M341.134 252.021L258.094 279.131C258.094 279.131 217.904 358.456 226.09 415.686C226.09 415.686 257.2 528.225 271.733 542.602C271.733 542.602 276.972 557.246 282.086 557.657C282.086 557.657 273.007 565.631 259.183 546.517L245.769 516.314C245.769 516.314 222.187 495.206 211.587 434.687L203.535 445.169C203.535 445.169 205.63 349.752 243.489 276.5C244.464 274.62 230.209 276.5 231.225 274.64C232.355 272.595 247.659 265.391 249.939 264.836C251.089 264.559 250.586 262.072 252.712 261.229C268.498 244.293 275.575 240.162 301.067 227.358L341.123 252.021H341.134Z" fill="#94ABD7"/>
<path d="M553.749 400.004C552.373 355.466 524.2 338.725 519.855 339.373L518.91 360.686C531.923 369.38 543.437 382.791 553.749 400.004Z" fill="#94ABD7"/>
<path d="M429.55 670.976C429.55 670.976 503.459 699.719 558.942 683.606L561.017 684.921C563.749 686.298 578.93 684.007 578.95 675.96C578.95 673.648 582.329 672.671 582.586 670.976C582.586 670.976 593.884 693.636 539.243 698.599C539.243 698.599 485.167 701.59 435.795 683.226L427.055 679.834L429.561 670.966L429.55 670.976Z" fill="#94ABD7"/>
<path d="M322.812 336.494L331.224 463.03L316.3 439.527L315.078 351.971L322.812 336.494Z" fill="#94ABD7"/>
<path d="M289.61 526.908C289.61 526.908 298.063 545.304 297.734 565.24C297.734 565.24 285.954 560.996 286.436 554.963L289.6 526.898L289.61 526.908Z" fill="#94ABD7"/>
<path d="M312.527 523.672C312.527 523.672 322.963 546.147 323.897 561.716L312.445 561.747C312.445 561.747 315.547 536.035 312.527 523.672Z" fill="#94ABD7"/>
<path d="M334.793 515.871C334.793 515.871 344.119 533.506 342.404 546.423L338.059 550.215L334.803 515.881L334.793 515.871Z" fill="#94ABD7"/>
<path d="M476.671 244.335C476.671 244.335 496.227 220.164 520.877 204.749C514.088 202.262 505.635 201.635 496.289 202.016C499.729 192.52 505.306 187.495 513.687 188.307C509.579 186.251 484.59 171.433 483.111 159.347C483.111 159.347 480.102 138.373 471.279 129.689C471.279 129.689 449.977 104.82 428.522 102.621C428.522 102.621 436.153 93.5876 434.633 88.2643C434.633 88.2643 426.539 96.7322 417.491 99.4144C417.491 99.4144 417.871 90.6691 414.101 87.1853C414.101 87.1853 404.005 100.093 394.803 99.1575C394.803 99.1575 360.816 103.854 345.277 116.772C345.277 116.772 315.748 137.54 308.004 161.547C308.004 161.547 293.892 187.289 274.377 189.345C274.377 189.345 290.728 197.998 298.442 198.275C298.442 198.275 274.377 206.815 267.188 209.898C267.188 209.898 291.745 218.253 298.863 224.398" stroke="black" stroke-width="0.725" stroke-miterlimit="10" stroke-linecap="round"/>
<path d="M555.444 404.042C548.439 367.9 551.675 373.285 547.566 323.957C548.593 321.902 554.756 322.929 554.756 322.929C550.648 317.791 540.325 306.292 540.325 306.292L527.528 268.207C525.474 259.132 515.727 252.936 507.51 246.883C507.51 246.883 489.875 236.01 485.941 235.579" stroke="black" stroke-width="0.71775" stroke-miterlimit="10" stroke-linecap="round"/>
<path d="M444.876 582.926C444.537 600.653 442.011 640.772 425.208 662.24L416.816 670.975L429.408 668.571L427.508 677.686C427.21 679.135 428.114 680.553 429.706 681.129C444.63 686.493 518.046 710.941 569.626 692.279C569.626 692.279 590.311 684.489 580.041 664.439C580.041 664.439 580.749 650.977 542.911 643.321C542.911 643.321 558.472 598.186 554.363 584.241L560.721 596.809C560.721 596.809 563.669 557.707 562.241 534.359L562.18 514.515" stroke="black" stroke-width="0.667" stroke-miterlimit="10" stroke-linecap="round"/>
<path d="M252.446 535.562C250.803 530.372 245.041 516.252 245.041 516.252C218.285 481.23 211.044 435.14 211.044 435.14C208.918 435.982 202.848 447.379 202.848 447.379C202.242 442.025 205.734 411.452 205.734 411.452C217.422 333.309 233.034 294.125 242.36 276.449C239.33 274.62 234.605 274.774 228.597 276.449C238.282 267.991 250.381 263.85 250.381 263.85C272.145 241.354 291.999 231.551 302.105 227.358" stroke="black" stroke-width="0.71775" stroke-miterlimit="10" stroke-linecap="round"/>
<path d="M324.789 161.187C324.789 161.187 284.568 157.261 301.238 128.137C301.238 128.137 315.443 102.898 328.415 107.327C328.415 107.327 345.361 113.195 347.282 124.756" fill="white"/>
<path d="M324.789 161.187C324.789 161.187 284.568 157.261 301.238 128.137C301.238 128.137 315.443 102.898 328.415 107.327C328.415 107.327 345.361 113.195 347.282 124.756" stroke="black" stroke-width="0.725" stroke-miterlimit="10" stroke-linecap="round"/>
<path d="M428.899 174.444C428.283 171.864 428.344 169.768 428.632 166.932C430.203 151.548 441.532 140.1 455.5 141.538C469.469 142.977 480.386 160.622 479.216 172.121C478.219 181.874 473.977 189.489 467.445 193.394" stroke="black" stroke-width="0.725" stroke-miterlimit="10" stroke-linecap="round"/>
<path d="M427.112 199.59C427.112 199.59 430.706 187.032 469.006 196.127C469.006 196.127 483.211 198.614 475.292 215.365C475.292 215.365 469.438 230.256 455.48 231.407C455.48 231.407 419.686 229.31 427.101 199.58L427.112 199.59Z" fill="#2E2828" stroke="black" stroke-width="0.725" stroke-miterlimit="10" stroke-linecap="round"/>
<path d="M411.935 178.649C413.51 163.264 402.208 149.502 386.69 147.911C371.172 146.32 357.315 157.503 355.739 172.888C354.164 188.274 365.466 202.036 380.984 203.627C396.502 205.217 410.359 194.035 411.935 178.649Z" fill="white" stroke="black" stroke-width="0.725" stroke-miterlimit="10" stroke-linecap="round"/>
<path d="M456.066 231.982C456.066 231.982 461.417 229.937 461.685 209.826" stroke="black" stroke-width="0.725" stroke-miterlimit="10" stroke-linecap="round"/>
<path d="M431.918 220.729C431.918 220.729 441.593 211.912 452.08 230.543" stroke="black" stroke-width="0.725" stroke-miterlimit="10" stroke-linecap="round"/>
<path d="M435.084 194.708C435.084 194.708 432.557 206.577 463.667 207.965C463.667 207.965 446.69 212.425 427.309 200.103C427.309 200.103 430.893 195.304 435.094 194.698L435.084 194.708Z" fill="#594747"/>
<path d="M404.164 123.728C388.039 122.218 371.472 132.433 371.472 132.433C371.472 132.433 361.756 134.118 355.09 128.805L364.888 126.123L357.36 122.958C374.327 116.37 389.774 117.449 404.318 123.102C404.708 123.256 404.575 123.759 404.154 123.718L404.164 123.728Z" fill="#94ABD7" stroke="black" stroke-width="0.725" stroke-miterlimit="10" stroke-linecap="round"/>
<path d="M472.216 132.187C461.966 122.28 448.593 122.537 446.364 122.65C446.303 122.65 446.292 122.547 446.354 122.516C447.987 121.715 455.885 118.159 463.619 119.947L462.407 121.859C466.269 124.479 469.535 127.572 472.319 132.063C472.37 132.145 472.277 132.248 472.216 132.187Z" fill="#94ABD7" stroke="black" stroke-width="0.725" stroke-miterlimit="10" stroke-linecap="round"/>
<path d="M411.09 183.28C411.09 183.28 438.975 156.89 469.028 196.126" stroke="black" stroke-width="0.725" stroke-miterlimit="10" stroke-linecap="round"/>
<path d="M456.092 231.489L453.863 243.122C453.863 243.122 464.37 251.425 469.999 246.842" stroke="black" stroke-width="0.725" stroke-miterlimit="10" stroke-linecap="round"/>
<path d="M308.746 128.034C308.746 128.034 327.583 115.507 334.372 139.955" stroke="black" stroke-width="0.725" stroke-miterlimit="10" stroke-linecap="round"/>
<path d="M327.067 150.581C327.067 150.581 318.501 141.116 330.487 131.148" stroke="black" stroke-width="0.725" stroke-miterlimit="10" stroke-linecap="round"/>
<path d="M271.275 555.005C274.14 552.015 280.416 546.835 282.953 555.745C283.127 556.372 283.138 557.04 282.953 557.677C282.059 560.647 278.752 569.701 271.85 569.989C271.85 569.989 271.552 563.627 270.34 558.561C270.032 557.287 270.381 555.961 271.285 555.005H271.275Z" fill="black"/>
<path d="M296.226 559.361C298.691 556.135 305.028 549.177 306.579 560.636C306.579 560.636 304.504 573.615 296.236 573.964L295.353 562.27C295.27 561.221 295.589 560.194 296.226 559.361Z" fill="black"/>
<path d="M320.242 557.112C323.621 553.782 329.732 549.281 330.389 559.517C330.389 559.517 327.37 571.407 320.211 570.831C320.211 570.831 320.077 564.778 319.112 561.49C318.65 559.938 319.081 558.253 320.242 557.112Z" fill="black"/>
<path d="M287.661 526.754C287.661 526.754 290.999 558.118 282.29 559.567C282.29 559.567 263.802 567.305 251.426 528.892" stroke="black" stroke-width="0.71775" stroke-miterlimit="10" stroke-linecap="round"/>
<path d="M285.84 556.381C290.667 567.325 305.272 565.352 305.272 565.352C319.025 562.167 311.774 521.615 311.774 521.615" stroke="black" stroke-width="0.71775" stroke-miterlimit="10" stroke-linecap="round"/>
<path d="M334.123 512.973C334.123 512.973 346.202 559.721 329.943 560.975C329.943 560.975 316.57 563.482 310.695 560.975" stroke="black" stroke-width="0.71775" stroke-miterlimit="10" stroke-linecap="round"/>
<path d="M398.723 378.833C398.723 378.833 467.537 351.61 495.268 356.656" stroke="black" stroke-width="0.71775" stroke-miterlimit="10" stroke-linecap="round"/>
<path d="M328.297 315.622C328.297 315.622 322.966 343.513 315.078 351.981L316.413 438.047" stroke="black" stroke-width="0.71775" stroke-miterlimit="10" stroke-linecap="round"/>
<path d="M306.363 422.129C306.363 422.129 323.485 452.229 335.337 472.422C342.568 484.744 346.543 498.658 346.738 512.86C346.954 528.594 345.526 546.742 338.09 549.322" stroke="black" stroke-width="0.71775" stroke-miterlimit="10" stroke-linecap="round"/>
<path d="M517.856 359.678C517.856 359.678 591.2 409.294 566.55 505.061C566.55 505.061 559.361 534.298 505.531 559.28" stroke="black" stroke-width="0.71775" stroke-miterlimit="10" stroke-linecap="round"/>
<path d="M369.66 584.827C369.66 584.827 460.362 585.926 488.103 572.978" stroke="black" stroke-width="0.71775" stroke-miterlimit="10" stroke-linecap="round"/>
<path d="M272.41 665.745C276.518 664.871 351.496 664.615 351.496 664.615" stroke="black" stroke-width="0.667" stroke-miterlimit="10" stroke-linecap="round"/>
<path d="M282.684 670.975C282.684 670.975 270.359 684.047 277.549 714.558" stroke="black" stroke-width="0.667" stroke-miterlimit="10" stroke-linecap="round"/>
<path d="M327.849 670.975C327.849 670.975 313.469 682.958 322.2 713.582" stroke="black" stroke-width="0.667" stroke-miterlimit="10" stroke-linecap="round"/>
<path d="M525.066 659.64C525.066 659.64 561.384 658.654 560.686 692.279" stroke="black" stroke-width="0.667" stroke-miterlimit="10" stroke-linecap="round"/>
<path d="M546.629 653.546C546.629 653.546 580.523 658.335 580.523 683.184" stroke="black" stroke-width="0.667" stroke-miterlimit="10" stroke-linecap="round"/>
<path d="M480.427 117.438C480.427 117.438 470.577 115.013 470.484 128.773" stroke="black" stroke-width="0.725" stroke-miterlimit="10" stroke-linecap="round"/>
<path d="M427.309 200.114C427.309 200.114 454.906 217.934 476.455 204.122" stroke="black" stroke-width="0.725" stroke-miterlimit="10" stroke-linecap="round"/>
<path d="M331.27 109.68C331.27 109.68 344.211 124.437 341.438 131.384L346.152 125.671C346.152 125.671 346.737 117.264 331.27 109.68Z" fill="#94ABD7"/>
<path d="M308.641 128.896C308.641 128.896 296.891 149.542 325.875 150.446C325.875 150.446 319.138 142.009 328.813 130.859C328.813 130.859 324.006 119.976 308.641 128.886V128.896Z" fill="#94ABD7"/>
<path d="M297.547 223.124C297.547 223.124 317.318 245.65 358.268 259.143" stroke="black" stroke-width="0.725" stroke-miterlimit="10" stroke-linecap="round"/>
<path d="M491.16 300.208C492.187 301.215 531.216 330.451 517.864 359.688" stroke="black" stroke-width="0.71775" stroke-miterlimit="10" stroke-linecap="round"/>
<path d="M371.914 206.927C371.914 206.927 393.411 209.589 402.798 197.699" stroke="black" stroke-width="0.725" stroke-miterlimit="10" stroke-linecap="round"/>
<path d="M328.611 200.485C328.611 200.485 320.816 206.959 310.391 205.325C310.391 205.325 318.751 211.82 325.201 209.374C325.201 209.374 324.729 214.44 321 215.006C320.487 215.088 325.489 216.629 329.782 215.006" stroke="black" stroke-width="0.3625" stroke-miterlimit="10" stroke-linecap="round"/>
<path d="M485.992 176.786C485.992 176.786 489.176 184.956 495.236 186.826C495.236 186.826 492.011 188.563 488.016 187.329C488.016 187.329 493.603 192.17 494.64 192.725C494.64 192.725 488.519 192.55 486.372 193.362" stroke="black" stroke-width="0.3625" stroke-miterlimit="10" stroke-linecap="round"/>
<path d="M248.73 389.727C248.73 389.727 243.05 396.345 244.909 411.668L250.517 406.046C250.517 406.046 253.886 415.418 259.627 420.937C259.627 420.937 257.203 412.654 258.466 409.715" stroke="black" stroke-width="0.358875" stroke-miterlimit="10" stroke-linecap="round"/>
<path d="M513.281 483.275C513.281 483.275 518.417 497.384 517.39 505.451C517.39 505.451 521.693 496.932 522.104 491.116C522.104 491.116 524.579 498.402 525.565 501.896C525.565 501.896 527.65 503.437 526.623 486.296" stroke="black" stroke-width="0.358875" stroke-miterlimit="10" stroke-linecap="round"/>
<path d="M400.602 200.043C400.602 200.043 391.831 211.069 385.699 210.432" stroke="black" stroke-width="0.725" stroke-miterlimit="10" stroke-linecap="round"/>
<path d="M342.998 624.885C342.998 624.885 343.511 629.684 341.457 634.042C341.457 634.042 347.168 635.881 351.502 624.063C351.502 624.063 357.89 627.937 357.89 633.168C357.89 633.168 366.107 627.064 366.107 618.349" stroke="black" stroke-width="0.3335" stroke-miterlimit="10" stroke-linecap="round"/>
<path d="M363.577 227.83C363.577 227.83 360.167 234.869 354.508 232.341C354.508 232.341 360.485 238.086 365.641 237.664C365.641 237.664 364.347 240.706 361.184 240.902C361.184 240.902 363.3 242.669 369.452 241.744" stroke="black" stroke-width="0.3625" stroke-miterlimit="10" stroke-linecap="round"/>
<path d="M522.967 273.541C522.967 273.541 527.076 276.562 530.157 283.622C530.157 283.622 525.021 280.601 523.994 280.601L525.021 284.629C525.021 284.629 520.913 282.615 516.805 282.615" stroke="black" stroke-width="0.358875" stroke-miterlimit="10" stroke-linecap="round"/>
<path d="M533.227 558.129C533.227 558.129 535.281 568.59 534.254 572.074C534.254 572.074 539.389 568.59 541.443 562.486C541.443 562.486 543.497 565.096 542.47 568.59C542.47 568.59 545.921 565.887 547.791 555.909" stroke="black" stroke-width="0.3335" stroke-miterlimit="10" stroke-linecap="round"/>
<path d="M417.629 123.358C417.629 123.358 425.876 134.025 435.192 123.296" stroke="black" stroke-width="0.3625" stroke-miterlimit="10" stroke-linecap="round"/>
<path d="M396.859 211.572C396.859 211.572 386.742 213.627 382.254 221.653" stroke="black" stroke-width="0.3625" stroke-miterlimit="10" stroke-linecap="round"/>
<path d="M418.668 129.977C418.668 129.977 428.014 133.759 433.448 130.193" stroke="black" stroke-width="0.3625" stroke-miterlimit="10" stroke-linecap="round"/>
<path d="M482.675 163.951C482.675 163.951 483.445 168.966 479.203 168.246" stroke="black" stroke-width="0.3625" stroke-miterlimit="10" stroke-linecap="round"/>
<path d="M340.704 356.769C340.704 356.769 329.304 403.25 385.793 385.102" stroke="black" stroke-width="0.71775" stroke-miterlimit="10" stroke-linecap="round"/>
<path d="M418.262 378.834C418.262 378.834 450.861 361.477 487.148 359.678" stroke="black" stroke-width="0.358875" stroke-miterlimit="10" stroke-linecap="round"/>
<path d="M456.158 634.988C455.131 640.218 454.792 645.449 455.131 650.68C455.131 650.68 457.185 646.323 461.293 641.092V648.316C461.293 648.316 466.644 644.555 468.082 638.903" stroke="black" stroke-width="0.3335" stroke-miterlimit="10" stroke-linecap="round"/>
<path d="M233.105 473.542C234.225 479.359 236.372 484.692 240.09 489.275C239.658 485.966 239.473 482.534 240.973 478.218C242.442 481.311 246.581 484.26 251.593 487.158C249.867 483.356 249.149 479.348 250.515 474.94" stroke="black" stroke-width="0.358875" stroke-miterlimit="10" stroke-linecap="round"/>
<path d="M248.69 290.846C246.964 293.682 246.245 296.806 246.41 300.208C247.909 297.402 252.171 296.251 257.163 295.532C256.311 298.08 256.444 301.04 257.163 304.246C258.303 301.472 260.234 299.468 263.459 298.697" stroke="black" stroke-width="0.358875" stroke-miterlimit="10" stroke-linecap="round"/>
<path d="M394.551 584.981C394.551 584.981 396.605 598.34 374.009 657.944C374.009 657.944 374.718 682.166 371.801 694.2C371.051 697.283 369.367 700.191 365.957 701.486C293.476 729.12 260.055 711.896 248.787 702.894C245.562 700.314 243.601 696.79 243.21 693.039C240.756 669.475 257.518 636.528 257.518 636.528L247.247 640.012C250.328 629.55 265.734 606.89 265.734 606.89C268.333 601.166 268.353 584.97 269.247 570.573L267.193 555.918" stroke="black" stroke-width="0.667" stroke-miterlimit="10" stroke-linecap="round"/>
<path d="M479.305 171.113C479.305 171.113 482.951 170.866 484.707 169.058" stroke="black" stroke-width="0.3625" stroke-miterlimit="10" stroke-linecap="round"/>
<path d="M413.034 186.384C413.034 186.384 410.549 198.058 402.805 204.737" stroke="black" stroke-width="0.3625" stroke-miterlimit="10" stroke-linecap="round"/>
<path d="M523.496 334.171C527.615 338.19 531.025 342.177 532.709 346.051C533.212 343.872 533.346 341.838 532.709 340.111C535.164 339.823 537.074 341.221 538.872 342.968C538.913 340.286 537.413 337.542 534.763 334.747" stroke="black" stroke-width="0.358875" stroke-miterlimit="10" stroke-linecap="round"/>
<path d="M383.239 244.826C383.239 244.826 381.832 252.626 387.666 257.97" stroke="black" stroke-width="0.3625" stroke-miterlimit="10" stroke-linecap="round"/>
<path d="M379.877 224.203C379.877 224.203 373.108 231.17 375.368 243.667" stroke="black" stroke-width="0.3625" stroke-miterlimit="10" stroke-linecap="round"/>
<path d="M421.125 134.724C421.125 134.724 424.751 137.376 429.958 136.132" stroke="black" stroke-width="0.3625" stroke-miterlimit="10" stroke-linecap="round"/>
<path d="M392.566 108.417C392.566 108.417 400.239 107.03 402.806 110.688" stroke="black" stroke-width="0.3625" stroke-miterlimit="10" stroke-linecap="round"/>
<path d="M441.75 114.181C441.75 114.181 445.437 111.263 448.518 113.318" stroke="black" stroke-width="0.3625" stroke-miterlimit="10" stroke-linecap="round"/>
<path d="M378.83 231.981C378.83 231.981 376.961 239.216 378.07 247.437" stroke="black" stroke-width="0.3625" stroke-miterlimit="10" stroke-linecap="round"/>
<path d="M369.66 533.044C374.056 538.963 373.163 548.397 371.55 558.303C378.647 554.306 383.721 549.013 385.868 541.851C389.75 545.674 391.619 549.455 391.496 553.196C399.476 547.904 401.51 536.332 402.506 523.682" stroke="black" stroke-width="0.3625" stroke-miterlimit="10" stroke-linecap="round"/>
<path d="M269.875 634.134C271.775 640.598 272.597 647.072 272.35 653.536C274.939 650.093 276.263 646.558 275.298 642.828C278.482 644.975 280.772 647.699 282.683 650.669C285.179 647.493 284.942 643.444 283.094 638.892" stroke="black" stroke-width="0.3625" stroke-miterlimit="10" stroke-linecap="round"/>
<path d="M446.211 302.088C446.211 302.088 454.315 308.018 461.936 322.426L451.459 319.805C451.459 319.805 460.672 327.379 463.055 334.162L455.208 332.651C455.208 332.651 460.919 339.844 461.638 346.041" stroke="black" stroke-width="0.71775" stroke-miterlimit="10" stroke-linecap="round"/>
<path d="M337.582 386.675C337.582 386.675 356.07 406.149 380.206 393.334" stroke="black" stroke-width="0.358875" stroke-miterlimit="10" stroke-linecap="round"/>
<path d="M503.957 357.901C503.957 357.901 517.052 364.221 521.284 364.138" stroke="black" stroke-width="0.358875" stroke-miterlimit="10" stroke-linecap="round"/>
<path d="M328.34 171.894C319.384 177.043 313.437 177.926 305.385 175.768C310.459 181.667 314.957 183.229 319.096 182.171C314.033 186.867 307.624 187.905 300.66 187.412C312.677 193.177 318.46 194.338 334.503 193.475" stroke="black" stroke-width="0.358875" stroke-miterlimit="10" stroke-linecap="round"/>
<path d="M338.898 178.256C338.898 178.256 347.844 185.635 356.718 183.487" stroke="black" stroke-width="0.3625" stroke-miterlimit="10" stroke-linecap="round"/>
<path d="M339.762 186.385C339.762 186.385 351.245 188.286 356.37 185.327" stroke="black" stroke-width="0.3625" stroke-miterlimit="10" stroke-linecap="round"/>
<path d="M347.262 190.473C347.262 190.473 356.033 189.702 357.728 186.558" stroke="black" stroke-width="0.3625" stroke-miterlimit="10" stroke-linecap="round"/>
<path d="M479.227 172.121C479.227 172.121 484.095 175.091 485.964 173.59" stroke="black" stroke-width="0.3625" stroke-miterlimit="10" stroke-linecap="round"/>
<path d="M470.359 127.901C470.359 127.901 483.711 123.79 484.739 120.707C484.739 120.707 485.766 123.79 483.989 126.647C483.989 126.647 493.212 129.679 499.118 125.846C499.118 125.846 500.699 134.653 485.766 136.122C485.766 136.122 496.036 138.958 498.091 144.343C498.091 144.343 486.793 140.305 479.603 142.997C479.603 142.997 472.444 129.268 470.359 127.901Z" fill="white" stroke="black" stroke-width="0.41325" stroke-miterlimit="10" stroke-linecap="round"/>
<path d="M329.964 132.298C329.964 132.298 317.783 131.671 315.164 127.9C315.164 127.9 314.506 132.01 316.797 134.98C316.797 134.98 309.34 142.349 295.238 138.896C295.238 138.896 300.877 146.757 312.596 146.757C312.596 146.757 306.67 153.005 307.635 156.17C307.635 156.17 319.714 149.08 325.137 149.984C325.537 150.046 325.845 149.655 325.65 149.306C324.284 146.86 322.189 140.55 329.964 132.308V132.298Z" fill="white" stroke="black" stroke-width="0.453125" stroke-miterlimit="10" stroke-linecap="round"/>
<path d="M344.831 297.536C338.812 302.366 337.466 308.748 337.59 315.612C338.493 312.776 340.27 310.258 346.772 309.498C346.104 311.245 347.172 314.215 348.662 317.503C350.007 314.133 351.979 311.132 355.851 309.282" stroke="black" stroke-width="0.358875" stroke-miterlimit="10" stroke-linecap="round"/>
<path d="M522.762 633.507C525.596 636.713 525.822 640.598 525.083 644.739C528.883 641.697 531.964 638.902 533.248 636.693L534.696 644.739C540.099 639.95 542.677 633.651 543.293 626.313" stroke="black" stroke-width="0.358875" stroke-miterlimit="10" stroke-linecap="round"/>
<path d="M432.881 268.175C432.881 268.175 433.908 291.287 430.313 297.196L427.478 299.375C427.478 299.375 430.898 278.739 424.191 271.402L432.891 268.175H432.881Z" fill="#94ABD7"/>
<path d="M434.928 278.453C434.928 278.453 445.199 297.978 438.009 311.338C438.009 311.338 438.708 290.785 434.25 288.215L434.928 278.453Z" fill="#94ABD7"/>
<path d="M447.006 275.266L451.289 284.628L457.513 290.794C457.513 290.794 457.031 279.274 446.996 275.266H447.006Z" fill="#94ABD7"/>
<path d="M476.483 212.507C476.483 212.507 484.217 223.924 471.091 245.937C470.403 247.088 469.797 248.29 469.263 249.523C467.732 253.069 463.172 261.516 452.829 266.778C452.829 266.778 459.156 278.74 458.838 293.497C458.838 293.497 454.442 287.68 451.864 286.149C451.864 286.149 450.313 296.95 436.961 313.392C436.961 313.392 439.714 291.811 434.229 288.215C434.229 288.215 432 297.278 427.286 300.197C427.286 300.197 430.983 283.313 423.188 270.601C415.146 269.48 405.789 266.87 394.912 262.194C391.235 260.612 387.887 258.351 385.073 255.504C379.845 250.232 371.71 240.531 367.633 228.066" stroke="black" stroke-width="0.725" stroke-miterlimit="10" stroke-linecap="round"/>
<path d="M452.217 250.602C452.217 250.602 452.905 266.644 450.851 273.837C450.851 273.837 449.669 270.169 447.697 267.373C447.697 267.373 441.607 280.003 438.526 282.059C438.526 282.059 441.638 270.251 440.6 269.48C440.6 269.48 432.363 275.893 431.336 274.865C431.336 274.865 438.526 262.533 439.737 260.457" fill="#94ABD7"/>
<path d="M452.217 250.602C452.217 250.602 452.905 266.644 450.851 273.837C450.851 273.837 449.669 270.169 447.697 267.373C447.697 267.373 441.607 280.003 438.526 282.059C438.526 282.059 441.638 270.251 440.6 269.48C440.6 269.48 432.363 275.893 431.336 274.865C431.336 274.865 438.526 262.533 439.737 260.457" stroke="black" stroke-width="0.3625" stroke-miterlimit="10" stroke-linecap="round"/>
<path d="M377.413 210.843C377.413 210.843 368.117 216.763 369.432 221.664" stroke="black" stroke-width="0.3625" stroke-miterlimit="10" stroke-linecap="round"/>
<path d="M367.664 193.353C367.664 193.353 390.702 166.14 402.811 166.13C402.811 166.13 398.097 158.443 393.156 157.652C393.156 157.652 368.63 170.22 361.984 186.149L367.664 193.353Z" fill="black"/>
<path d="M363.555 163.036L373.353 154.999C373.353 154.999 399.636 180.66 400.602 189.323L393.145 196.136C393.145 196.136 368.69 162.018 363.555 163.046V163.036Z" fill="black"/>
<path d="M436.48 158.926L441.996 150.458C441.996 150.458 467.293 164.064 473.455 179.479L469.388 186.981C469.388 186.981 451.887 163.036 436.48 158.926Z" fill="black"/>
<path d="M461.646 150.458L471.383 157.898C471.383 157.898 465.642 179.479 458.236 184.617L450.77 178.266C450.77 178.266 462.18 157.405 461.646 150.458Z" fill="black"/>
<path d="M453.871 243.121C453.871 243.121 430.833 264.846 385.385 231.406C381.43 228.498 378.277 238.466 378.277 238.466" stroke="black" stroke-width="0.725" stroke-miterlimit="10" stroke-linecap="round"/>
<path d="M453.861 243.666L460.732 247.088C471.65 271.547 462.139 282.234 462.139 282.234C456.449 291.73 447.38 288.924 441.259 285.369C437.839 283.385 435.877 279.49 436.657 275.616C439.081 263.562 428.574 249.945 428.574 249.945C428.574 249.945 448.664 249.288 453.861 243.666Z" fill="#CE7E7E" stroke="black" stroke-width="0.725" stroke-miterlimit="10" stroke-linecap="round"/>
<path d="M398.723 247.438C398.723 247.438 413.461 264.455 431.897 264.353" stroke="black" stroke-width="0.3625" stroke-miterlimit="10" stroke-linecap="round"/>
<path d="M452.316 250.059C452.316 250.059 459.301 264.322 453.282 279.696" stroke="black" stroke-width="0.3625" stroke-miterlimit="10" stroke-linecap="round"/>
</svg>
