<?xml version="1.0" encoding="UTF-8"?>
<svg id="_5" data-name="5" xmlns="http://www.w3.org/2000/svg" viewBox="0 0 480 687">
  <defs>
    <style>
      .cls-1, .cls-2 {
        fill: #94abd7;
      }

      .cls-3, .cls-4 {
        fill: #fff;
      }

      .cls-5, .cls-6 {
        fill: none;
      }

      .cls-5, .cls-6, .cls-2, .cls-4, .cls-7 {
        stroke: #000;
        stroke-linecap: round;
        stroke-miterlimit: 10;
      }

      .cls-8 {
        fill: #594747;
      }

      .cls-6, .cls-2, .cls-4, .cls-7 {
        stroke-width: 2px;
      }

      .cls-7 {
        fill: #2e2828;
      }
    </style>
  </defs>
  <path class="cls-4" d="m263.91,36.53s10.89-9.25,22.59-11.29c9.45-1.65,18.41,4.73,20.45,14.11,2.41,11.13,4.64,29.96-6.84,33.43"/>
  <path class="cls-1" d="m280.61,27.79s-6.1,18.94-3.55,26.97c0,0-12.39-19.28-10.95-18.31.5.34,3.5-5.22,14.5-8.66Z"/>
  <path class="cls-1" d="m291.53,38.41s13.08-7.62,13.08,17.38c0,0-2.7,12.76-8.76,12.13-1.24-.13-9.44-18.19-9.44-18.19,0,0,2.05-12.7,5.13-11.32Z"/>
  <path class="cls-3" d="m228.61,13.79s-8.5,13.5-17.5,13.5c0,0-32.45,7.92-46.22,21.96,0,0-26.54,23.04-31.66,47.04,0,0-7.71,23.35-19.91,31.18,0,0,6.8,5.82,14.3,5.32,0,0-4.41,4.5-9.96,5,0,0,5.46,15.01,12.96,20.25,0,0-42.82,43.25-58.66,45.75,0,0-23.84,30.5-31.84,149.5,0,0-1,30.51,0,35.76,0,0,5-11.76,7-12.76,0,0,10.62,45,39.31,77.5,0,0,6.69,13.5,8.69,18.5,0,0-1,59-6,72,0,0-15,26-18,38l10-4s-19,44-13,71c0,0,29,46,124,1,0,0,2-54,9-77,0,0,17.69-47.04,16.35-57.52l46.32-6.48s2.86,64.96-19.4,98.48l-8.17,10.02,12.26-2.76-2.35,13.26s82.72,37.87,138.86,13.94c0,0,20.14-8.94,10.14-31.94,0,0,.69-15.45-36.15-24.22,0,0,15.15-51.78,11.15-67.78l6.19,14.41s3.11-70.75-1.54-89.08c0,0,36.35,14.67,44.35-20.33,0,0,15-48-24-105,0,0-32.26-74-33.63-85.5-6.87-25.44-14.4-46.36-23.46-56.78,0,0-20.52-13.9-33.22-16.31,0,0,29.73-22.41,25.81-45.91l-11,3,6-14s-20-17.31-23-26c0,0-5-20-14.4-27.54,0,0-23.1-21.96-44.1-21.96,0,0,6.5-9.5,4.5-14.5,0,0-7,9-15.5,12.5,0,0-.5-8.5-4.5-11.5Z"/>
  <path class="cls-1" d="m182.61,476.79s-5.34,25-12,28l-10,8-4-6s-5,11-14,6c-.3-.17-7,8-7,8l-2-9s-5,3-11,1l-7,6-2-8s-14.89,26.41-23.45,70.21c0,0-25.69,51.39,7.38,66.09,0,0,3.58-24.87,6.33-23.58s-4.73,37.62,37.51,29.45c0,0-2.58-19.8,2.83-25.49,0,0-2.04,29.19,46.69,14.75,0,0,15.01,15.43-59.13,27,0,0-53.15,5.57-64.07-22.14,0,0-2.9-36.27,16.01-71.28l-12.23,5.2,18.06-37.93,5.58-70.77,15.58,1.68c8.84,9.39,16.82,15.56,19.63,2.12,12.67,12.1,21.94,15.26,25.22,2.72,11.58,6.4,20.91,9.39,23.81,2.57l3.27-4.59Z"/>
  <path class="cls-1" d="m118.61,122.89s8,9.28,28,3.09c0,0-18.6,13.16-33.3,1.49l5.3-4.57Z"/>
  <path class="cls-1" d="m239.85,103s33.45-2.87,50.1,10.46c0,0-18.37-28.76-50.86-10.72"/>
  <path class="cls-1" d="m255.61,139.79s11.11,18.31,19.06,17.16c0,0-14.93,17.94-40.99,1.89,0,0,17.94,21.4,40.94,6.67,0,0-5,33.28-63,9.03,0,0,35,32.25,75.61,6.87,0,0,15.54-9.91,17.46-42.76,0,0-1.08-10.28-6.08-11.07l-43,12.21Z"/>
  <polygon class="cls-1" points="323.61 101.79 312.59 120.79 318.61 117.79 325.32 103.46 323.61 101.79"/>
  <path class="cls-1" d="m329.61,114.79s-18,35.77-29,40.38l-2,6.3s9.83,2.49,30-28.68c0,0,4-6,1-18Z"/>
  <path class="cls-1" d="m118.93,138.64s46.68,37.15,74.68,47.15c0,0-49.76-7.15-71.88-39.08l-2.8-8.07Z"/>
  <path class="cls-1" d="m218.61,306.79s61-30.03,90.27-33.73c2.39-.3,4.71-.99,6.91-1.96,6.72-2.98,18.88-9.59,15.89-17.51,0,0,11.25,16.83,3.58,36.01,0,0-24.66-18.82-116.66,17.18Z"/>
  <path class="cls-1" d="m256.04,580.99s94.8-73.22,96.98-112.99c0,0-55.41,34.78-162.41,47.78l73.17-6.5s2.69,16.91-7.74,71.71Z"/>
  <path class="cls-1" d="m278.77,223.2s2.86,7.59-.65,9.59l-4.51-11,5.17,1.41Z"/>
  <path class="cls-1" d="m171.37,180.16l-90.74,38.13s-32.83,81.63-20.43,137.56c0,0,38.96,108.81,54.18,121.87,0,0,6.22,14.06,11.22,14.06,0,0-8.19,8.6-23.09-9.2l-15.37-28.8s-24.53-19-39.53-78l-7,11s-6-105,31-182c.51-1.06.41-2.78,2.41-3.78,14-18,32.85-28.53,56.59-43.22l40.76,22.37Z"/>
  <path class="cls-1" d="m338.26,277.21c4.23-.64,44.28,35.95,45.62,80.14.22,7.38,4.31,20.37,3.14,27.66.97,26.66-3.71,45.21-11,60,6.66-1.77,37.83-90.39-40.41-156.22l2.65-11.57Z"/>
  <path class="cls-1" d="m386.02,416.01s8.36,31.72,1,33l-11-4c4.05-7.75,8.59-17.25,10-29Z"/>
  <path class="cls-1" d="m410.61,415.79s1.35,26.6-3.43,26.96c-.57.04-5.02,2.14-5.02,2.14l8.44-29.1Z"/>
  <path class="cls-1" d="m248.61,617.79s71.96,32.98,125.98,14.49l2.02,1.51c2.66,1.58,17.44-1.04,17.46-10.28,0-2.66,3.29-3.77,3.54-5.72,0,0,11,26-42.2,31.69,0,0-52.65,3.43-100.72-17.63l-8.51-3.89,2.44-10.17Z"/>
  <polygon class="cls-1" points="147.91 269.87 165.92 394.32 149.61 372.26 141.61 285.79 147.91 269.87"/>
  <path class="cls-1" d="m130.5,460.79s9.63,17.52,10.87,37.26c0,0-11.76-3.26-11.76-9.26l.89-28Z"/>
  <path class="cls-1" d="m152.5,455.77s11.88,21.4,13.99,36.71l-11.11.94s1.01-25.67-2.89-37.65Z"/>
  <path class="cls-1" d="m173.5,446.29s10.42,16.7,9.76,29.6l-3.93,4.09-5.84-33.69Z"/>
  <path class="cls-6" d="m228.61,13.79s-8.5,13.5-17.5,13.5c0,0-32.45,7.92-46.22,21.96,0,0-26.54,23.04-31.66,47.04,0,0-7.71,23.35-19.91,31.18,0,0,6.8,5.82,14.3,5.32,0,0-4.41,4.5-9.96,5,0,0,5.46,15.01,12.96,20.25,0,0-34.59,15.96-58.66,45.75,0,0-23.84,30.5-31.84,149.5,0,0-1,30.51,0,35.76,0,0,5-11.76,7-12.76,0,0,10.62,45,39.31,77.5,0,0,6.69,13.5,8.69,18.5,0,0-1,59-6,72,0,0-15,26-18,38l10-4s-16.32,37.79-13.93,64.82c.38,4.3,2.29,8.34,5.43,11.3,10.97,10.33,43.51,30.08,114.08-1.62,3.32-1.49,5.51-4.73,5.69-8.36.74-14.6,3.14-52.77,8.73-71.14,0,0,17.69-47.04,16.35-57.52l46.32-6.48s2.86,64.96-19.4,98.48l-8.17,10.02,12.26-2.76-1.85,10.45c-.29,1.66.59,3.29,2.14,3.95,14.53,6.16,86.01,34.2,136.23,12.79,0,0,20.14-8.94,10.14-31.94,0,0,.69-15.45-36.15-24.22,0,0,15.15-51.78,11.15-67.78l6.19,14.41s4.37-68.36-.28-86.7c0,0,35.09,12.28,43.09-22.72,0,0,15-48-24-105,0,0-32.26-74-33.63-85.5l-12.46-37.78c-2-9-8-17-16-23-10.53-7.9-20.84-10.91-28.22-12.31,0,0,29.73-22.41,25.81-45.91l-11,3,6-14s-20-17.31-23-26c0,0-5-20-14.4-27.54,0,0-23.1-21.96-44.1-21.96,0,0,6.5-9.5,4.5-14.5,0,0-7,9-15.5,12.5,0,0-.5-8.5-4.5-11.5Z"/>
  <path class="cls-4" d="m149.44,94.29s-39.34.19-26.09-29.65c0,0,11.26-25.85,24.26-22.85,0,0,17,4,20,15"/>
  <path class="cls-6" d="m251.61,96.79c-.85-2.44-1-4.48-1-7.25,0-15.05,9.83-27.25,23.5-27.25s26,16,26,27.25c0,9.54-3.35,17.34-9.29,21.76"/>
  <path d="m274.61,86.29c0,6.35-4.65,10.5-11,10.5s-12-4.15-12-10.5,5.15-11.5,11.5-11.5,11.5,5.15,11.5,11.5Z"/>
  <path class="cls-2" d="m254.3,75.04c2.44-1.48,16.19-8.58,41.39,1.63.1.04.19-.06.13-.15-1.21-1.93-8.91-13.31-21.71-14.22,0,0,0,0,0,0-.12,0-12.17.06-19.94,12.59-.06.1.04.22.14.16Z"/>
  <path class="cls-7" d="m252.37,121.3s2.23-12.51,40.23-7.51c0,0,14,1,8,18,0,0-4.19,15-17.6,17.5,0,0-34.87,1.52-30.64-27.99Z"/>
  <ellipse class="cls-4" cx="208.11" cy="102.54" rx="27.5" ry="27.25"/>
  <circle cx="205.11" cy="98.29" r="11.5"/>
  <circle class="cls-3" cx="210.11" cy="94.29" r="4.5"/>
  <circle class="cls-3" cx="267.11" cy="81.29" r="4.5"/>
  <path class="cls-2" d="m180.51,101.82c.04.38.43.62.79.5,3.51-1.16,19.74-6.96,31.32-18.53.87-.87,4.2-3.3,8.62-3.89.59-.08.71-.87.18-1.13-4.57-2.27-17.17-6.93-30.32,2.36,0,0-12,8.8-10.59,20.69Z"/>
  <path class="cls-6" d="m283.61,149.79s4.98-2.51,3.24-22"/>
  <path class="cls-6" d="m259.11,141.29s8.5-9.5,20.5,7.5"/>
  <path class="cls-8" d="m259.61,115.79s-1.27,11.74,29,10c0,0-16,6-36-4,0,0,3-5,7-6Z"/>
  <path class="cls-6" d="m198.61,59.79s13-11,26-10"/>
  <path class="cls-6" d="m263.11,46.92s12.73-2,23.11,4.94"/>
  <path class="cls-6" d="m235.21,107.11s24.39-28.32,57.39,6.68"/>
  <path class="cls-6" d="m218.61,147.79s2.85-6.5,7.43-5.25"/>
  <path class="cls-6" d="m283.61,149.3l-1,11.49s11,7,16,2"/>
  <path class="cls-6" d="m221.25,144.03s15.36,24.76,35.36,26.76c0,0,7,1,26-10"/>
  <path class="cls-6" d="m254.97,190.41c-7.76-.35-16.87-1.95-27.56-5.3-3.72-1.16-7.18-3.02-10.19-5.5-5.58-4.59-14.43-13.16-19.61-24.83"/>
  <path class="cls-6" d="m301.48,128.9s8.63,10.28-1.91,32.89c-.55,1.19-1.02,2.41-1.41,3.66-1.3,4.12-5.83,14.9-18.85,20.88"/>
  <path class="cls-6" d="m130.61,63.79s17-14,26,9"/>
  <path class="cls-6" d="m150.61,83.79s-9.23-8.31,1.38-19.15"/>
  <path class="cls-6" d="m264.61,203.79s15,7,20,21l-11-3s3,6,4,11"/>
  <path d="m114.9,490.03c2.55-3.19,8.24-8.81,11.39-.2.22.61.28,1.27.14,1.91-.64,3.01-3.14,12.22-9.82,13.06,0,0-.78-6.27-2.35-11.18-.39-1.23-.17-2.57.64-3.59Z"/>
  <path d="m139.46,492.35c2.14-3.39,7.75-10.77,10.15.44,0,0-1,13-9,14l-1.77-11.49c-.16-1.03.07-2.07.62-2.95Z"/>
  <path d="m162.57,488.22c3.02-3.56,8.6-8.5,10.03,1.57,0,0-2,12-9,12,0,0-.6-5.98-1.79-9.15-.57-1.5-.28-3.2.76-4.42Z"/>
  <path d="m386.61,444.98c0-1.4.87-2.63,2.18-3.12,2.94-1.09,7.82-2.26,7.82,1.93,0,0-3,12.36-10,11.68v-10.49Z"/>
  <path d="m408.61,437.79s5-3,5,0c0,0-5,12-7,13l-.83-9.13c-.1-1.15.43-2.27,1.39-2.91l1.44-.96Z"/>
  <path class="cls-6" d="m128.61,460.79s5.68,30.75-2.66,32.88c0,0-17.34,9.12-32.34-27.88"/>
  <path class="cls-6" d="m129.15,490.23c5.54,10.44,19.56,7.32,19.56,7.32,13.1-4.24,2.9-43.76,2.9-43.76"/>
  <path class="cls-6" d="m172.61,443.47s15.36,45.27-.32,47.79c0,0-12.79,3.54-18.68,1.53"/>
  <path class="cls-6" d="m218.61,306.79s67-27,94-22"/>
  <path class="cls-6" d="m151.61,248.79s-3,28-10,37l8,85"/>
  <path class="cls-6" d="m138.61,355.85s18.96,28.41,32.04,47.43c7.98,11.61,12.92,25.06,14.21,39.08,1.43,15.54,1.46,33.6-5.55,36.74"/>
  <path class="cls-6" d="m334.61,287.79s71.41,49.22,47.41,144.22c0,0-7,29-59.41,53.78"/>
  <path class="cls-6" d="m190.88,516.53s88.14-5.65,114.13-20.52"/>
  <path class="cls-6" d="m95.61,611.79c4-1,77-1.3,77-1.3"/>
  <path class="cls-6" d="m105.61,617.79s-12,15-5,50"/>
  <path class="cls-6" d="m149.61,617.79s-14,13.74-5.5,48.87"/>
  <path class="cls-6" d="m341.61,604.79s35.36-1.13,34.68,37.44"/>
  <path class="cls-6" d="m362.61,597.79s33,5.49,33,34"/>
  <path class="cls-6" d="m409.61,415.26s-3.75,24.97-9.38,30.25"/>
  <path class="cls-6" d="m295.84,36.49s-9.78-1.37-8.51,11.96"/>
  <path class="cls-6" d="m252.61,121.79s28.5,14.51,48-1"/>
  <path class="cls-1" d="m150.61,43.79s14,13,12,20l4-6s-.27-8.19-16-14Z"/>
  <path class="cls-1" d="m130.61,64.63s-9.34,21.15,18.83,19.15c0,0-7.37-7.5.9-19.25,0,0-5.73-10.06-19.73.1Z"/>
  <path class="cls-6" d="m129.22,156.95s21.39,19.84,62.39,28.84"/>
  <path class="cls-6" d="m308.61,228.79c1,1,39,30,26,59"/>
  <path class="cls-6" d="m199.63,133.89s21.09.44,29-12"/>
  <path class="cls-5" d="m157.05,131.94s-6.91,7.04-17.16,6.49c0,0,8.74,5.45,14.74,2.45,0,0,.05,4.95-3.51,5.87-.49.13,4.51,1.13,8.51-.87"/>
  <path class="cls-5" d="m307.13,93.39s3.89,7.6,9.95,8.8c0,0-2.95,2-6.95,1.2,0,0,5.89,4.13,6.95,4.56,0,0-5.95.44-7.95,1.44"/>
  <path class="cls-5" d="m80.13,328.39s-5,7-2,22l5-6s4,9,10,14c0,0-3-8-2-11"/>
  <path class="cls-5" d="m330.13,410.39s5,14,4,22c0,0,4.19-8.45,4.59-14.22,0,0,2.41,7.22,3.37,10.7,0,0,2.03,1.53,1.03-15.47"/>
  <path class="cls-6" d="m226.73,124.37s-7.41,11.54-13.41,11.54"/>
  <path class="cls-5" d="m164.32,564.91s.5,5.5-1.5,10.5c0,0,5.56,2.11,9.78-11.45,0,0,6.22,4.45,6.22,10.45,0,0,8-7,8-17"/>
  <path class="cls-5" d="m193.63,154.95s-2.61,7.15-8.34,5.27c0,0,6.36,4.97,11.31,4.05,0,0-.95,3.07-4,3.57,0,0,2.23,1.5,8.09,0"/>
  <path class="cls-5" d="m339.56,202.34s4,3,7,10c0,0-5-3-6-3l1,4s-4-2-8-2"/>
  <path class="cls-5" d="m349.56,488.34s2,12,1,16c0,0,5-4,7-11,0,0,2,3,1,7,0,0,3.36-3.1,5.18-14.55"/>
  <path class="cls-6" d="m210.8,163.72s-2.71,6.34,2.52,12.47"/>
  <path class="cls-5" d="m235.61,48.45s9.05,9.51,17-1.81"/>
  <path class="cls-5" d="m224.25,135.91s-9.59,3-13.14,11.21"/>
  <path class="cls-5" d="m237.27,54.76s9.43,2.73,14.34-1.26"/>
  <path class="cls-5" d="m173.52,111.51s3.08,3.56,9.54,2.28"/>
  <path class="cls-5" d="m302.63,81.29s1.24,4.78-2.94,4.5"/>
  <path class="cls-6" d="m162.11,284.9s-11.1,46.11,43.9,28.11"/>
  <path class="cls-5" d="m237.61,306.79s31.74-17.22,67.07-19"/>
  <path class="cls-5" d="m274.52,576.51c-1,6-1.33,12-1,18,0,0,2-5,6-11v8.29s5.21-4.31,6.61-10.8"/>
  <path class="cls-5" d="m71.52,412.51c1.54,5.66,4.03,10.76,8,15-.67-3.24-1.12-6.62,0-11,1.67,2.94,5.91,5.53,11,8-1.97-3.63-2.98-7.53-2-12"/>
  <path class="cls-5" d="m72.52,219.51c-1.68,2.81-2.38,5.92-2.22,9.28,1.46-2.78,5.61-3.93,10.47-4.64-.83,2.53-.7,5.46,0,8.64,1.11-2.75,2.99-4.74,6.13-5.5"/>
  <path class="cls-5" d="m344.52,262.51s6.62,9.4,7.31,14.7c0,0,2.69-5.7,1.69-8.7,0,0,7.32,1.32,8.16,5.16,0,0-.16-11.16-2.16-12.16"/>
  <path class="cls-2" d="m187.62,119.89c5.27.81,34.38,4.06,47.16-20.24.13-.25.5-.18.52.1.26,4.34.3,22.19-16.31,27.83,0,0-16.96,7.71-31.6-7.21-.19-.19-.02-.52.24-.47Z"/>
  <path class="cls-2" d="m251.48,91.58c5.38,1.79,34.83,11.39,45.66,9.97.4-.05.68.36.5.71-1.24,2.47-4.89,9.28-7.48,9.04,0,0-21.38-21.46-39.15-14.3l-.32-4.82c-.03-.43.38-.75.79-.61Z"/>
  <path class="cls-6" d="m279.02,186.01c-.65,3.4-2.05,5.7-5.41,7.32,1.35-2.28,2.28-5.72,3.13-9.36-4.8,6.18-9.53,12.81-15.22,12.54,1.97-2.35,3.47-6.36,4.86-10.72-4.47,4.37-8.92,8.58-12.86,8.72l1.5-3.5"/>
</svg>