<?xml version="1.0" encoding="UTF-8"?>
<svg id="_9" data-name="9" xmlns="http://www.w3.org/2000/svg" viewBox="0 0 480 687">
  <defs>
    <style>
      .cls-1, .cls-2, .cls-3 {
        fill: #94abd7;
      }

      .cls-4, .cls-5, .cls-6, .cls-7 {
        fill: #fff;
      }

      .cls-8, .cls-9, .cls-10, .cls-11, .cls-12, .cls-2, .cls-3, .cls-13, .cls-5, .cls-14, .cls-6, .cls-15, .cls-7 {
        stroke: #000;
        stroke-linecap: round;
        stroke-miterlimit: 10;
      }

      .cls-8, .cls-9, .cls-10, .cls-11, .cls-12, .cls-13 {
        fill: none;
      }

      .cls-9 {
        stroke-width: .99px;
      }

      .cls-16 {
        fill: #594747;
      }

      .cls-10, .cls-3, .cls-14, .cls-6, .cls-15 {
        stroke-width: 2px;
      }

      .cls-11 {
        stroke-width: 1.84px;
      }

      .cls-12 {
        stroke-width: .92px;
      }

      .cls-13 {
        stroke-width: 1.98px;
      }

      .cls-5 {
        stroke-width: 1.25px;
      }

      .cls-14 {
        fill: #ce7e7e;
      }

      .cls-15 {
        fill: #2e2828;
      }

      .cls-7 {
        stroke-width: 1.14px;
      }
    </style>
  </defs>
  <path class="cls-6" d="m284.09,61.44s11.78-8.09,23.63-8.92c9.57-.67,17.84,6.59,18.9,16.12,1.27,11.32,1.56,30.27-10.22,32.56"/>
  <path class="cls-1" d="m301.59,54.44s-7.99,18.22-6.28,26.47c0,0-10.36-20.44-9.03-19.33.46.39,4.01-4.84,15.31-7.14Z"/>
  <path class="cls-1" d="m311.38,66.12s13.79-6.24,11.24,18.63c0,0-3.99,12.42-9.96,11.17-1.22-.25-7.54-19.06-7.54-19.06,0,0,3.34-12.43,6.26-10.74Z"/>
  <path class="cls-4" d="m355.04,149.61c-6.61-2.42-14.84-3.03-23.94-2.66,3.35-9.24,8.78-14.13,16.94-13.34-4-2-28.33-16.42-29.77-28.18,0,0-2.93-20.41-11.52-28.86,0,0-20.74-24.2-41.63-26.34,0,0,7.43-8.79,5.95-13.97,0,0-7.88,8.24-16.69,10.85,0,0,.37-8.51-3.3-11.9,0,0-9.83,12.56-18.79,11.65,0,0-33.09,4.57-48.22,17.14,0,0-28.75,20.21-36.29,43.57,0,0-13.74,25.05-32.74,27.05,0,0,15.92,8.42,23.43,8.69,0,0-23.43,8.31-30.43,11.31,0,0,23.91,8.13,30.84,14.11l3.16,2.89c-9.84,4.08-29.17,13.62-50.36,35.51,0,0-11.79,4.03-21.21,12.26,5.85-1.63,10.44-1.78,13.4,0-9.08,17.21-24.28,55.33-35.66,131.37,0,0-3.39,29.75-2.81,34.96,0,0,5.91-11.09,7.98-11.91,0,0,7.05,44.85,33.1,78.93,0,0,5.61,13.74,7.21,18.79l14.36,19.84,2,14.26c-.87,14-.89,29.76-3.42,35.34,0,0-15,22.05-18,32.23l10-3.39s-16.32,32.06-13.93,54.99c.38,3.65,2.29,7.07,5.43,9.59,10.97,8.76,43.51,25.52,114.08-1.37,3.32-1.26,4.96-4.09,5.69-7.09,2.85-11.72,2.15-35.28,2.15-35.28,22-58,20-71,20-71l49.08-3.09.25,4.83c-.33,17.25-3.12,52.54-19.49,73.44l-8.17,8.5,12.26-2.34-1.85,8.87c-.29,1.41.59,2.79,2.14,3.35,14.53,5.22,86.01,29.01,136.23,10.85,0,0,20.14-7.58,10.14-27.09,0,0,.69-13.1-36.15-20.55,0,0,15.15-43.92,11.15-57.49l6.19,12.23s2.87-38.05,1.48-60.77l-.06-19.31,4.3-9.19c10.73-41.65,2.39-74.33-10.1-97.74l-.72-.56c-6.82-35.17-3.67-29.93-7.67-77.93,1-2,7-1,7-1-4-5-14.05-16.19-14.05-16.19l-12.46-37.06c-2-8.83-11.49-14.86-19.49-20.75,0,0-15.34-10.15-19.17-10.58l-1.15-2.7"/>
  <path class="cls-1" d="m179.1,302.35s27.88,26.33,83.51,4.8c0,0-45.24,26.94-70.3,20.7,0,0-16.36-5.76-13.21-25.5Z"/>
  <path class="cls-1" d="m313.22,174.71s28.44-25.25,39.33-25.11c.7,0,1.93.5,1.93.5,0,0-33.24,25.26-41.74,37.39l-4.23-.84,4.7-11.93Z"/>
  <path class="cls-1" d="m330.29,147.37s-3.89-9.95,11.54-17.35l5.42,3.06s-14.92,3.05-16.96,14.29Z"/>
  <path class="cls-1" d="m109.66,153.93s24.86-9.47,68.23,26.11l18.53,21.37s-36.99-11.56-57.58-32.68c0,0-18.78-11.48-29.18-14.8Z"/>
  <path class="cls-1" d="m177.25,485.61c-3.28,10.64-11.33,9.27-24-1-2.81,11.4-16,4.65-24.84-3.31l-22.16-1.69,4.45,23.17-3.45,37.12-18.06,32.18,12.23-4.41c-18.91,29.7-16.01,60.47-16.01,60.47,10.93,23.5,64.07,18.78,64.07,18.78,74.15-9.81,59.13-22.9,59.13-22.9-48.72,12.25-46.69-12.51-46.69-12.51-5.41,4.82-2.83,21.62-2.83,21.62-42.24,6.93-34.76-23.9-37.51-24.98s-6.33,20-6.33,20c-33.07-12.47-7.38-56.06-7.38-56.06,8.55-37.15,23.45-59.55,23.45-59.55l2,6.79,7-5.09c6,1.7,11-.85,11-.85l2,7.63s6.7-6.93,7-6.79c9,4.24,14-5.09,14-5.09,0,0,3.64-10.41,3.28-13.47,0,0,5.64-5.06,5.64-10.06l-.69-7.13-5.31,7.13"/>
  <path class="cls-1" d="m124.25,132.61s18,10,34.03,5.85c0,0-23.03,12.15-42.03-3.85l8-2Z"/>
  <path class="cls-1" d="m253.38,125.11s33.57.56,48.78,15.51c0,0-15.34-30.49-49.5-15.85"/>
  <path class="cls-1" d="m265.3,163.31s9.19,19.35,17.21,19.01c0,0-16.68,16.33-40.97-2.3,0,0,15.66,23.11,40.04,10.81,0,0-8.37,32.59-63.59,2.56,0,0,31.53,35.65,74.52,14.54,0,0,16.47-8.27,21.73-40.76,0,0-.02-10.34-4.92-11.63l-44.02,7.77Z"/>
  <path class="cls-1" d="m236.33,319.01s61-29.46,90.27-33.08c2.39-.3,4.71-.97,6.91-1.92,6.72-2.92,18.88-9.41,15.89-17.18,0,0,11.25,16.51,3.58,35.33,0,0-24.66-18.46-116.66,16.86Z"/>
  <path class="cls-1" d="m273.76,572.08s94.8-62.11,96.98-95.84c0,0-55.49,32.35-162.49,43.37l73-3s2.94,8.99-7.49,55.47Z"/>
  <path class="cls-1" d="m296.65,274.68s4.29,6.72,1.25,9.35l-6.58-9.67,5.34.32Z"/>
  <path class="cls-1" d="m296.65,263.68s4.29,6.72,1.25,9.35l-6.58-9.67,5.34.32Z"/>
  <path class="cls-1" d="m180.25,195.61l-80.85,26.38s-39.13,77.19-31.16,132.88c0,0,30.29,109.51,44.44,123.5,0,0,5.1,14.25,10.08,14.65,0,0-8.84,7.76-22.3-10.84l-13.06-29.39s-22.96-20.54-33.28-79.43l-7.84,10.2s2.04-92.85,38.9-164.13c.95-1.83-12.93,0-11.94-1.81,1.1-1.99,16-9,18.22-9.54,1.12-.27.63-2.69,2.7-3.51,15.37-16.48,22.26-20.5,47.08-32.96l39,24Z"/>
  <path class="cls-1" d="m387.25,339.61c-1.34-43.34-28.77-59.63-33-59l-.92,20.74c12.67,8.46,23.88,21.51,33.92,38.26Z"/>
  <path class="cls-1" d="m266.33,603.29s71.96,27.97,125.98,12.29l2.02,1.28c2.66,1.34,17.44-.89,17.46-8.72,0-2.25,3.29-3.2,3.54-4.85,0,0,11,22.05-42.2,26.88,0,0-52.65,2.91-100.72-14.96l-8.51-3.3,2.44-8.63Z"/>
  <polygon class="cls-1" points="162.42 277.81 170.61 400.94 156.08 378.07 154.89 292.87 162.42 277.81"/>
  <path class="cls-1" d="m130.08,463.1s8.23,17.9,7.91,37.3c0,0-11.47-4.13-11-10l3.08-27.31Z"/>
  <path class="cls-1" d="m152.41,459.95s10.16,21.87,11.07,37.02l-11.15.03s3.02-25.02.08-37.05Z"/>
  <path class="cls-1" d="m174.09,452.36s9.08,17.16,7.41,29.73l-4.23,3.69-3.17-33.41Z"/>
  <path class="cls-10" d="m312.21,188.13s19.04-23.52,43.04-38.52c-6.61-2.42-14.84-3.03-23.94-2.66,3.35-9.24,8.78-14.13,16.94-13.34-4-2-28.33-16.42-29.77-28.18,0,0-2.93-20.41-11.52-28.86,0,0-20.74-24.2-41.63-26.34,0,0,7.43-8.79,5.95-13.97,0,0-7.88,8.24-16.69,10.85,0,0,.37-8.51-3.3-11.9,0,0-9.83,12.56-18.79,11.65,0,0-33.09,4.57-48.22,17.14,0,0-28.75,20.21-36.29,43.57,0,0-13.74,25.05-32.74,27.05,0,0,15.92,8.42,23.43,8.69,0,0-23.43,8.31-30.43,11.31,0,0,23.91,8.13,30.84,14.11"/>
  <path class="cls-13" d="m388.92,343.54c-6.82-35.17-3.67-29.93-7.67-77.93,1-2,7-1,7-1-4-5-14.05-16.19-14.05-16.19l-12.46-37.06c-2-8.83-11.49-14.86-19.49-20.75,0,0-17.17-10.58-21-11"/>
  <path class="cls-11" d="m281.25,517.61c-.33,17.25-2.79,56.29-19.15,77.18l-8.17,8.5,12.26-2.34-1.85,8.87c-.29,1.41.59,2.79,2.14,3.35,14.53,5.22,86.01,29.01,136.23,10.85,0,0,20.14-7.58,10.14-27.09,0,0,.69-13.1-36.15-20.55,0,0,15.15-43.92,11.15-57.49l6.19,12.23s2.87-38.05,1.48-60.77l-.06-19.31"/>
  <path class="cls-13" d="m93.9,471.52c-1.6-5.05-7.21-18.79-7.21-18.79-26.05-34.08-33.1-78.93-33.1-78.93-2.07.82-7.98,11.91-7.98,11.91-.59-5.21,2.81-34.96,2.81-34.96,11.38-76.04,26.58-114.17,35.66-131.37-2.95-1.78-7.55-1.63-13.4,0,9.43-8.23,21.21-12.26,21.21-12.26,21.19-21.89,40.52-31.43,50.36-35.51"/>
  <path class="cls-6" d="m164.33,107.22s-39.16-3.82-22.93-32.16c0,0,13.83-24.56,26.46-20.25,0,0,16.5,5.71,18.37,16.96"/>
  <path class="cls-10" d="m265.71,120.12c-.6-2.51-.54-4.55-.26-7.31,1.53-14.97,12.56-26.11,26.16-24.71s24.23,18.57,23.09,29.76c-.97,9.49-5.1,16.9-11.46,20.7"/>
  <path class="cls-15" d="m263.97,144.59s3.5-12.22,40.79-3.37c0,0,13.83,2.42,6.12,18.72,0,0-5.7,14.49-19.29,15.61,0,0-34.85-2.04-27.63-30.97Z"/>
  <ellipse class="cls-6" cx="221.85" cy="121.41" rx="27.25" ry="27.5" transform="translate(78.45 329.73) rotate(-84.15)"/>
  <path class="cls-10" d="m292.14,176.11s5.21-1.99,5.47-21.56"/>
  <path class="cls-10" d="m268.63,165.16s9.42-8.58,19.63,9.55"/>
  <path class="cls-16" d="m271.73,139.84s-2.46,11.55,27.83,12.9c0,0-16.53,4.34-35.4-7.65,0,0,3.49-4.67,7.58-5.26Z"/>
  <path class="cls-3" d="m241.62,70.77c-15.7-1.47-31.83,8.47-31.83,8.47,0,0-9.46,1.64-15.95-3.53l9.54-2.61-7.33-3.08c16.52-6.41,31.56-5.36,45.72.14.38.15.25.64-.16.6Z"/>
  <path class="cls-3" d="m307.88,79c-9.98-9.64-23-9.39-25.17-9.28-.06,0-.07-.1-.01-.13,1.59-.78,9.28-4.24,16.81-2.5l-1.18,1.86c3.76,2.55,6.94,5.56,9.65,9.93.05.08-.04.18-.1.12Z"/>
  <path class="cls-10" d="m248.35,128.72s27.15-25.68,56.41,12.5"/>
  <path class="cls-10" d="m292.19,175.63l-2.17,11.32s10.23,8.08,15.71,3.62"/>
  <path class="cls-10" d="m148.7,74.96s18.34-12.19,24.95,11.6"/>
  <path class="cls-10" d="m166.56,96.9s-8.34-9.21,3.33-18.91"/>
  <path d="m112.23,490.44c2.79-2.91,8.9-7.95,11.37.72.17.61.18,1.26,0,1.88-.87,2.89-4.09,11.7-10.81,11.98,0,0-.29-6.19-1.47-11.12-.3-1.24.04-2.53.92-3.46Z"/>
  <path d="m136.53,494.68c2.4-3.14,8.57-9.91,10.08,1.24,0,0-2.02,12.63-10.07,12.97l-.86-11.38c-.08-1.02.23-2.02.85-2.83Z"/>
  <path d="m159.9,492.49c3.29-3.24,9.24-7.62,9.88,2.34,0,0-2.94,11.57-9.91,11.01,0,0-.13-5.89-1.07-9.09-.45-1.51-.03-3.15,1.1-4.26Z"/>
  <path class="cls-13" d="m128.19,462.95s3.25,30.52-5.23,31.93c0,0-18,7.53-30.05-29.85"/>
  <path class="cls-13" d="m126.42,491.78c4.7,10.65,18.92,8.73,18.92,8.73,13.39-3.1,6.33-42.56,6.33-42.56"/>
  <path class="cls-13" d="m173.41,449.54s11.76,45.49-4.07,46.71c0,0-13.02,2.44-18.74,0"/>
  <path class="cls-13" d="m236.33,319.01s67-26.49,94-21.58"/>
  <path class="cls-13" d="m167.76,257.5s-5.19,27.14-12.87,35.38l1.3,83.75"/>
  <path class="cls-13" d="m146.4,361.14s16.67,29.29,28.21,48.94c7.04,11.99,10.91,25.53,11.1,39.35.21,15.31-1.18,32.97-8.42,35.48"/>
  <path class="cls-13" d="m352.33,300.37s71.41,48.28,47.41,141.47c0,0-7,28.45-59.41,52.76"/>
  <path class="cls-13" d="m208.02,519.46s88.31,1.07,115.32-11.53"/>
  <path class="cls-11" d="m113.33,598.2c4-.85,77-1.1,77-1.1"/>
  <path class="cls-11" d="m123.33,603.29s-12,12.72-5,42.41"/>
  <path class="cls-11" d="m167.33,603.29s-14,11.66-5.5,41.46"/>
  <path class="cls-11" d="m359.33,592.26s35.36-.96,34.68,31.76"/>
  <path class="cls-11" d="m380.33,586.33s33,4.66,33,28.84"/>
  <path class="cls-10" d="m315.86,64.65s-9.59-2.36-9.68,11.03"/>
  <path class="cls-10" d="m264.15,145.1s26.87,17.34,47.85,3.9"/>
  <path class="cls-1" d="m170.64,57.1s12.6,14.36,9.9,21.12l4.59-5.56s.57-8.18-14.49-15.56Z"/>
  <path class="cls-1" d="m148.62,75.8s-11.44,20.09,16.78,20.97c0,0-6.56-8.21,2.86-19.06,0,0-4.68-10.59-19.64-1.92Z"/>
  <path class="cls-10" d="m137.83,167.49s19.25,21.92,59.12,35.05"/>
  <path class="cls-13" d="m326.33,242.5c1,.98,39,29.43,26,57.88"/>
  <path class="cls-10" d="m210.22,151.73s20.93,2.59,30.07-8.98"/>
  <path class="cls-8" d="m168.06,145.46s-7.59,6.3-17.74,4.71c0,0,8.14,6.32,14.42,3.94,0,0-.46,4.93-4.09,5.48-.5.08,4.37,1.58,8.55,0"/>
  <path class="cls-8" d="m321.29,122.4s3.1,7.95,9,9.77c0,0-3.14,1.69-7.03.49,0,0,5.44,4.71,6.45,5.25,0,0-5.96-.17-8.05.62"/>
  <path class="cls-9" d="m90.27,329.61s-5.53,6.44-3.72,21.35l5.46-5.47s3.28,9.12,8.87,14.49c0,0-2.36-8.06-1.13-10.92"/>
  <path class="cls-9" d="m347.86,420.64s5,13.73,4,21.58c0,0,4.19-8.29,4.59-13.95,0,0,2.41,7.09,3.37,10.49,0,0,2.03,1.5,1.03-15.18"/>
  <path class="cls-10" d="m238.15,145.03s-8.54,10.73-14.51,10.11"/>
  <path class="cls-12" d="m182.05,558.44s.5,4.67-1.5,8.91c0,0,5.56,1.79,9.78-9.71,0,0,6.22,3.77,6.22,8.86,0,0,8-5.94,8-14.42"/>
  <path class="cls-8" d="m202.11,172.07s-3.32,6.85-8.83,4.39c0,0,5.82,5.59,10.84,5.18,0,0-1.26,2.96-4.34,3.15,0,0,2.06,1.72,8.05.82"/>
  <path class="cls-9" d="m357.29,216.55s4,2.94,7,9.81c0,0-5-2.94-6-2.94l1,3.92s-4-1.96-8-1.96"/>
  <path class="cls-12" d="m367.29,493.48s2,10.18,1,13.57c0,0,5-3.39,7-9.33,0,0,2,2.54,1,5.94,0,0,3.36-2.63,5.18-12.34"/>
  <path class="cls-8" d="m254.72,70.41s8.03,10.38,17.1-.06"/>
  <path class="cls-8" d="m234.51,156.25s-9.85,2-14.22,9.81"/>
  <path class="cls-8" d="m255.73,76.85s9.1,3.68,14.39.21"/>
  <path class="cls-8" d="m318.05,109.91s.75,4.88-3.38,4.18"/>
  <path class="cls-13" d="m179.84,297.54s-11.1,45.23,43.9,27.57"/>
  <path class="cls-9" d="m255.34,319.01s31.74-16.89,67.07-18.64"/>
  <path class="cls-12" d="m292.24,568.27c-1,5.09-1.33,10.18-1,15.27,0,0,2-4.24,6-9.33v7.03s5.21-3.66,6.61-9.16"/>
  <path class="cls-9" d="m75.08,411.17c1.09,5.66,3.18,10.85,6.8,15.31-.42-3.22-.6-6.56.86-10.76,1.43,3.01,5.46,5.88,10.34,8.7-1.68-3.7-2.38-7.6-1.05-11.89"/>
  <path class="cls-9" d="m90.24,233.39c-1.68,2.76-2.38,5.8-2.22,9.11,1.46-2.73,5.61-3.85,10.47-4.55-.83,2.48-.7,5.36,0,8.48,1.11-2.7,2.99-4.65,6.13-5.4"/>
  <path class="cls-11" d="m232.25,519.61s2,13-20,71c0,0,.69,23.57-2.15,35.28-.73,3-2.37,5.83-5.69,7.09-70.57,26.89-103.11,10.13-114.08,1.37-3.14-2.51-5.05-5.94-5.43-9.59-2.39-22.93,13.93-54.99,13.93-54.99l-10,3.39c3-10.18,18-32.23,18-32.23,2.53-5.57,2.55-21.33,3.42-35.34l-2-14.26"/>
  <path class="cls-8" d="m314.78,116.88s3.55-.24,5.26-2"/>
  <path class="cls-8" d="m250.25,131.74s-2.42,11.36-9.96,17.86"/>
  <path class="cls-9" d="m357.79,275.55c4.01,3.91,7.33,7.79,8.97,11.56.49-2.12.62-4.1,0-5.78,2.39-.28,4.25,1.08,6,2.78.04-2.61-1.42-5.28-4-8"/>
  <path class="cls-8" d="m221.25,188.61s-1.37,7.59,4.31,12.79"/>
  <path class="cls-8" d="m217.99,168.54s-6.59,6.78-4.39,18.94"/>
  <path class="cls-8" d="m258.12,81.47s3.53,2.58,8.6,1.37"/>
  <path class="cls-8" d="m230.33,55.87s7.47-1.35,9.97,2.21"/>
  <path class="cls-8" d="m278.21,61.48s3.59-2.84,6.59-.84"/>
  <path class="cls-8" d="m216.95,176.11s-1.82,7.04-.74,15.04"/>
  <path class="cls-8" d="m208.02,469.07c4.28,5.76,3.41,14.94,1.84,24.58,6.91-3.89,11.85-9.04,13.94-16.01,3.78,3.72,5.6,7.4,5.48,11.04,7.77-5.15,9.75-16.41,10.72-28.72"/>
  <path class="cls-8" d="m110.86,567.44c1.85,6.29,2.65,12.59,2.41,18.88,2.52-3.35,3.81-6.79,2.87-10.42,3.1,2.09,5.33,4.74,7.19,7.63,2.43-3.09,2.2-7.03.4-11.46"/>
  <path class="cls-13" d="m282.57,244.33s7.89,5.77,15.31,19.79l-10.2-2.55s8.97,7.37,11.29,13.97l-7.64-1.47s5.56,7,6.26,13.03"/>
  <path class="cls-9" d="m176.79,326.64s18,18.95,41.5,6.48"/>
  <path class="cls-9" d="m338.79,298.64s12.75,6.15,16.87,6.07"/>
  <path class="cls-9" d="m167.79,117.64c-8.72,5.01-14.51,5.87-22.35,3.77,4.94,5.74,9.32,7.26,13.35,6.23-4.93,4.57-11.17,5.58-17.95,5.1,11.7,5.61,17.33,6.74,32.95,5.9"/>
  <path class="cls-8" d="m178.07,123.83s8.71,7.18,17.35,5.09"/>
  <path class="cls-8" d="m178.91,131.74s11.18,1.85,16.17-1.03"/>
  <path class="cls-8" d="m186.22,135.72s8.54-.75,10.19-3.81"/>
  <path class="cls-8" d="m314.7,117.86s4.74,2.89,6.56,1.43"/>
  <path class="cls-7" d="m306.07,74.83s13-4,14-7c0,0,1,3-.73,5.78,0,0,8.98,2.95,14.73-.78,0,0,1.54,8.57-13,10,0,0,10,2.76,12,8,0,0-11-3.93-18-1.31,0,0-6.97-13.36-9-14.69Z"/>
  <path class="cls-5" d="m169.38,79.11s-11.86-.61-14.41-4.28c0,0-.64,4,1.59,6.89,0,0-7.26,7.17-20.99,3.81,0,0,5.49,7.65,16.9,7.65,0,0-5.77,6.08-4.83,9.16,0,0,11.76-6.9,17.04-6.02.39.06.69-.32.5-.66-1.33-2.38-3.37-8.52,4.2-16.54Z"/>
  <path class="cls-9" d="m183.85,239.9c-5.86,4.7-7.17,10.91-7.05,17.59.88-2.76,2.61-5.21,8.94-5.95-.65,1.7.39,4.59,1.84,7.79,1.31-3.28,3.23-6.2,7-8"/>
  <path class="cls-9" d="m357.07,566.83c2.76,3.12,2.98,6.9,2.26,10.93,3.7-2.96,6.7-5.68,7.95-7.83l1.41,7.83c5.26-4.66,7.77-10.79,8.37-17.93"/>
  <path class="cls-1" d="m269.57,211.33s1,22.49-2.5,28.24l-2.76,2.12s3.33-20.08-3.2-27.22l8.47-3.14Z"/>
  <path class="cls-1" d="m271.57,221.33s10,19,3,32c0,0,.68-20-3.66-22.5l.66-9.5Z"/>
  <path class="cls-1" d="m283.33,218.23l4.17,9.11,6.06,6s-.47-11.21-10.24-15.11Z"/>
  <path class="cls-10" d="m312.04,157.16s7.53,11.11-5.25,32.53c-.67,1.12-1.26,2.29-1.78,3.49-1.49,3.45-5.93,11.67-16,16.79,0,0,6.16,11.64,5.85,26,0,0-4.28-5.66-6.79-7.15,0,0-1.51,10.51-14.51,26.51,0,0,2.68-21-2.66-24.5,0,0-2.17,8.82-6.76,11.66,0,0,3.6-16.43-3.99-28.8-7.83-1.09-16.94-3.63-27.53-8.18-3.58-1.54-6.84-3.74-9.58-6.51-5.09-5.13-13.01-14.57-16.98-26.7"/>
  <path class="cls-2" d="m288.4,194.23s.67,15.61-1.33,22.61c0,0-1.15-3.57-3.07-6.29,0,0-5.93,12.29-8.93,14.29,0,0,3.03-11.49,2.02-12.24,0,0-8.02,6.24-9.02,5.24,0,0,7-12,8.18-14.02"/>
  <path class="cls-8" d="m215.57,155.54s-9.05,5.76-7.77,10.53"/>
  <path d="m206.08,138.52s22.43-26.48,34.22-26.49c0,0-4.59-7.48-9.4-8.25,0,0-23.88,12.23-30.35,27.73l5.53,7.01Z"/>
  <path d="m202.08,109.02l9.54-7.82s25.59,24.97,26.53,33.4l-7.26,6.63s-23.81-33.2-28.81-32.2Z"/>
  <path d="m273.08,105.02l5.37-8.24s24.63,13.24,30.63,28.24l-3.96,7.3s-17.04-23.3-32.04-27.3Z"/>
  <path d="m297.6,96.78l9.48,7.24s-5.59,21-12.8,26l-7.27-6.18s11.11-20.3,10.59-27.06Z"/>
  <path class="cls-10" d="m290.02,186.95s-22.43,21.14-66.68-11.4c-3.85-2.83-6.92,6.87-6.92,6.87"/>
  <path class="cls-14" d="m290.02,187.48l6.69,3.33c10.63,23.8,1.37,34.2,1.37,34.2-5.54,9.24-14.37,6.51-20.33,3.05-3.33-1.93-5.24-5.72-4.48-9.49,2.36-11.73-7.87-24.98-7.87-24.98,0,0,19.56-.64,24.62-6.11Z"/>
  <path class="cls-8" d="m236.33,191.15s14.35,16.56,32.3,16.46"/>
  <path class="cls-8" d="m288.51,193.7s6.8,13.88.94,28.84"/>
</svg>